<?xml version="1.0" encoding="utf-8"?>
<!-- Generator: Adobe Illustrator 22.0.1, SVG Export Plug-In . SVG Version: 6.00 Build 0)  -->
<svg version="1.1" id="Capa_1" xmlns="http://www.w3.org/2000/svg" xmlns:xlink="http://www.w3.org/1999/xlink" x="0px" y="0px"
	 viewBox="0 0 192.7 108.8" style="enable-background:new 0 0 192.7 108.8;" xml:space="preserve">
<style type="text/css">
	.st0{display:none;}
	.st1{display:inline;}
	.st2{fill:#001F45;}
	.st3{fill:#C27E00;}
	.st4{fill:none;stroke:#162F4D;stroke-width:3;stroke-miterlimit:10;}
	.st5{fill:none;stroke:#162F4D;stroke-miterlimit:10;}
</style>
<g id="Capa_1_1_" class="st0">
	<g class="st1">
		<g>
			<path class="st2" d="M32.2-215h0.5c1.5,0.9-0.3,4.8-0.4,6.1c-0.2-1.8-0.3-3.7-0.8-5.3C31.7-214.4,32-214.7,32.2-215"/>
			<path class="st2" d="M30.2-213.3c0.5,1.1,0.4,2.9,0.5,4.3c-0.5-1.4-1.9-2.5-1.7-4.2C29.1-213.8,29.9-213.5,30.2-213.3"/>
			<path class="st2" d="M34.1-208.9c0-1.3,0-3.6,0.6-4.6c0.6-0.1,0.9-0.1,1.2,0.3C35.7-211.2,34.5-210.5,34.1-208.9"/>
			<path class="st2" d="M29.5-208.1c-0.9-1.3-2.5-1.9-2.8-3.9C28.6-213,28.9-209.6,29.5-208.1"/>
			<path class="st2" d="M37.9-211.6c-0.3,1.7-1.5,2.4-2.2,3.6C35.8-209.2,36.4-213,37.9-211.6"/>
			<path class="st2" d="M39.9-210.2c0.2,0.1,0,0.6,0.3,0.5c-0.6,1.3-2,1.9-3,2.8C37.6-208,38.1-210.1,39.9-210.2"/>
			<path class="st2" d="M27.3-205.5c-0.8,0.1-1.5-0.5-2.5-0.9c-0.8-0.3-2.6-0.5-2.5-1.6c0.1-0.4,0.6-0.7,1-0.7
				C24.8-208.8,26.2-206.1,27.3-205.5"/>
			<path class="st2" d="M42.2-208.1c-0.7,1.8-2.9,1.9-4.5,2.7C39-206.3,40.3-209.3,42.2-208.1"/>
			<path class="st2" d="M32.3-207c-0.6,3.3,1.6,4.6,0.9,7.4C32.3-201.5,28.9-205.6,32.3-207"/>
			<path class="st2" d="M34.2-206.8c0.1,0,0.2,0,0.2,0.1c-0.8,3.1,2.8,6-0.2,7.6c0.1-1.4,0-3-0.5-4.3c-0.3,0-0.4,0.2-0.5,0.4
				C32.2-204.5,33.3-206.2,34.2-206.8"/>
			<path class="st2" d="M26.4-204c-1,0.1-2-0.3-3.3-0.6c-0.9-0.2-2.8-0.2-2.9-1.2c-0.1-0.8,0.7-1,1.3-0.9
				C22.9-206.5,24.9-204.4,26.4-204"/>
			<path class="st2" d="M44.4-206c-1.1,1.5-3.8,1.3-5.7,2c0.5-0.4,1.3-0.8,2.1-1.3C41.9-205.9,43.2-207.3,44.4-206"/>
			<path class="st2" d="M33.6-105.9h-0.9c-1.3-0.6-2.2-1.1-2.2-2.6c-0.1-1.8,1.4-2.1,1-4.2c-2.7-0.1-5.7,0.2-8.2-0.1v-2.5
				c-1.8-0.1-3.8,0-5.5-0.2c1.5-3.1,3.2-6,4.6-9.1c-7.9-2.6-14.3-8-18.1-15.4c-1.3-2.5-2.8-6.1-2.9-9.6c1.5-1.8,3.4-3.2,5-4.8v-3.9
				H0.3c2.6-4,5.4-7.7,8-11.6c-1.7-0.1-3.6,0.2-5.1-0.1c-0.2-4.9-0.2-10.6,0-15.5h4.3v-4.1c7.2-0.2,14.8-0.1,22.2-0.1
				c0.4-2.5-1.1-3.5-1-5.4c-0.6-0.5-1.4-2.1-0.3-2.7c-2.1-2.3-0.3-7.1,1.7-7.6c-0.6,3,2.4,4.2,1.5,7.1c-0.5-1.9-1.8-2.8-2.8-4.1
				c-0.4,1.6-0.8,5.2,1.2,4.8c0-0.8-0.8-1.3-0.4-2.1c0.7,0.1,0.7,1,1,1.5s1,0.7,1,1.4c-0.1,0.4-1-0.2-0.7,0.5
				c0.1,0.8,1.2,0.4,1.5,0.8c-0.3,0.7-2,0-2.5,0.6c-0.3,0.4-0.1,1.2,0.4,1.1c0.7,0-0.4-1,0.2-1.1c1-0.3,0.7,0.7,1,1.2
				c0.4,0.3,1.1,0.3,1.2,0.9c-0.5,0.3-1.5,0-2.2,0.1c0.2,0.9-0.2,2.8,0.6,2.9c1.1-0.7-0.8-1.7-0.1-2.3c1.5-0.4,0.5,2,1.3,2.3h0.4
				c0.6-1-0.7-1.5-0.3-2.2c1.1-0.6,0.9,1.2,0.9,2.2h1.5c0-0.9,0-1.9,0.1-2.7c0-0.5-0.9-0.1-0.8-0.8c0.4-0.7,1.4-0.6,1.3-1.8
				c-0.5-0.4-2.1,0.3-2.4-0.5c0.9-0.8,3.4,0.2,3.4-1.5c-1.5-0.2-3.4,0.9-4.5,0c1.9-0.4,3.7-0.5,4-2.5c0.6,0.7-0.6,1.6,0,2
				c2.8-2.3-1.9-5.6-0.1-8.6c0.1,2,1.8,3.3,1.9,5.2c0.1,1.4-0.7,2.6-0.4,4.3c-1.5,1.4-1.9,3.9-1.9,6.8h21.8v4.2
				c1.8-0.1,3.2,0.2,5,0.1c-0.1,5.2,0.1,10.6,0,15.5c-1.8-0.1-3.4,0.2-5.2,0.1c2.5,3.9,5.6,7.7,7.8,11.5h-6v3.6
				c0.9,1,1.9,1.8,3.1,2.8c0.9,0.8,2.7,1.7,2.9,3.1c0.2,1.8-1.3,4.6-1.7,5.9c-3.3,9.3-10.6,15.1-18.8,18.3c1.5,3.2,3.2,6.2,4.7,9.4
				c-1.9,0.1-4.1-0.1-5.8,0.1v2.5h-8.5c-0.5,1.6,1,2.3,1.2,3.4C36.1-107.3,35-106.6,33.6-105.9 M8.6-188.9c-0.1,0.1-0.2,0.1-0.2,0.4
				v4H4v13.7c2.1,0,4.1,0,6,0.2c-1.4,1.9-2.7,3.9-4.1,5.7c-1,1.3-2,3.1-3,4.5c-0.3,0.4-1,0.8-0.8,1.3h5v4h1.5v-5.3
				c-1.4,0-2.6-0.2-4.1-0.1c2.3-3.4,4.9-7,7.2-10.3c0.3-0.4,0.8-0.8,0.8-1.4c-2.4-0.1-5,0.2-7.2-0.1c0.1-3.6-0.1-7.4,0.1-10.8h4.4
				c0.1-1.4-0.1-3.1,0.1-4.3c14.9,0.1,30.1-0.2,44.9,0.1v4.2c1.5,0.1,3.3-0.2,4.6,0.1c-0.1,3.5,0.1,7.3-0.1,10.7
				c-2,0.3-4.5,0-6.8,0.1c2.3,3.8,5.7,7.9,7.9,11.7c-1.5-0.1-2.7,0.2-4.2,0.1v5.3h1.5v-4c1.6-0.2,3.5-0.1,5.2-0.1
				c-2.1-3.8-5.6-7.8-7.8-11.5c2,0,3.8-0.2,5.9-0.1c-0.1-4.9,0.3-9,0-13.7h-4.9v-4.3L8.6-188.9L8.6-188.9z M10.7-186.6v4.5H6.3v9
				c2.3,0.3,5.2-0.1,7.5,0.2c-0.1,5.4,0.1,11.2-0.1,16.4h-3v-2.6c0.6,0.1,1.5-0.3,1.6,0.3c0.1,0.8-1.1,0.1-0.7,1.2
				c0,0.5,0.9,0.1,1.3,0.2v-3H9.7v5.3h5.6v-12.7c4.2-2.9,10.4-5,17.2-5c6.9,0,13.1,2,17.3,5v12.7h5.7v-5.3h-3.2v2.9
				c0.4-0.2,1.5,0.3,1.4-0.4c0.3-0.9-1.1,0-0.8-1.1c0.1-0.4,1.3-0.3,1.5-0.1c-0.1,0.8,0.1,1.9-0.1,2.5c-1-0.1-2.2,0.1-3-0.1
				c0.1-5.5-0.1-11.2,0.1-16.5h7.1v-9.1H54v-4.3L10.7-186.6L10.7-186.6z M48.6-159.7c0.1,0.3,0.5,3.3,0.4,1.6v-9.4
				c-3.5-1.8-7.2-3.9-11.8-4.1C42.8-169.8,46.9-165.6,48.6-159.7 M16.1-167.4c0.1,3-0.1,6.4,0.1,9.3c1.3-7.1,5.5-11.1,11.2-13.4
				C22.9-171,19.4-169.3,16.1-167.4 M25.4-169.8c-3.6,1.9-6.2,4.9-7.7,8.8c-2.2,5.9-0.4,11.9,1.7,15c2.7,4,7.7,7.1,13.2,7
				c6.6,0,12.3-4.5,14.7-10.1c2.2-5.2,0.6-12.4-1.9-15.8c-2.3-3.2-7.1-7.1-13.8-6.6C29.1-171.2,27.2-170.7,25.4-169.8 M52.3-161.3
				h6.8c-2-3-4.6-6.4-6.8-9.6V-161.3z M9.4-165.9c-0.5,0.7-1,1.5-1.6,2.4c-0.5,0.7-1.4,1.5-1.3,2.2h6.4c-0.1-3.1,0.1-6.6-0.1-9.5
				C11.7-169.1,10.5-167.5,9.4-165.9 M14.1-154.3H7.3c-1.8,1.7-4.1,3.3-5.4,5.2c1.3,0.6,2.1-1,3.1-1.9c0.9-0.8,2.2-2.3,3.2-2.6
				c1.6-0.4,4.3,0,5.9,0c0.5,0,1.4,0.3,1.7-0.4C15.6-154.6,14.6-154.3,14.1-154.3 M60.9-151.8c-0.9-0.7-2.2-2.2-3.2-2.5
				c-2.7-0.7-5.7,0.4-8.7,0.1v0.4c2.3,0.5,5.5,0.1,8,0.2c1.6,1.1,3.4,2.8,4.9,4.1c0.4,0.4,1.2,1.3,1.7,0.4
				C63.2-150.1,62.1-150.9,60.9-151.8 M14.4-152.6c-1.8,0-4.6-0.4-6.2,0c-1.1,0.3-1.8,1.5-2.7,2.3s-2.1,1.5-2.2,2.3
				c-0.1,1,0.6,2.7,1.1,3.8c1.3,3,2.8,6.1,4.8,8.6c4.2,5.1,10.1,8.4,16.6,10.4c-1.3,2.6-2.7,5.1-4,7.9c1.4,0.1,3-0.2,4.2,0.1v2.5
				h14.5v-2.6h4.3c-1.1-2.9-2.8-5.3-4-8.2c11.5-2.9,18.9-10.3,22-22.5c-0.8-0.6-1.7-1.5-2.8-2.3c-0.9-0.7-2.1-2-3-2.2
				c-1.8-0.4-4.7,0-6.5,0c-0.5,0-1.7-0.3-1.6,0.7c2.3,0.7,5.3-0.5,7.7,0.1c1,0.2,1.8,1.3,2.6,2c0.9,0.7,2.3,1.4,2.4,2.3
				c0.1,0.9-0.6,2.6-1.1,3.6c-0.5,1.2-1,2.4-1.5,3.3c-4.2,7.5-11.6,12.3-19.8,14.8c1.2,2.4,2.5,4.6,3.5,7.1
				c-1.4-0.1-2.4,0.2-3.7,0.1v2.5c-3.8-0.1-7.9,0.2-11.6-0.1v-2.3c-1.3,0-2.6,0-3.7-0.1c1-2.6,2.6-4.5,3.5-7.1
				c-11.3-3.3-19.6-9.9-22.8-22.1c0.6-0.7,1.4-1.3,2.2-2c0.7-0.6,1.6-1.7,2.5-1.9c1.5-0.4,4,0,5.6,0c0.4,0,1.4,0.4,1.5-0.5
				C15.8-153,14.9-152.6,14.4-152.6 M9.2-151c-0.7,0.2-3.7,2.7-3.9,3.2c-0.1,0.5,0.4,1.8,0.6,2.5c0.3,0.8,0.7,1.6,1,2.2
				c4,8.9,12,14.4,21.5,16.8c-1.3,2.2-2.4,4.6-3.5,7H28v2.5h10c0-0.9,0-1.8,0.2-2.5c1-0.1,2.3,0.1,3.1-0.1c-1.2-2.4-2.4-4.6-3.5-7
				c11.4-2.9,19.5-9.3,22.8-21.1c-1.5-0.6-2.6-3-4.5-3.4c-2.4-0.5-4.9,0.3-7.5,0.1c-2.2,6.9-7,12.1-14.8,12.7
				c-8.9,0.6-15.3-5.1-17.3-12.7C14.3-150.7,11.5-151.5,9.2-151 M43.1-122.3c1.3,2.3,2.5,5.2,4.4,6.2c-0.6-1.6-1.7-3.4-2.7-5.1
				c-0.8-1.5-1.2-3.3-2.8-3.6C42.3-124.1,42.6-123.1,43.1-122.3 M21.6-120.7c-1,1.3-1.8,3.2-2.3,4.3c2.6-1.8,3.7-5.7,5-8.4
				C22.5-124.3,22.7-122.3,21.6-120.7 M24-115.9c0.1,0.7-0.1,1.6,0.1,2.1c0.2-0.4,0.8-0.5,1.1-0.8c-0.1-0.7,0.1-1.6-0.1-2.1
				C24.7-116.4,24.3-116.2,24-115.9 M41.1-114.6c0.3,0.3,0.9,0.4,1.2,0.7v-1.8c-0.4-0.3-0.7-0.6-1.2-0.8V-114.6z M32.6-111.3
				c0.2-0.2,1.1-0.2,1.3,0v-1.4h-1.4C32.5-112.3,32.3-111.5,32.6-111.3 M33.8-106.9c1.7-0.5,1.4-4.2-1.1-3.4
				C30.6-109.7,31.6-106.4,33.8-106.9"/>
			<path class="st2" d="M25.9-202.1c-2.3-0.3-6.4,0.3-8.1-1c-0.1-0.6,0.4-1.2,0.8-1.2C20.6-204.1,23.9-202.6,25.9-202.1"/>
			<path class="st2" d="M25.2-200.2c-1.5,0.3-3.4,0.3-5.1,0.5c-1.7,0.1-3.6,0.7-4.7-0.3c-0.2-0.4,0.1-1.1,0.5-1.3
				C19.1-201.1,22.1-200.6,25.2-200.2"/>
			<path class="st2" d="M39.2-200.1c2.5-0.3,6-0.9,8.3-1.1c0.7,0,1.9-0.3,1.6,1.1c-0.3,1.3-3.4,0.4-4.7,0.3
				C42.4-199.9,41-200,39.2-200.1"/>
			<path class="st2" d="M25.4-198.1c-3.1,0.6-6.6,1.4-10,2.1c-1.1,0.2-2.8,0.5-2.9-0.6c-0.1-0.8,1-1.1,1.6-1.2
				C17.4-198.2,22.2-197.7,25.4-198.1"/>
			<path class="st2" d="M39.1-198c0-0.1,0.1-0.1,0.2-0.1c2.8,0.2,6.5,0.2,9.4,0.4c1.1,0,2.7-0.4,3.2,0.8c-0.1,1.6-1.8,1.1-2.8,0.9
				C46-196.6,42.3-197.5,39.1-198"/>
			<path class="st2" d="M39.2-196.1c2.6,0.3,5.4,1.1,8.2,1.8c2.7,0.7,5.7,0.9,7.9,2.2c-0.1,2.3-2.7,0.9-3.6,0.6
				C47.7-193,43.3-194.8,39.2-196.1"/>
			<path class="st2" d="M34.3-191.8c0.2,0.4,0.1,1.1,0.1,1.6h-0.3c-0.3-0.3-0.4-0.9-0.4-1.5C33.8-191.8,34-191.8,34.3-191.8"/>
			<path class="st2" d="M13.6-185.6c-0.6,2.6-1.4,5.2-2,7.8c0.5,0,0.7-0.3,1.3-0.2v1.3c2.9,2.2,1.5-6.2,1.8-8.9h1.1
				c-0.4,3.8,1.3,10-1.9,10.8c-0.8-0.5-2-0.5-2.1-1.6c-0.5,0.2-1.3,0.2-1.7,0.5c0.4-3.1,1.7-6.4,2.4-9.6h1.1
				C13.6-185.5,13.6-185.6,13.6-185.6z"/>
			<path class="st2" d="M17.5-185.6c1.1,1.1,1.3,3.2,2.3,4.4c0.6-1.9-0.7-2.6-0.5-4.3c0.2-0.2,0.8-0.1,1.2-0.1
				c0.1,0.7,0.1,1.5,0.5,1.9v5.5c-0.4,0.1-0.6,0.3-1.1,0.2c-0.8-1.4-1.3-3-2-4.5c-0.2,0.8,0,2.1-0.1,3.2c0.1,0.3,0.5,0.2,0.6,0.4
				v1.5c-0.4,0.2-0.7,0.5-1.3,0.6c0.2-1-0.2-1.4-0.5-1.9c0.1-2.3-0.1-4.8,0.1-6.9L17.5-185.6L17.5-185.6z"/>
			<path class="st2" d="M24.7-185.6c0.3,1.6-0.8,4.9,0.9,5c0.3-1.4-0.1-3.6,0.2-5h1.1c0.1,2.1,0.6,5.7-1,6.3
				c-1.2,0.2-1.7-0.4-2.2-1.1v-5.3L24.7-185.6L24.7-185.6z"/>
			<path class="st2" d="M33.9-185c0.2,2.3-0.7,3.6,0.2,5.2h-1.2c-0.2-0.5-0.2-1.2-0.5-1.6c-0.6,0-0.2,1.1-0.3,1.6h-1.2
				c0.1-2-0.2-3.6-0.1-5.6C31.5-185.4,33.4-185.7,33.9-185 M32-182.4h0.6v-1.9C31.6-184.6,32.2-183.1,32-182.4"/>
			<path class="st2" d="M37.7-183.8c-0.2,0.2-0.6,0.1-1,0.1c-0.4-0.1-0.2-0.8-0.9-0.6c-0.2,0-0.1,0.4-0.1,0.6c0.8,1,2.5,1,1.9,3.4
				c-0.3,0.2-0.5,0.5-0.8,0.7c-0.6,0-1-0.2-1.7-0.1c-0.2-0.6-0.7-0.8-0.6-1.8c0.3-0.3,0.8,0,1.2,0v0.8c0.4,0.1,0.4-0.2,0.7-0.1
				c0.2-1.6-1.2-1.4-1.9-2c0.1-0.9-0.2-1.4,0-2C35.1-186.3,38.2-185.9,37.7-183.8"/>
			<path class="st2" d="M39.5-185.6v6.2c-0.5,0.1-0.6-0.2-1.1-0.1v-6.1L39.5-185.6L39.5-185.6z"/>
			<path class="st2" d="M42.4-185.6c1.1,1.8,1.9,3.8,2.1,6.4c-0.7-0.3-0.8,0.2-1.1,0.6c-1.3-0.1-2.4-0.5-3.1-1.4
				c0.1-1.8-0.1-3.8,0.1-5.4C40.9-185.7,41.8-185.5,42.4-185.6 M42.4-180c0.2-0.2,0.3-0.5,0.6-0.5c-0.4-1.2-0.5-2.9-1.2-3.9h-0.3
				C41.7-182.7,41.1-180.3,42.4-180"/>
			<path class="st2" d="M48.6-185c0.2,2.5,0,5.6,0.1,8.3c-0.5,0-0.7-0.4-1.2-0.3v-3.1c-0.2-0.3-0.7-0.2-1.2-0.2
				c-0.2,0.8-0.1,1.9-0.3,2.6c-0.3-0.2-0.7-0.3-1.2-0.3c0-0.6,0.4-0.8,0.4-1.3c0.2-1.6-1.2-3.3-1.2-4.8c0-0.4,0.3-1.2,0.6-1.4
				C45.7-186,47.9-185.6,48.6-185 M46.2-181.4h1.3v-2.9h-1.9C45.5-183,45.9-182.3,46.2-181.4"/>
			<path class="st2" d="M49.4-185.6c1,0.2,2.2,0.1,3.3,0.1c1,3.5,2,6.9,3,10.3c-0.7-0.1-1.1-0.5-1.7-0.7c-0.2,0.6,0,1.6-0.6,1.8
				c-1-0.5-1.8-1.3-3-1.8c0.3-1.2-0.7-1.1-1-1.8V-185.6L49.4-185.6z M50.7-178.4c0.3,0.7,1,0.9,0.7,2.1c0.4,0.2,0.8,0.4,1.3,0.6
				c0.1-0.6-0.1-1.5,0.1-1.9c0.4,0,0.5,0.3,1,0.2c-0.7-2.3-1.3-4.7-2-6.9h-1.1V-178.4z"/>
			<path class="st2" d="M22.8-185.5c-0.1,2.2,0.1,4.7-0.1,6.7c-0.3,0.1-0.6,0.3-1,0.3c-0.2-2.1,0-4.7-0.1-7H22.8L22.8-185.5z"/>
			<path class="st2" d="M27.6-185.5c1.2-0.1,2.1,0.1,2.6,0.7c-0.1,0.3-0.4,0.5-0.5,0.9c-0.3-0.1-0.5-0.4-0.8-0.5
				c-0.2,0.2,0,0.8-0.1,1.2h1.5c-0.2,0.2-0.1,0.9-0.1,1.3h-1.3c-0.2,0.1,0,0.7-0.1,1.1c0.5,0,0.8-0.2,1.4-0.1v1.2
				c-0.9,0-1.5,0.2-2.5,0.1C27.4-181.3,27.6-183.5,27.6-185.5"/>
			<path class="st2" d="M31.1-178.4c0.6,1.3,0.2,3.6,0,4.9c-0.9-0.1-1.5,0.1-2.4,0.1C28-175.4,27.7-179.6,31.1-178.4 M29.2-177.1
				v2.3c0.3,0.3,0.5,0.6,1.2,0.5c0.3-0.7,0.3-2.3,0.1-3.2C30-177.4,29.4-177.4,29.2-177.1"/>
			<path class="st2" d="M32.2-178.4c2.1,0.1,1.8,2.7,3,3.8c0.2-0.7,0-1.8,0.1-2.7c-0.1-0.3-0.7,0-0.7-0.2v-0.8h1.5v4.9
				c-0.6,0.1-0.8-0.2-1.4-0.1c-0.5-1-0.9-2-1.5-2.8c-0.6,1.3,0.7,1.5,0.4,2.8h-0.9c0.2-0.8-0.3-0.9-0.5-1.3L32.2-178.4L32.2-178.4z"
				/>
			<path class="st2" d="M39.2-173.2c-0.7,0-1.3-0.2-1.9-0.2c-0.6-0.6-1.1-4.3,0-4.8c0.5-0.2,1.2,0.2,1.9,0.2
				C40.2-177.3,40.2-173.8,39.2-173.2 M37.6-174.4c0.3,0.3,0.7,0.4,1.3,0.3c0.4-0.7,0.2-2.2,0.1-3C37.3-178,37.6-175.9,37.6-174.4"
				/>
			<path class="st2" d="M27.7-178.1v1.1c-0.6,0.3-0.8-0.2-1.5-0.1c-0.5,0.5-0.1,2-0.2,2.9c0,0.3,0.5,0,0.6,0.1v0.9
				c-0.8,0-1.3,0.4-2.1,0.4v-0.9c0.1-0.1,0.4-0.1,0.6-0.1v-3.1c-1-0.2-0.8,0.8-1.7,0.6v-1.2C24.7-177.8,25.9-178.2,27.7-178.1"/>
			<path class="st2" d="M40.6-177.7c0.6-0.1,0.9,0.1,1.4,0.2c0.5,0.9,0.8,2,1.1,3.2c0.7-0.6,0.8-1.8,1.4-2.5
				c0.4,0.2,0.9,0.2,1.3,0.5v3.5c-0.2,0.4-0.6,0.7-0.4,1.5c-0.5,0-0.7-0.3-1-0.5c0-1.3,0.7-2,0.4-3.6c-0.6,1-1.1,2.2-1.7,3.2
				c-0.7-1.1-0.9-2.8-1.5-4c-0.7,1.5,0.4,2.1,0.3,3.6c-0.3-0.1-0.7-0.1-1-0.2C40.6-174.2,40.5-175.9,40.6-177.7"/>
			<path class="st2" d="M22.6-177.3c-0.2,1.5,0.3,3.1,0,4.2c-0.3,1.3-2.4,2.1-3.2,0.8c0-1.4,0-2.7-0.1-4c0.4-0.2,0.9-0.4,1.5-0.5
				c-0.2,1.2-0.6,2.7-0.2,4.1c0.7,0,1-0.4,1.3-0.8c0.2-1.7-0.2-2.3-0.3-3.5C21.8-177.1,22.2-177.2,22.6-177.3"/>
			<path class="st2" d="M18.7-175.6c0.1,1.8,0,3.5-0.2,5c-0.3,0.2-0.6,0.3-1.1,0.4c-0.1-0.9,0.3-1.3,0.4-2c-0.5-0.1-1.3,0.5-1.7,0.9
				c0.6,0.7,0.5,2.1-0.5,2.2c-0.2-1.6-0.5-3.1-0.3-5C16.1-174.9,17.1-175.6,18.7-175.6 M17.6-174.7c-0.4,0.3-1,0.5-1.5,0.7
				c0.1,0.5-0.1,1.2,0.1,1.5c0.5-0.3,1-0.6,1.6-0.8C17.7-173.7,18-174.6,17.6-174.7"/>
			<path class="st2" d="M49.8-174.3c0.1,2-0.1,3.7-0.3,5.3c-0.3-0.1-0.5-0.3-0.7-0.5c-0.1-0.8,0.2-1.2,0.2-1.9
				c-0.4-0.4-1-0.6-1.5-0.8c-0.2,0.5,0.4,1.1,0.2,2c-0.4,0-0.5-0.4-1-0.4c-0.2-1.5-0.5-3.4-0.2-5C48-175.6,48.8-174.9,49.8-174.3
				 M47.3-173.3c0.5,0.3,1,0.6,1.7,0.7v-1.4c-0.6-0.2-1.1-0.5-1.7-0.7V-173.3z"/>
			<path class="st2" d="M31-170.5c6.8-0.6,12.3,3,14.8,7.9c2.2,4.4,2.2,10.6-0.2,14.9c-2.7,4.8-8.2,8.4-14.6,7.9
				c-5.1-0.4-9.4-3.8-11.7-8c-1.3-2.5-2.3-6.8-1.6-10.4c0.4-1.8,1.1-3.2,1.7-4.3C21.6-166.5,25.5-170,31-170.5 M19.4-161.2
				c-2.4,5.3-0.6,11.7,1.6,14.8c2.4,3.4,6.4,6,11.6,6c7.9,0,15.1-7,14.1-16.8c-0.4-3.6-2.8-7.1-4.4-8.7c-2.7-2.6-6.8-4.3-11.9-3.7
				C25.5-169.1,21.2-165,19.4-161.2"/>
			<path class="st2" d="M11.5-166.4c0.5,0.9,0.1,2.7,0.2,4h-3C9.5-163.8,10.6-165,11.5-166.4"/>
			<path class="st2" d="M53.7-166.4c0.9,1.3,2.2,2.7,2.8,4h-2.8V-166.4z"/>
			<path class="st2" d="M6.9-147.5h3v1.4c-0.2,0.2-0.7,0.1-1.1,0.1c0.1,0.5,0.3,0.9,0.5,1.3h3.2c0.2-0.2,0-0.8,0.1-1.2
				c0-0.3-0.5,0-0.7-0.1v-1.5h2.2c0.2,1.1,0.2,3,0,4.1c-0.5,0.2-1.4,0-2,0.1c-0.5,2.3,0.4,4.1,0.3,6.3c-1.1-1.3-2-2.7-3-4.1v-1.4
				c0.5,0,0.5,0.6,0.9,0.7v-1.4H9C8-144.2,7-145.4,6.9-147.5"/>
			<path class="st2" d="M15.3-147.5c1.2,1.4,2.7,2.5,2.6,5.4c-0.2,0.6-0.6-0.4-0.9-0.5v6.7c0.1,0.6,0.8,0.6,0.6,1.5
				c0.3,0.5,0.9,0.6,1.3,0.9c0.2-0.4,0.2-0.9,0.9-0.7v-5.5c-0.7-0.5-0.9-1.4-0.7-2.8c0.9,0.5,1.7,1.1,2.2,2v7.9
				c-0.6,0.3-0.9,0.9-1.4,1.4c-1.4-0.5-2.3-1.6-3.7-2.1c0.1-1.1-0.3-1.5-0.6-2C15.7-139.6,15.4-143.4,15.3-147.5"/>
			<path class="st2" d="M50.3-147.5v11.4c-0.1,0.3-0.3,0.4-0.4,0.7c0.4,1.3-0.1,2.4-1.1,2.6c-0.4-1.5,0-2.8,0-4.5
				c-0.8,0.3-1.6,1.6-2.4,2.2c0.2,1.1,0.9,1.8,0.6,3.4c-0.6,0.2-1,0.6-1.6,0.8c-0.2-0.7,0-2-0.6-2.2v-8.3c1.4-2.1,3.4-3.5,4.4-6.1
				L50.3-147.5L50.3-147.5z M46.4-140.7c-0.3,1,0.2,2,0.2,3.3c0.4-0.9,1.9-1.5,2.2-2.6c0.3-0.9-0.1-2.1-0.1-3.3
				C48.3-142.3,46.7-141.9,46.4-140.7"/>
			<path class="st2" d="M51.4-147.5H53c1,1.3,1.7,2.9,2.6,4.3c0.6-0.6,0.9-1.5,1-2.7c-0.2-0.3-0.8,0-1.1-0.2v-1.4
				c1.1,0,2.3-0.1,3.2,0.1c-0.2,1.7-0.6,3.6-1.5,5.2c-0.1,0.3-1.2,2-1.4,2c-0.5,0-1.1-1.3-1.4-1.8c-0.5-0.9-0.7-1.4-1.2-2
				c-0.2,1.3,0,3.2-0.1,4.7c1.2,1.3,0.1,3.4-1.1,3.9v-2.1c-0.1-0.4-0.5-0.5-0.6-0.9V-147.5z"/>
			<path class="st2" d="M43.8-136.6c-0.5,0.1-0.9,0.2-1.3,0.5c-0.2-0.4,0-1.2-0.1-1.8c-0.6,0.3-1.3,0.5-1.6,1.2v6
				c0.2,0.3,0.9,0.1,1.2,0v1.6c-1.3,0.1-2.3,0.6-3.5,0.7v-1.6c0.3,0.1,0.4-0.2,0.8-0.1v-4.9c-0.7,0.6-2.1,1.3-1.8,3.4H36v-1.9
				c1.3-1.6,2.6-3.1,3.8-4.8c1.1-0.2,3-2.5,3.9-1.4C44.1-139.2,43.7-137.9,43.8-136.6"/>
			<path class="st2" d="M27.9-134.7c-0.3,0.3-0.7,0.5-1,0.8c-1.2-0.8-1.2-2.8-2.8-3c-0.1,2.4-0.8,6.5,1.6,6.6
				c0.2-0.1,0.1-0.6,0.3-0.7c0.7-0.1,1.1,0.2,1.7,0.2v1.5c-0.9-0.3-0.6,0.8-1.1,0.9c-1.3,0-2.4-1-3.8-1.2c0.1-0.7-0.3-0.9-0.5-1.2
				v-8.6c0.2-0.1,0.3-0.2,0.3-0.4C25.4-139,26.8-137.1,27.9-134.7"/>
			<path class="st2" d="M37.5-137.5c-0.1,1.6-2,1.1-2.7,2c0.1,0.2,1,0.2,1.1,0c0.2,0.9-0.8,1.5-1.9,1.3c-0.1,0.6,0.1,1,0.2,1.4
				c0.2,0.2,0.6,0.1,0.9,0.2v0.8c-0.3,0.2-0.9,0.1-1.4,0.1c-0.4-1-1.1-1.5-1-2.5c0.1-1.2,1.8-2.1,2.1-3
				C35.8-137.2,36.6-137.5,37.5-137.5"/>
			<path class="st2" d="M32.3-135c0,1.6-0.2,2.8-1.2,3.3c-1-1.6-2.1-3-3.1-4.6C29.1-138.5,31.2-135.9,32.3-135 M31.3-133.5
				c0-1.3-0.8-1.7-1.7-2.1C30-134.7,30.6-134.1,31.3-133.5"/>
			<path class="st2" d="M36-130.3c0.5,1,0.3,2.6,0.3,4.2c0,2.2,0.3,4.6-0.5,5.6v2c-0.3,0.2-1,0.1-1.5,0.1c-0.2-2.1,0.4-3.2,0.3-5
				h-3.1c-0.2,0.7-0.2,2.1,0.4,2.2v2.8c-0.3,0.2-1,0.1-1.5,0.1c0.1-1.4,0-2.7-0.8-3.2c0-2.9-0.1-5.9,0.1-8.6
				C31.5-130.5,34-130.1,36-130.3 M31.3-128.5v3.4c0.9,0.2,2.6,0.2,3.5,0v-3.4C33.9-128.7,32.2-128.7,31.3-128.5"/>
			<path class="st2" d="M24.6-210.1c1.8-1.7,2.7,2,3.9,2.9C27.1-207.6,25.3-208.6,24.6-210.1"/>
			<path class="st2" d="M39.2-202.1c-0.1,0-0.1,0-0.1,0.1c0.8-0.5,2.3-0.9,3.7-1.4c0.8-0.3,3.6-1.6,3.6,0c0,1.3-2.3,1-3.3,1.1
				C41.6-202.2,40.6-202.1,39.2-202.1"/>
			<path class="st2" d="M26.5-195.9c0.5,0,0,0.2-0.2,0.1c-4.3,1.4-8.8,2.9-13.5,4.3c-0.7,0.2-4.3,1.8-3.9-0.5c0.2-1,3-1,4.2-1.3
				c4.4-0.9,9-1.9,13.3-2.7L26.5-195.9L26.5-195.9z"/>
			<path class="st2" d="M38.9-163.2c3.6-0.1,5.3,0.9,5,5.3c0,0.6-0.2,1.6-0.4,2.3c-0.4,1.6-0.6,2.7-1.5,3.4c0.6,1.5,1.7,2.5,2.2,4.1
				c-2.5,0.4-4.8-0.5-6.9,0c-1.2,0.3-2.7,2.1-3.6,2.9c-1.2,1.1-2.4,2.1-3.4,3c-1.6-1.8-3.1-3.9-4.4-6h-5.5c0.5-1.3,1.2-2.5,1.7-3.8
				c-1.4-0.7-3-1.4-3.1-3.2c-0.1-2.9,3.5-5.3,5.8-5.6c0-0.9,0-1.7,0.1-2.5c0.1-0.1,0.4-0.1,0.6-0.1c1-4.6,7.7-6.7,11.3-3
				C37.8-165.4,38.3-164.3,38.9-163.2 M34.3-167.2c0-0.4-0.7-0.5-0.9-0.4C33.7-167.4,33.9-167.1,34.3-167.2 M31.3-167.4
				c-0.1,0.3-0.8,0.3-0.5,0.7 M31.2-166.4c0.4,0,0.5,0.2,1,0.1c0-0.5,0-0.9-0.2-1.2C31.9-166.9,31.2-166.9,31.2-166.4 M32.6-166.2
				h0.9c-0.1-0.6-0.6-0.8-0.9-1.2C32.5-166.9,32.4-166.7,32.6-166.2 M27.9-165.8c0.9,0.2,1.6-0.9,2.2-1.4
				C29.3-167.3,28.2-166.6,27.9-165.8 M34-166.6c0-0.4-0.6-0.9-0.9-0.6C33.6-167.2,33.3-166.4,34-166.6 M34.6-166.7
				c0.8,0.1,1.4,1.9,2.1,1.1c-0.3-0.5-1.2-1.4-2.1-1.5C34.6-166.9,34.4-166.9,34.6-166.7 M28.5-165.1c0.3,0.3,0.9,1,1.4,0.8
				c0.2-0.7,0.7-1.6,0.6-2.3C29.7-166.7,28.9-165.8,28.5-165.1 M34.6-163.9c0.6-0.2,1.2-0.4,1.4-1.1c-0.4-0.7-1.3-1.8-2.1-1.3
				 M30.2-163.9c0.6,0.2,1.1,0.4,1.9,0.4v-2.4c-0.5,0-0.9-0.1-1.2-0.2C30.7-165.4,30.4-164.7,30.2-163.9 M32.6-165.8v2.2
				c0.5,0.2,1.2-0.1,1.7-0.2C34-164.8,34-166.5,32.6-165.8 M26-163.3c0.1,0.3,0.4,0.5,0.8,0.6c-0.1-1.3,1.1-1.7,0.9-2.8
				C27-165.4,26.3-164.2,26-163.3 M36.8-164.7c0.4,0.6,0.7,1.2,1,2c0.5,0,0.6-0.3,0.9-0.6c-0.7-0.5-0.8-1.6-1.5-2.1
				C37-165.1,36.8-165.1,36.8-164.7 M26.9-162.4c0.8,0.3,1.4,0.9,2.4,1.2c0-1,0.3-1.5,0.3-2.5c-0.5-0.5-1-0.9-1.6-1.2
				C27.6-164,27.3-163.2,26.9-162.4 M36.2-164.5c-0.4,0.4-0.8,0.8-1.4,0.9c0.3,0.7,0.4,1.6,0.4,2.6c0.9-0.3,1.6-0.8,2.2-1.3
				C37.2-163.2,37-164.1,36.2-164.5 M29.6-161c0.8,0.2,1.6,0.5,2.6,0.5v-2.5c-0.7-0.2-1.4-0.4-2.1-0.6C29.9-162.6,29.6-162,29.6-161
				 M32.5-163v2.6c0.9,0,1.6-0.2,2.4-0.4c-0.1-0.9-0.3-1.7-0.3-2.6C33.9-163.2,33.1-163.2,32.5-163 M35.7-156.3
				c0.2,0.9,0.2,0.3-0.5,0.4c-0.3,0.2,0.3,0.6-0.2,0.6h-0.3c-0.2-1.2-0.6-2.2-0.4-3.7c-0.3,0.1-0.2-0.2-0.4-0.2
				c-0.2,0.2-0.5,0.3-0.4,0.8c0,0.4,0.6,0.2,0.8,0.5c-0.4,0.2-0.5,0.2-1,0.1c-0.3,2.1,0.3,3.3,0.4,5.2c0.9,0,1.5,0.2,2.5,0.1
				c1.8-2.5,4.8-5.4,3.3-10.3c-0.7-0.1-0.4,1.5,0.1,1.8c-0.2,0-0.2-0.1-0.4-0.1c0.1,2.2-0.3,3.9-1.4,4.8c0.3-1.4,1.3-2.1,1-4.2
				c-0.3,0-0.5,0-0.5-0.2c0.3,0.1,0.4-0.1,0.6-0.1c0-0.4,0.1-0.9-0.3-0.9h-0.3C37.7-159.6,37.2-157.4,35.7-156.3 M29.2-156.3
				c-1.8-0.9-2.1-3.6-2.8-5.7c-0.8,0-0.4,1.2,0,1.3H26c-0.3,2,0.9,3,1,4.2c-1-1-1.4-2.5-1.3-4.7c-0.2,0-0.4,0-0.4-0.1
				c0-0.4,0.6-0.1,0.5-0.6c0-0.5,0.1-1.1-0.4-1.1c-1.1,4.9,1.3,7.9,3.1,10.4c0.9-0.1,1.7-0.3,2.8-0.2c0.1-1.6,0.6-3.7,0.1-5.3
				c0,0.2-0.7,0.5-0.6,0c0-0.3,0.6,0,0.6-0.2c0.1-0.6-0.1-0.9-0.6-0.9c-0.4,1.3,0.1,3.6-1.2,4c0-0.3,0.2-0.3,0.1-0.7
				c-0.4-0.2-0.7,0.4-0.9,0.1C29-155.8,29.1-156,29.2-156.3 M25.9-162.3c0.2,0,0.4,0,0.4-0.1c-0.2-0.1-0.2-0.4-0.4-0.5V-162.3z
				 M38.3-162.3h0.4c0-0.2,0-0.4-0.1-0.5C38.6-162.4,38.2-162.6,38.3-162.3 M39.7-162.5c0.5-0.1,1.4,0.2,1.7-0.1
				C41.1-162.6,39.9-163,39.7-162.5 M39.7-161.9c0.8,0.3,2,0,3,0.1C42.4-162.4,40.3-162.2,39.7-161.9 M29.2-158.4
				c0-0.9,0-1.6-0.1-2.3c-0.7-0.4-1.4-0.8-2.1-1.2C26.9-159.9,27.5-158.6,29.2-158.4 M37.4-161.7c-0.6,0.4-1.3,0.8-2,1.2v2.2
				c0.7,0.1,1.1-0.1,1.6-0.4C37.3-159.3,37.9-160.9,37.4-161.7 M39.7-161.2v0.2c0.9-0.1,3.1,0.3,3.2-0.2
				C42.4-161.6,40.3-161.6,39.7-161.2 M29.7-158c0.9-0.2,0.3-1.3,1.1-1.5s0.9,0.9,1.3,1.6c0.2-0.5,0-1.4,0.1-2.1
				c-1.1,0-1.7-0.4-2.7-0.5C29.6-159.7,29.2-158.5,29.7-158 M43.2-160.3c-0.8-0.1-2.7-0.3-3.3,0.1 M23.6-159.8h1.1
				C24.9-160.6,23.7-160.1,23.6-159.8 M32.6-160v2.1c0.5-0.5,0.4-1.7,1.4-1.6c0.6,0.1,0.3,1.2,0.5,1.6c0.5-0.4,0.3-1.6,0.5-2.3
				C34.1-160.3,33.3-160.2,32.6-160 M22.5-159.1c0.6-0.2,2,0.4,2.1-0.4C24.1-159.7,22.7-159.7,22.5-159.1 M39.9-159.2
				c0.9,0.1,2.7,0.3,3.4-0.1C42.4-159.5,40.5-159.7,39.9-159.2 M21.1-158.2c1.2-0.1,2.9,0.3,3.7-0.2C24-158.8,21.7-158.8,21.1-158.2
				 M29.7-156.3c-0.1-1.4-1-2-2-2.3C28.1-157.6,28.8-156.8,29.7-156.3 M39.7-158.5v0.4h2c0.6,0,1.6,0.3,1.7-0.4
				C42.5-158.7,40.8-158.7,39.7-158.5 M35.3-157.8c0,0.8-1,1.2-0.4,1.9c0.7-0.6,1.3-1.2,1.7-2.1C36.3-158.2,35.7-157.8,35.3-157.8
				 M20.9-157.7c-0.1,0-0.1,0.1-0.2,0.1c0,0.1-0.2,0.2,0.1,0.2h4.3C24.3-158.1,22.2-157.5,20.9-157.7 M30-156.9c0.2,0,0-0.5,0.1-0.7
				c-0.2,0-0.3,0-0.4-0.1C29.7-157.3,29.7-156.9,30-156.9 M39.5-157.5c1,0.1,3,0.3,3.8-0.1C42.3-157.7,40.3-157.9,39.5-157.5
				 M32.2-155.5v-2h-0.3C31.9-156.7,31.7-155.8,32.2-155.5 M32.7-155.5c0-0.5,0.4-1.7-0.1-2C32.6-156.8,32.4-155.9,32.7-155.5
				 M23.2-156.7h-2.8c-0.1,0-0.1,0.1-0.1,0.2c1.1,0.3,3.6,0,5.2,0.1C25.1-157,24.1-156.7,23.2-156.7 M39.2-156.5
				c0.6,0.1,3.1,0.3,3.9-0.1C42.1-156.8,40-157,39.2-156.5 M19.8-155.6c1.8,0.2,4.3,0.2,6.1,0C24.4-156,21.4-156,19.8-155.6
				 M38.7-155.7c0,0.1-0.2,0.2,0.1,0.2c1.3-0.2,3.1,0.3,4.1-0.2C41.7-155.9,39.8-155.9,38.7-155.7 M26.8-154.6
				c-1.9-0.5-5.1-0.2-7.2-0.1C21.6-154.3,24.7-154.5,26.8-154.6 M31.8-154.6c-0.3,0.1,1.2,0.3,1.1-0.1
				C32.8-154.9,31.8-155.1,31.8-154.6 M37.9-154.8c0,0.1-0.2,0.2,0.1,0.2c1.5-0.2,3.8,0.4,4.7-0.4C41.2-154.8,39.3-155,37.9-154.8
				 M20.3-153.5h7c-0.6-0.8-2.1-0.5-3.3-0.5h-3.9C20.1-153.7,20.3-153.7,20.3-153.5 M31.7-153.7c0.2,0.1,1.3,0.3,1.3-0.1
				C32.8-154,31.7-154.1,31.7-153.7 M37.3-153.8c0,0.2-0.1,0.2-0.1,0.3H40c0.9,0,2.2,0.3,2.5-0.3C41-154,38.8-154,37.3-153.8
				 M27.8-152.8c-1.8-0.5-4.8-0.2-6.7-0.1C22.8-152.4,25.8-152.6,27.8-152.8 M31.3-152.8c0.4,0.8,1.7,0.9,2,0
				C33-153.1,31.6-153.2,31.3-152.8 M36.5-152.6c1.9-0.3,4.2,0.6,5.5-0.4C40.2-152.8,37.8-153.4,36.5-152.6 M21.2-148.5h9.6
				c0.6,1.2,2.3,1,3,0h9.6c-0.7-1.1-1.3-2.4-2-3.6h-2.3c-1.1,0.2,1.3,0,1.5,0.1c0.7,0.3,0.7,2.2,1.3,2.5c-10.8,0.5-9.8,0.8-9.6,0.7
				c-2-2.3-6.2-0.2-9.4-0.8c0.4-0.7,0.6-1.6,1.1-2.2c0.6,0,1.2,0,1.7-0.1h0.9c0.5,0.1,0.5-0.2,0-0.1h-3.9c-0.1,0-0.1,0-0.1,0.1
				C22.5-150.9,21.7-149.6,21.2-148.5 M31.2-147.7c-1.1-0.5-3-0.1-4.4-0.2C27.4-147.3,30.1-147.7,31.2-147.7 M33.6-147.8
				c0.1,0.5,2.1,0.4,2.5-0.1C35.3-147.9,34.3-148.1,33.6-147.8 M27.6-146.6c2.5-0.3,5.9,0.6,7.7-0.5h-8
				C27.3-146.7,27.6-146.8,27.6-146.6 M28.2-145.7c1.7,0,4.8,0.6,6-0.3c-2.1,0.1-4.4-0.2-6.3,0.1C28-146,28-145.7,28.2-145.7
				 M33.1-145.1c-1.5,0.1-3.2-0.2-4.5,0.1C29.4-144.5,32.4-144.4,33.1-145.1 M29.3-144.1c0.5,0.4,2.4,0.4,2.8-0.1 M30.9-143.3
				c-0.3,0.1-0.8-0.1-0.9,0.1C30.2-142.8,30.8-142.8,30.9-143.3"/>
			<path class="st2" d="M69.8-199.8v-1.3h12v1.3h-0.4c-1.7,0.1-2.7,0.3-3,0.7s-0.5,1.5-0.5,3.4v13.4c0,3.2,0.1,5.4,0.2,6.4
				c0.2,1,0.6,1.9,1.2,2.8c1.3,1.8,3.3,2.7,6,2.7c2.5,0,4.5-0.8,6-2.3c0.8-0.9,1.4-1.8,1.6-2.9c0.3-1.1,0.4-3,0.4-5.7v-14.4
				c0-1.9-0.2-3.1-0.5-3.4s-1.3-0.6-3-0.7h-0.4v-1.3h9.8v1.3h-0.4c-1.7,0.1-2.7,0.3-3,0.7s-0.4,1.5-0.4,3.4v13.2
				c0,2.9-0.2,5.1-0.5,6.4c-0.3,1.4-1,2.6-1.9,3.8c-1.8,2.2-4.6,3.3-8.3,3.3c-7.6,0-11.4-4.2-11.4-12.5v-14.2c0-1.9-0.2-3.1-0.5-3.4
				C72.5-199.5,71.5-199.7,69.8-199.8L69.8-199.8z"/>
			<path class="st2" d="M107.6-179.4l-1.8,4.2c-0.7,1.6-1,2.7-1,3.3s0.9,0.9,2.7,0.9h0.3v1.3h-7.9v-1.3h0.4c1.2-0.1,1.9-0.2,2.1-0.5
				c0.2-0.2,0.8-1.5,1.7-3.7l10.8-26.3h1.4L127-175c0.8,1.9,1.4,3,1.8,3.4c0.3,0.4,1,0.6,2,0.6h0.5v1.3H120v-1.3h0.4
				c1.9,0,2.9-0.3,2.9-0.9c0-0.8-0.3-1.9-0.9-3.3l-1.7-4.2H107.6L107.6-179.4z M108.2-181.1h11.7l-5.8-14.3L108.2-181.1z"/>
			<path class="st2" d="M132.2-169.7v-1.3h0.4c1.7-0.1,2.7-0.4,3-0.7c0.3-0.4,0.5-1.5,0.5-3.4v-20.6c0-1.9-0.2-3.1-0.5-3.4
				c-0.3-0.4-1.3-0.6-3-0.7h-0.4v-1.3h9.8l3.2-0.1h1.5c4.8,0,8.4,1.3,11,3.9c2.5,2.6,3.8,6.3,3.8,11.2c0,5.1-1.3,9-3.9,12
				c-2.6,2.9-6.2,4.4-10.7,4.4L132.2-169.7L132.2-169.7z M140.4-199.7v24.5c0,1.9,0.2,3,0.6,3.3c0.7,0.5,2.2,0.8,4.3,0.8
				c3.9,0,6.8-1.2,8.7-3.6c1.9-2.4,2.9-6,2.9-10.8c0-5-1-8.6-3.1-10.8s-5.5-3.3-10.1-3.3L140.4-199.7L140.4-199.7z"/>
			<path class="st2" d="M175.8-183.7l-7-11.9c-1.5-2.5-2.3-3.8-2.5-4c-0.2-0.1-0.9-0.3-2.1-0.3h-0.4v-1.3h11.9v1.3h-0.4
				c-2,0-2.9,0.2-3,0.7c0,0.4,0.5,1.6,1.7,3.6l5.7,9.9l6-9.9c1.2-2,1.8-3.2,1.8-3.6c0-0.5-1-0.7-2.9-0.7h-0.4v-1.3h8.3v1.3h-0.4
				c-1.3,0.1-2.1,0.2-2.3,0.4s-1,1.5-2.5,3.9l-7.1,11.9v8.4c0,1.9,0.1,3.1,0.4,3.4c0.3,0.4,1.3,0.6,3,0.7h0.4v1.3h-12v-1.3h0.4
				c1.7-0.1,2.7-0.4,3-0.7c0.3-0.4,0.4-1.5,0.4-3.4L175.8-183.7L175.8-183.7z"/>
			<path class="st3" d="M109-160.3h3.6v0.5h-0.1c-0.4,0-0.6,0.1-0.7,0.2c-0.1,0.1-0.1,0.4-0.1,0.9v3.8c0,1,0.1,1.8,0.4,2.2
				s0.8,0.7,1.4,0.7c0.7,0,1.2-0.2,1.6-0.7c0.3-0.5,0.5-1.2,0.5-2.2v-3.7c0-0.5,0-0.8-0.1-0.9c-0.1-0.1-0.3-0.2-0.7-0.2h-0.1v-0.5
				h2.6v0.5h-0.1c-0.4,0-0.6,0.1-0.7,0.2c-0.1,0.1-0.1,0.4-0.1,0.9v3.6c0,1.2-0.3,2.2-0.8,2.8s-1.3,0.9-2.4,0.9
				c-2.3,0-3.4-1.2-3.4-3.5v-3.6c0-0.5,0-0.8-0.1-1c-0.1-0.1-0.3-0.2-0.7-0.2h-0.1L109-160.3L109-160.3z"/>
			<path class="st3" d="M124.2-151.5l-4.6-6.6v4.8c0,0.5,0,0.8,0.1,0.9c0.1,0.1,0.3,0.2,0.7,0.2h0.1v0.5h-2.6v-0.5h0.1
				c0.4,0,0.6-0.1,0.7-0.2c0.1-0.1,0.1-0.4,0.1-0.9v-5.3c0-0.5,0-0.8-0.1-0.9c-0.1-0.1-0.3-0.2-0.7-0.2h-0.1v-0.5h2.1l4.6,6.6v-4.9
				c0-0.5,0-0.8-0.1-0.9c-0.1-0.1-0.3-0.2-0.7-0.2h-0.1v-0.5h2.6v0.5h-0.1c-0.4,0-0.6,0.1-0.7,0.2c-0.1,0.1-0.1,0.4-0.1,0.9v7.1
				L124.2-151.5L124.2-151.5z"/>
			<path class="st3" d="M130.5-151.6h-3.6v-0.5h0.1c0.4,0,0.6-0.1,0.7-0.2c0.1-0.1,0.1-0.4,0.1-0.9v-5.3c0-0.5,0-0.8-0.1-0.9
				c-0.1-0.1-0.3-0.2-0.7-0.2h-0.1v-0.5h3.6v0.5h-0.1c-0.4,0-0.6,0.1-0.7,0.2c-0.1,0.1-0.1,0.4-0.1,0.9v5.3c0,0.5,0,0.8,0.1,0.9
				c0.1,0.1,0.3,0.2,0.7,0.2h0.1V-151.6L130.5-151.6z"/>
			<path class="st3" d="M134.9-151.5l-3-7.1c-0.3-0.6-0.4-1-0.5-1c0,0-0.2-0.1-0.6-0.1h-0.1v-0.5h3.6v0.5h-0.1c-0.1,0-0.3,0-0.4,0
				c-0.1,0-0.2,0.1-0.2,0.2c0,0.1,0.1,0.4,0.3,0.9l1.9,4.6l1.8-4.6c0-0.1,0.1-0.3,0.2-0.5c0.1-0.2,0.1-0.4,0.1-0.4
				c0-0.1-0.1-0.2-0.4-0.2h-0.3h-0.1v-0.5h2.4v0.5h-0.1c-0.1,0-0.2,0-0.2,0c-0.2,0-0.3,0.1-0.4,0.2c-0.1,0.1-0.2,0.4-0.4,1l-2.9,7.1
				L134.9-151.5L134.9-151.5z"/>
			<path class="st3" d="M146.1-151.6h-6.4v-0.5h0.1c0.4,0,0.6-0.1,0.7-0.2c0.1-0.1,0.1-0.4,0.1-0.9v-5.3c0-0.5,0-0.8-0.1-0.9
				c-0.1-0.1-0.3-0.2-0.7-0.2h-0.1v-0.5h6.1v1.6H145v-0.1c0-0.2,0-0.3,0-0.4c0-0.2,0-0.4-0.2-0.4c-0.1-0.1-0.3-0.1-0.7-0.1h-1.8v3.3
				h1.2c0.4,0,0.7,0,0.8,0s0.1-0.2,0.1-0.5v-0.1h0.6v1.9h-0.6v-0.1c0-0.3-0.1-0.5-0.2-0.5c-0.1,0-0.3-0.1-0.7-0.1h-1.2v2.6
				c0,0.6,0.1,1,0.2,1c0.1,0,0.4,0,0.9,0h0.7c0.6,0,0.9,0,0.9-0.1c0.1-0.1,0.1-0.3,0.1-0.8v-0.1h0.8L146.1-151.6L146.1-151.6z"/>
			<path class="st3" d="M149.3-155.4v2.1c0,0.5,0,0.8,0.1,0.9c0.1,0.1,0.3,0.2,0.6,0.2h0.1v0.5h-3.4v-0.5h0.1c0.4,0,0.6-0.1,0.7-0.2
				c0.1-0.1,0.1-0.4,0.1-0.9v-5.3c0-0.5,0-0.8-0.1-0.9c-0.1-0.1-0.3-0.2-0.7-0.2h-0.1v-0.5h2.4h1h0.5c1.7,0,2.6,0.7,2.6,2.2
				c0,0.6-0.1,1.1-0.4,1.5c-0.3,0.4-0.7,0.7-1.2,1l1.6,2.4c0.4,0.6,0.7,0.9,0.8,1s0.3,0.1,0.6,0.2h0.1v0.5h-2.4l-2.3-3.8
				L149.3-155.4L149.3-155.4z M149.3-156h0.3c0.6,0,1.1-0.2,1.4-0.5s0.5-0.9,0.5-1.5c0-1.1-0.5-1.7-1.6-1.7h-0.6L149.3-156
				L149.3-156z"/>
			<path class="st3" d="M155.4-151.7v-1.8h0.8v0.1c0,0.5,0.1,0.8,0.3,1c0.3,0.3,0.8,0.4,1.2,0.4s0.8-0.1,1.1-0.4s0.4-0.7,0.4-1.1
				c0-0.4-0.1-0.7-0.2-0.9c-0.2-0.2-0.5-0.5-0.9-0.7l-0.6-0.3c-1.4-0.8-2.1-1.7-2.1-2.6c0-0.7,0.3-1.3,0.8-1.8
				c0.5-0.4,1.2-0.7,2-0.7c0.7,0,1.4,0.1,2.3,0.4v1.8h-0.8v-0.1c0-0.5-0.1-0.9-0.2-1c-0.3-0.3-0.6-0.4-1.1-0.4
				c-0.4,0-0.7,0.1-0.9,0.4c-0.2,0.3-0.4,0.6-0.4,1c0,0.3,0.1,0.5,0.2,0.8c0.2,0.2,0.5,0.4,0.9,0.7l0.6,0.3c0.8,0.5,1.4,0.9,1.7,1.3
				c0.3,0.4,0.5,0.9,0.5,1.4c0,0.8-0.3,1.4-0.9,1.9c-0.6,0.5-1.3,0.7-2.3,0.7C157-151.4,156.2-151.5,155.4-151.7"/>
			<path class="st3" d="M165-151.6h-3.6v-0.5h0.1c0.4,0,0.6-0.1,0.7-0.2c0.1-0.1,0.1-0.4,0.1-0.9v-5.3c0-0.5,0-0.8-0.1-0.9
				c-0.1-0.1-0.3-0.2-0.7-0.2h-0.1v-0.5h3.6v0.5h-0.1c-0.4,0-0.6,0.1-0.7,0.2c-0.1,0.1-0.1,0.4-0.1,0.9v5.3c0,0.5,0,0.8,0.1,0.9
				c0.1,0.1,0.3,0.2,0.7,0.2h0.1V-151.6L165-151.6z"/>
			<path class="st3" d="M165.5-151.6v-0.5h0.1c0.4,0,0.6-0.1,0.7-0.2c0.1-0.1,0.1-0.4,0.1-0.9v-5.3c0-0.5,0-0.8-0.1-0.9
				c-0.1-0.1-0.3-0.2-0.7-0.2h-0.1v-0.5h2.7h1.2h0.4c1.3,0,2.3,0.4,3,1.1c0.7,0.7,1.1,1.8,1.1,3.1c0,1.4-0.4,2.5-1.1,3.3
				s-1.7,1.2-2.9,1.2h-4.4V-151.6z M168.2-159.7v6.4c0,0.5,0.1,0.8,0.2,0.9c0.1,0.1,0.5,0.2,1,0.2c0.9,0,1.6-0.3,2-1
				s0.7-1.6,0.7-2.9c0-1.3-0.3-2.2-0.8-2.8c-0.5-0.5-1.4-0.8-2.6-0.8L168.2-159.7L168.2-159.7z"/>
			<path class="st3" d="M176.8-154.2l-0.4,0.9c-0.2,0.5-0.3,0.8-0.3,0.9c0,0.1,0.1,0.2,0.4,0.2c0,0,0.1,0,0.2,0h0.1v0.5h-2.2v-0.5
				h0.1c0.3,0,0.5-0.1,0.6-0.2c0.1-0.1,0.2-0.4,0.5-1l3.1-7.1h0.6l3.1,7.1c0.3,0.6,0.5,0.9,0.5,1c0.1,0.1,0.3,0.1,0.6,0.2h0.1v0.5
				h-3.5v-0.5h0.1c0.5,0,0.7-0.1,0.7-0.2c0-0.1-0.1-0.4-0.3-0.9l-0.4-0.9H176.8L176.8-154.2z M177-154.8h3l-1.5-3.4L177-154.8z"/>
			<path class="st3" d="M183.9-151.6v-0.5h0.1c0.4,0,0.6-0.1,0.7-0.2c0.1-0.1,0.1-0.4,0.1-0.9v-5.3c0-0.5,0-0.8-0.1-0.9
				c-0.1-0.1-0.3-0.2-0.7-0.2h-0.1v-0.5h2.7h1.2h0.4c1.3,0,2.3,0.4,3,1.1c0.7,0.7,1.1,1.8,1.1,3.1c0,1.4-0.4,2.5-1.1,3.3
				s-1.7,1.2-2.9,1.2h-4.4V-151.6z M186.6-159.7v6.4c0,0.5,0.1,0.8,0.2,0.9c0.1,0.1,0.5,0.2,1,0.2c0.9,0,1.6-0.3,2-1
				s0.7-1.6,0.7-2.9c0-1.3-0.3-2.2-0.8-2.8c-0.5-0.5-1.4-0.8-2.6-0.8L186.6-159.7L186.6-159.7z"/>
			<path class="st3" d="M121.4-140.6l-0.4,0.9c-0.2,0.5-0.3,0.8-0.3,0.9c0,0.1,0.1,0.2,0.4,0.2c0,0,0.1,0,0.2,0h0.1v0.5h-2.2v-0.5
				h0.1c0.3,0,0.5-0.1,0.6-0.2c0.1-0.1,0.2-0.4,0.5-1l3.1-7.1h0.6l3.1,7.1c0.3,0.6,0.5,0.9,0.5,1c0.1,0.1,0.3,0.1,0.6,0.2h0.1v0.5
				h-3.5v-0.5h0.1c0.5,0,0.7-0.1,0.7-0.2c0-0.1-0.1-0.4-0.3-0.9l-0.4-0.9H121.4L121.4-140.6z M121.7-141.1h3l-1.5-3.4L121.7-141.1z"
				/>
			<path class="st3" d="M128.5-146.6h3.6v0.5H132c-0.4,0-0.6,0.1-0.7,0.2c-0.1,0.1-0.1,0.4-0.1,0.9v3.8c0,1,0.1,1.8,0.4,2.2
				c0.3,0.4,0.8,0.7,1.4,0.7c0.7,0,1.2-0.2,1.6-0.7c0.3-0.5,0.5-1.2,0.5-2.2v-3.7c0-0.5,0-0.8-0.1-0.9c-0.1-0.1-0.3-0.2-0.7-0.2
				h-0.1v-0.5h2.6v0.5h-0.1c-0.4,0-0.6,0.1-0.7,0.2c-0.1,0.1-0.1,0.4-0.1,0.9v3.6c0,1.2-0.3,2.2-0.8,2.8s-1.3,0.9-2.4,0.9
				c-2.3,0-3.4-1.2-3.4-3.5v-3.6c0-0.5,0-0.8-0.1-1c-0.1-0.1-0.3-0.2-0.7-0.2h-0.1L128.5-146.6L128.5-146.6z"/>
			<path class="st3" d="M140.3-146h-1.4c-0.4,0-0.6,0-0.7,0.1c-0.1,0.1-0.2,0.4-0.2,0.9v0.2h-0.8v-1.8h7.8v1.8h-0.8v-0.2
				c0-0.5-0.1-0.8-0.2-0.9c-0.1-0.1-0.3-0.1-0.7-0.1h-1.4v6.4c0,0.6,0.1,0.9,0.1,1c0.1,0.1,0.3,0.1,0.8,0.2h0.1v0.5h-3.8v-0.5h0.1
				c0.5,0,0.7-0.1,0.8-0.2c0.1-0.1,0.1-0.4,0.1-0.9L140.3-146L140.3-146z"/>
			<path class="st3" d="M150-137.7c-1.3,0-2.4-0.4-3.1-1.2c-0.8-0.8-1.1-1.9-1.1-3.3c0-1.4,0.4-2.5,1.1-3.3c0.8-0.8,1.8-1.2,3.1-1.2
				s2.3,0.4,3.1,1.2s1.1,1.9,1.1,3.3c0,1.4-0.4,2.5-1.1,3.3C152.3-138.1,151.3-137.7,150-137.7 M150-138.3c0.8,0,1.4-0.3,1.8-1
				c0.4-0.7,0.6-1.7,0.6-3s-0.2-2.3-0.6-3c-0.4-0.7-1-1-1.8-1s-1.4,0.3-1.8,1c-0.4,0.7-0.6,1.7-0.6,3s0.2,2.3,0.6,3
				S149.2-138.3,150-138.3 M150.2-149.1h1.5l-2.1,1.7h-0.7L150.2-149.1z"/>
			<path class="st3" d="M161.3-137.8l-4.6-6.6v4.8c0,0.5,0,0.8,0.1,0.9c0.1,0.1,0.3,0.2,0.7,0.2h0.1v0.5H155v-0.5h0.1
				c0.4,0,0.6-0.1,0.7-0.2c0.1-0.1,0.1-0.4,0.1-0.9v-5.3c0-0.5,0-0.8-0.1-0.9c-0.1-0.1-0.3-0.2-0.7-0.2H155v-0.5h2.1l4.6,6.6v-4.9
				c0-0.5,0-0.8-0.1-0.9c-0.1-0.1-0.3-0.2-0.7-0.2h-0.1v-0.5h2.6v0.5h-0.1c-0.4,0-0.6,0.1-0.7,0.2c-0.1,0.1-0.1,0.4-0.1,0.9v7.1
				L161.3-137.8L161.3-137.8z"/>
			<path class="st3" d="M168.5-137.7c-1.3,0-2.4-0.4-3.1-1.2c-0.8-0.8-1.1-1.9-1.1-3.3c0-1.4,0.4-2.5,1.1-3.3
				c0.8-0.8,1.8-1.2,3.1-1.2s2.3,0.4,3.1,1.2s1.1,1.9,1.1,3.3c0,1.4-0.4,2.5-1.1,3.3C170.9-138.1,169.8-137.7,168.5-137.7
				 M168.5-138.3c0.8,0,1.4-0.3,1.8-1c0.4-0.7,0.6-1.7,0.6-3s-0.2-2.3-0.6-3c-0.4-0.7-1-1-1.8-1s-1.4,0.3-1.8,1s-0.6,1.7-0.6,3
				s0.2,2.3,0.6,3S167.7-138.3,168.5-138.3"/>
			<path class="st3" d="M173.4-146.6h2.8l2.3,5.6l2.4-5.6h2.5v0.5h-0.1c-0.4,0-0.6,0.1-0.7,0.2c-0.1,0.1-0.1,0.4-0.1,0.9v5.3
				c0,0.5,0,0.8,0.1,0.9c0.1,0.1,0.3,0.2,0.7,0.2h0.1v0.5h-3.3v-0.5h0.1c0.3,0,0.5-0.1,0.6-0.2c0.1-0.1,0.1-0.4,0.1-1v-5.2l-2.6,5.9
				h-0.6l-2.6-6.2v5.5c0,0.5,0,0.8,0.1,0.9c0.1,0.1,0.3,0.2,0.6,0.2h0.1v0.5h-2.5v-0.5h0.1c0.4,0,0.6-0.1,0.7-0.2
				c0.1-0.1,0.1-0.4,0.1-0.9v-5.3c0-0.5,0-0.8-0.1-0.9c-0.1-0.1-0.3-0.2-0.7-0.2h-0.1L173.4-146.6L173.4-146.6z"/>
			<path class="st3" d="M186-140.6l-0.4,0.9c-0.2,0.5-0.3,0.8-0.3,0.9c0,0.1,0.1,0.2,0.4,0.2c0,0,0.1,0,0.2,0h0.1v0.5h-2.2v-0.5h0.1
				c0.3,0,0.5-0.1,0.6-0.2c0.1-0.1,0.2-0.4,0.5-1l3.1-7.1h0.6l3.1,7.1c0.3,0.6,0.5,0.9,0.5,1c0.1,0.1,0.3,0.1,0.6,0.2h0.1v0.5h-3.5
				v-0.5h0.1c0.5,0,0.7-0.1,0.7-0.2c0-0.1-0.1-0.4-0.3-0.9l-0.4-0.9H186L186-140.6z M186.2-141.1h3l-1.5-3.4L186.2-141.1z"/>
			<path class="st3" d="M112.3-124.3v-0.5h0.1c0.4,0,0.6-0.1,0.7-0.2s0.1-0.4,0.1-0.9v-5.3c0-0.5,0-0.8-0.1-0.9
				c-0.1-0.1-0.3-0.2-0.7-0.2h-0.1v-0.5h2.7h1.2h0.4c1.3,0,2.3,0.4,3,1.1s1.1,1.8,1.1,3.1c0,1.4-0.4,2.5-1.1,3.3s-1.7,1.2-2.9,1.2
				h-4.4C112.3-124.1,112.3-124.3,112.3-124.3z M115-132.4v6.4c0,0.5,0.1,0.8,0.2,0.9s0.5,0.2,1,0.2c0.9,0,1.6-0.3,2-1
				s0.7-1.6,0.7-2.9c0-1.3-0.3-2.2-0.8-2.8c-0.5-0.5-1.4-0.8-2.6-0.8H115L115-132.4z"/>
			<path class="st3" d="M127.9-124.3h-6.4v-0.5h0.1c0.4,0,0.6-0.1,0.7-0.2s0.1-0.4,0.1-0.9v-5.3c0-0.5,0-0.8-0.1-0.9
				c-0.1-0.1-0.3-0.2-0.7-0.2h-0.1v-0.5h6.1v1.6h-0.8v-0.1c0-0.2,0-0.3,0-0.4c0-0.2,0-0.4-0.2-0.4c-0.1-0.1-0.3-0.1-0.7-0.1h-1.8
				v3.3h1.2c0.4,0,0.7,0,0.8,0s0.1-0.2,0.1-0.5v-0.1h0.6v1.9h-0.6v-0.1c0-0.3-0.1-0.5-0.2-0.5s-0.3-0.1-0.7-0.1h-1.2v2.6
				c0,0.6,0.1,1,0.2,1s0.4,0,0.9,0h0.7c0.6,0,0.9,0,0.9-0.1c0.1-0.1,0.1-0.3,0.1-0.8v-0.1h0.8L127.9-124.3L127.9-124.3z"/>
			<path class="st3" d="M135.1-128l-1.9-3.2c-0.2-0.4-0.4-0.6-0.4-0.7c-0.1-0.2-0.2-0.4-0.3-0.4s-0.3-0.1-0.6-0.1h-0.1v-0.5h3.6v0.5
				h-0.1c-0.4,0-0.7,0.1-0.7,0.2c0,0.1,0.2,0.5,0.5,1l1.4,2.4l1.5-2.4c0.3-0.5,0.5-0.9,0.5-1s-0.2-0.2-0.5-0.2h-0.1v-0.5h2.3v0.5
				h-0.1c-0.3,0-0.5,0.1-0.6,0.1c0,0-0.3,0.4-0.7,1.1l-1.9,3.2v2.1c0,0.5,0,0.8,0.1,0.9s0.3,0.2,0.7,0.2h0.1v0.5h-3.6v-0.5h0.1
				c0.4,0,0.6-0.1,0.7-0.2c0.1-0.1,0.1-0.4,0.1-0.9V-128L135.1-128z"/>
			<path class="st3" d="M140.3-132.9h3.6v0.5h-0.1c-0.4,0-0.6,0.1-0.7,0.2c-0.1,0.1-0.1,0.4-0.1,0.9v3.8c0,1,0.1,1.8,0.4,2.2
				c0.3,0.4,0.8,0.7,1.4,0.7c0.7,0,1.2-0.2,1.6-0.7c0.3-0.5,0.5-1.2,0.5-2.2v-3.7c0-0.5,0-0.8-0.1-0.9c-0.1-0.1-0.3-0.2-0.7-0.2H146
				v-0.5h2.6v0.5h-0.1c-0.4,0-0.6,0.1-0.7,0.2c-0.1,0.1-0.1,0.4-0.1,0.9v3.6c0,1.2-0.3,2.2-0.8,2.8c-0.5,0.6-1.3,0.9-2.4,0.9
				c-2.3,0-3.4-1.2-3.4-3.5v-3.6c0-0.5,0-0.8-0.1-1c-0.1-0.1-0.3-0.2-0.7-0.2h-0.1L140.3-132.9L140.3-132.9z"/>
			<path class="st3" d="M156.5-124.6c-0.9,0.4-1.8,0.6-2.8,0.6c-1.4,0-2.5-0.4-3.3-1.2c-0.8-0.8-1.2-1.9-1.2-3.4
				c0-1.4,0.4-2.6,1.2-3.4s1.9-1.2,3.3-1.2c0.9,0,1.8,0.1,2.7,0.4v1.8h-0.8v-0.1c0-0.5-0.1-0.9-0.2-1c-0.4-0.3-0.9-0.5-1.6-0.5
				c-0.8,0-1.5,0.3-1.9,1s-0.7,1.7-0.7,2.9c0,1.3,0.3,2.3,0.8,2.9s1.3,1,2.3,1c0.7,0,1.5-0.2,2.4-0.6L156.5-124.6L156.5-124.6z"/>
			<path class="st3" d="M159.3-126.9l-0.4,0.9c-0.2,0.5-0.3,0.8-0.3,0.9s0.1,0.2,0.4,0.2c0,0,0.1,0,0.2,0h0.1v0.5h-2.2v-0.5h0.1
				c0.3,0,0.5-0.1,0.6-0.2s0.2-0.4,0.5-1l3.1-7.1h0.6l3.1,7.1c0.3,0.6,0.5,0.9,0.5,1c0.1,0.1,0.3,0.1,0.6,0.2h0.1v0.5h-3.5v-0.5h0.1
				c0.5,0,0.7-0.1,0.7-0.2s-0.1-0.4-0.3-0.9l-0.4-0.9H159.3L159.3-126.9z M159.6-127.5h3l-1.5-3.4L159.6-127.5z"/>
			<path class="st3" d="M169.5-132.4h-1.4c-0.4,0-0.6,0-0.7,0.1c-0.1,0.1-0.2,0.4-0.2,0.9v0.2h-0.8v-1.8h7.8v1.8h-0.8v-0.2
				c0-0.5-0.1-0.8-0.2-0.9c-0.1-0.1-0.3-0.1-0.7-0.1h-1.2v6.4c0,0.6,0.1,0.9,0.1,1c0.1,0.1,0.3,0.1,0.8,0.2h0.1v0.5h-3.8v-0.5h0.1
				c0.5,0,0.7-0.1,0.8-0.2s0.1-0.4,0.1-0.9L169.5-132.4L169.5-132.4z"/>
			<path class="st3" d="M176.8-126.9l-0.4,0.9c-0.2,0.5-0.3,0.8-0.3,0.9s0.1,0.2,0.4,0.2c0,0,0.1,0,0.2,0h0.1v0.5h-2.2v-0.5h0.1
				c0.3,0,0.5-0.1,0.6-0.2s0.2-0.4,0.5-1l3.1-7.1h0.6l3.1,7.1c0.3,0.6,0.5,0.9,0.5,1s0.3,0.1,0.6,0.2h0.1v0.5h-3.5v-0.5h0.1
				c0.5,0,0.7-0.1,0.7-0.2s-0.1-0.4-0.3-0.9l-0.4-0.9H176.8L176.8-126.9z M177.1-127.5h3l-1.5-3.4L177.1-127.5z M179.5-135.4h1.5
				l-2.1,1.7h-0.6L179.5-135.4z"/>
			<path class="st3" d="M190.4-124.1l-4.6-6.6v4.8c0,0.5,0,0.8,0.1,0.9s0.3,0.2,0.7,0.2h0.1v0.5h-2.6v-0.5h0.1
				c0.4,0,0.6-0.1,0.7-0.2c0.1-0.1,0.1-0.4,0.1-0.9v-5.3c0-0.5,0-0.8-0.1-0.9c-0.1-0.1-0.3-0.2-0.7-0.2h-0.1v-0.5h2.1l4.6,6.6v-4.9
				c0-0.5,0-0.8-0.1-0.9c-0.1-0.1-0.3-0.2-0.7-0.2h-0.1v-0.5h2.6v0.5h-0.1c-0.4,0-0.6,0.1-0.7,0.2c-0.1,0.1-0.1,0.4-0.1,0.9v7.1
				L190.4-124.1L190.4-124.1z"/>
		</g>
	</g>
	<g class="st1">
		<g>
			<line class="st4" x1="0" y1="-84.8" x2="208.2" y2="-84.8"/>
			<line class="st5" x1="0" y1="-89" x2="208.2" y2="-89"/>
		</g>
		<text transform="matrix(1 0 0 1 -0.1865 -54.701)" style="fill:#162F4D; font-family:'LucidaGrande'; font-size:18.5545px;">COMUNICACIÓN UADY</text>
	</g>
</g>
<g id="Capa_2_1_">
	<g>
		<g>
			<path class="st2" d="M32.2,0h0.5c1.5,0.9-0.3,4.8-0.4,6.1c-0.2-1.8-0.3-3.7-0.8-5.3C31.7,0.6,32,0.3,32.2,0"/>
			<path class="st2" d="M30.2,1.7c0.5,1.1,0.4,2.9,0.5,4.3c-0.5-1.4-1.9-2.5-1.7-4.2C29.1,1.2,29.9,1.5,30.2,1.7"/>
			<path class="st2" d="M34.1,6.1c0-1.3,0-3.6,0.6-4.6c0.6-0.1,0.9-0.1,1.2,0.3C35.7,3.8,34.5,4.5,34.1,6.1"/>
			<path class="st2" d="M29.5,6.9C28.6,5.6,27,5,26.7,3C28.6,2,28.9,5.4,29.5,6.9"/>
			<path class="st2" d="M37.9,3.4c-0.3,1.7-1.5,2.4-2.2,3.6C35.8,5.8,36.4,2,37.9,3.4"/>
			<path class="st2" d="M39.9,4.8c0.2,0.1,0,0.6,0.3,0.5c-0.6,1.3-2,1.9-3,2.8C37.6,7,38.1,4.9,39.9,4.8"/>
			<path class="st2" d="M27.3,9.5c-0.8,0.1-1.5-0.5-2.5-0.9C24,8.3,22.2,8.1,22.3,7c0.1-0.4,0.6-0.7,1-0.7
				C24.8,6.2,26.2,8.9,27.3,9.5"/>
			<path class="st2" d="M42.2,6.9c-0.7,1.8-2.9,1.9-4.5,2.7C39,8.7,40.3,5.7,42.2,6.9"/>
			<path class="st2" d="M32.3,8c-0.6,3.3,1.6,4.6,0.9,7.4C32.3,13.5,28.9,9.4,32.3,8"/>
			<path class="st2" d="M34.2,8.2c0.1,0,0.2,0,0.2,0.1c-0.8,3.1,2.8,6-0.2,7.6c0.1-1.4,0-3-0.5-4.3c-0.3,0-0.4,0.2-0.5,0.4
				C32.2,10.5,33.3,8.8,34.2,8.2"/>
			<path class="st2" d="M26.4,11c-1,0.1-2-0.3-3.3-0.6c-0.9-0.1-2.8-0.1-2.9-1.1c-0.1-0.8,0.7-1,1.3-0.9C22.9,8.5,24.9,10.6,26.4,11
				"/>
			<path class="st2" d="M44.4,9c-1.1,1.5-3.8,1.3-5.7,2c0.5-0.4,1.3-0.8,2.1-1.3C41.9,9.1,43.2,7.7,44.4,9"/>
			<path class="st2" d="M33.6,109.1h-0.9c-1.3-0.6-2.2-1.1-2.2-2.6c-0.1-1.8,1.4-2.1,1-4.2c-2.7-0.1-5.7,0.2-8.2-0.1v-2.5
				c-1.8-0.1-3.8,0-5.5-0.2c1.5-3.1,3.2-6,4.6-9.1c-7.9-2.6-14.3-8-18.1-15.4c-1.3-2.5-2.8-6.1-2.9-9.6c1.5-1.8,3.4-3.2,5-4.8v-3.9
				H0.3c2.6-4,5.4-7.7,8-11.6C6.6,45,4.7,45.3,3.2,45C3,40.1,3,34.4,3.2,29.5h4.3v-4.1c7.2-0.2,14.8-0.1,22.2-0.1
				c0.4-2.5-1.1-3.5-1-5.4c-0.6-0.5-1.4-2.1-0.3-2.7c-2.1-2.3-0.3-7.1,1.7-7.6c-0.6,3,2.4,4.2,1.5,7.1c-0.5-1.9-1.8-2.8-2.8-4.1
				c-0.4,1.6-0.8,5.2,1.2,4.8c0-0.8-0.8-1.3-0.4-2.1c0.7,0.1,0.7,1,1,1.5s1,0.7,1,1.4c-0.1,0.4-1-0.2-0.7,0.5
				c0.1,0.8,1.2,0.4,1.5,0.8c-0.3,0.7-2,0-2.5,0.6c-0.3,0.4-0.1,1.2,0.4,1.1c0.7,0-0.4-1,0.2-1.1c1-0.3,0.7,0.7,1,1.2
				c0.4,0.3,1.1,0.3,1.2,0.9c-0.5,0.3-1.5,0-2.2,0.1c0.2,0.9-0.2,2.8,0.6,2.9c1.1-0.7-0.8-1.7-0.1-2.3c1.5-0.4,0.5,2,1.3,2.3h0.4
				c0.6-1-0.7-1.5-0.3-2.2c1.1-0.6,0.9,1.2,0.9,2.2h1.5c0-0.9,0-1.9,0.1-2.7c0-0.5-0.9-0.1-0.8-0.8c0.4-0.7,1.4-0.6,1.3-1.8
				c-0.5-0.4-2.1,0.3-2.4-0.5c0.9-0.8,3.4,0.2,3.4-1.5c-1.5-0.2-3.4,0.9-4.5,0c1.9-0.4,3.7-0.5,4-2.5c0.6,0.7-0.6,1.6,0,2
				c2.8-2.3-1.9-5.6-0.1-8.6c0.1,2,1.8,3.3,1.9,5.2c0.1,1.4-0.7,2.6-0.4,4.3c-1.6,1.6-2,4.1-2,7h21.8v4.2c1.8-0.1,3.2,0.2,5,0.1
				c-0.1,5.2,0.1,10.6,0,15.5c-1.8-0.1-3.4,0.2-5.2,0.1c2.5,3.9,5.6,7.7,7.8,11.5h-6v3.6c0.9,1,1.9,1.8,3.1,2.8
				c0.9,0.8,2.7,1.7,2.9,3.1c0.2,1.8-1.3,4.6-1.7,5.9c-3.3,9.3-10.6,15.1-18.8,18.3c1.5,3.2,3.2,6.2,4.7,9.4
				c-1.9,0.1-4.1-0.1-5.8,0.1v2.5h-8.5c-0.5,1.6,1,2.3,1.2,3.4C36.1,107.7,35,108.4,33.6,109.1 M8.6,26.1c-0.1,0.1-0.2,0.1-0.2,0.4
				v4H4v13.7c2.1,0,4.1,0,6,0.2c-1.4,1.9-2.7,3.9-4.1,5.8c-1,1.3-2,3.1-3,4.5c-0.3,0.4-1,0.8-0.8,1.3h5v4h1.5v-5.3
				c-1.4,0-2.6-0.2-4.1-0.1c2.3-3.4,4.9-7,7.2-10.3c0.3-0.4,0.8-0.8,0.8-1.4c-2.4-0.1-5,0.2-7.2-0.1c0.1-3.6-0.1-7.4,0.1-10.8h4.4
				c0.1-1.4-0.1-3.1,0.1-4.3c14.9,0.1,30.1-0.2,44.9,0.1V32c1.5,0.1,3.3-0.2,4.6,0.1c-0.1,3.5,0.1,7.3-0.1,10.7
				c-2,0.3-4.5,0-6.8,0.1c2.3,3.8,5.7,7.9,7.9,11.7c-1.5-0.1-2.7,0.2-4.2,0.1V60h1.5v-4c1.6-0.2,3.5-0.1,5.2-0.1
				c-2.1-3.8-5.6-7.8-7.8-11.5c2,0,3.8-0.2,5.9-0.1c-0.1-4.9,0.3-9,0-13.7h-4.9v-4.3H8.6V26.1z M10.7,28.4v4.5H6.3v9
				c2.3,0.3,5.2-0.1,7.5,0.2c-0.1,5.4,0.1,11.2-0.1,16.4h-3v-2.6c0.6,0.1,1.6-0.3,1.6,0.4c0.1,0.8-1.1,0.1-0.7,1.2
				c0,0.5,0.9,0.1,1.3,0.2v-3H9.7V60h5.6V47.2c4.2-2.9,10.4-5,17.2-5c6.9,0,13.1,2,17.3,5v12.7h5.7v-5.3h-3.2v2.9
				c0.4-0.2,1.5,0.3,1.4-0.4c0.3-0.9-1.1,0-0.8-1.1c0.1-0.4,1.3-0.3,1.5-0.1c-0.1,0.8,0.1,1.9-0.1,2.5c-1-0.1-2.2,0.1-3-0.1
				c0.1-5.5-0.1-11.2,0.1-16.5h7.1v-9.1H54v-4.3L10.7,28.4L10.7,28.4z M48.6,55.3c0.1,0.3,0.5,3.3,0.4,1.6v-9.4
				c-3.5-1.8-7.2-3.9-11.8-4.1C42.8,45.2,46.9,49.4,48.6,55.3 M16.1,47.6c0.1,3-0.1,6.4,0.1,9.3c1.3-7.1,5.5-11.1,11.2-13.4
				C22.9,44,19.4,45.7,16.1,47.6 M25.4,45.2c-3.6,1.9-6.2,4.9-7.7,8.8c-2.2,5.9-0.4,11.9,1.7,15c2.7,4,7.7,7.1,13.2,7
				c6.6,0,12.3-4.5,14.7-10.1c2.2-5.2,0.6-12.4-1.9-15.8c-2.3-3.2-7.1-7.1-13.8-6.6C29.1,43.8,27.2,44.3,25.4,45.2 M52.3,53.7h6.8
				c-2-3-4.6-6.4-6.8-9.6V53.7z M9.4,49.1c-0.5,0.7-1,1.5-1.6,2.3c-0.5,0.7-1.4,1.5-1.3,2.2h6.4c-0.1-3.1,0.1-6.6-0.1-9.5
				C11.7,45.9,10.5,47.5,9.4,49.1 M14.1,60.7H7.3c-1.8,1.7-4.1,3.3-5.4,5.2C3.2,66.5,4,64.9,5,64c0.9-0.8,2.2-2.3,3.2-2.6
				c1.6-0.4,4.3,0,5.9,0c0.5,0,1.4,0.3,1.7-0.3C15.6,60.4,14.6,60.7,14.1,60.7 M60.9,63.2c-0.9-0.7-2.2-2.2-3.2-2.5
				C55,60,52,61.1,49,60.8v0.3c2.3,0.5,5.5,0.1,8,0.2c1.6,1.1,3.4,2.8,4.9,4.1c0.4,0.4,1.2,1.3,1.7,0.4
				C63.2,64.9,62.1,64.1,60.9,63.2 M14.4,62.4c-1.8,0-4.6-0.4-6.2,0c-1.1,0.3-1.8,1.5-2.7,2.3S3.4,66.2,3.3,67
				c-0.1,1,0.6,2.7,1.1,3.8c1.3,3,2.8,6.1,4.8,8.6c4.2,5.1,10.1,8.4,16.6,10.4c-1.3,2.6-2.7,5.1-4,7.9c1.4,0.1,3-0.2,4.2,0.1v2.5
				h14.5v-2.6h4.3c-1.1-2.9-2.8-5.3-4-8.2c11.5-2.9,18.9-10.3,22-22.5c-0.8-0.6-1.7-1.5-2.8-2.3c-0.9-0.7-2.1-2-3-2.2
				c-1.8-0.4-4.7,0-6.5,0c-0.5,0-1.7-0.3-1.6,0.7c2.3,0.7,5.3-0.5,7.7,0.1c1,0.2,1.8,1.3,2.6,2c0.9,0.7,2.3,1.4,2.4,2.3
				c0.1,0.9-0.6,2.6-1.1,3.6c-0.5,1.2-1,2.4-1.5,3.3C54.8,82,47.4,86.8,39.2,89.3c1.2,2.4,2.5,4.6,3.5,7.1c-1.4-0.1-2.4,0.2-3.7,0.1
				V99c-3.8-0.1-7.9,0.2-11.6-0.1v-2.3c-1.3,0-2.6,0-3.7-0.1c1-2.6,2.6-4.5,3.5-7.1C15.8,85.8,7.5,79.3,4.3,67
				c0.6-0.7,1.4-1.3,2.2-2c0.7-0.6,1.6-1.7,2.5-1.9c1.5-0.4,4,0,5.6,0c0.4,0,1.4,0.4,1.5-0.5C15.8,62,14.9,62.4,14.4,62.4 M9.2,64
				c-0.7,0.2-3.7,2.7-3.9,3.2c-0.1,0.5,0.4,1.8,0.6,2.5c0.3,0.8,0.7,1.6,1,2.2c4,8.9,12,14.4,21.5,16.8c-1.3,2.2-2.4,4.6-3.5,7H28
				v2.5h10c0-0.9,0-1.8,0.2-2.5c1-0.1,2.3,0.1,3.1-0.1c-1.2-2.4-2.4-4.6-3.5-7c11.4-2.9,19.5-9.3,22.8-21.1c-1.5-0.6-2.6-3-4.5-3.4
				c-2.4-0.5-4.9,0.3-7.5,0.1c-2.2,6.9-7,12.1-14.8,12.7c-8.9,0.6-15.3-5.1-17.3-12.7C14.3,64.3,11.5,63.5,9.2,64 M43.1,92.7
				c1.3,2.3,2.5,5.2,4.4,6.2c-0.6-1.6-1.7-3.4-2.7-5.1c-0.8-1.5-1.2-3.3-2.8-3.6C42.3,90.9,42.6,91.9,43.1,92.7 M21.6,94.3
				c-1,1.3-1.8,3.2-2.3,4.3c2.6-1.8,3.7-5.7,5-8.4C22.5,90.7,22.7,92.7,21.6,94.3 M24,99.1c0.1,0.7-0.1,1.6,0.1,2.1
				c0.2-0.4,0.8-0.5,1.1-0.8c-0.1-0.7,0.1-1.6-0.1-2.1C24.7,98.6,24.3,98.8,24,99.1 M41.1,100.4c0.3,0.3,0.9,0.4,1.2,0.7v-1.8
				c-0.4-0.3-0.7-0.6-1.2-0.8V100.4z M32.6,103.7c0.2-0.2,1.1-0.2,1.3,0v-1.4h-1.4C32.5,102.7,32.3,103.5,32.6,103.7 M33.8,108.1
				c1.7-0.5,1.4-4.2-1.1-3.4C30.6,105.3,31.6,108.6,33.8,108.1"/>
			<path class="st2" d="M25.9,12.9c-2.3-0.3-6.4,0.3-8.1-1c-0.1-0.6,0.4-1.2,0.8-1.2C20.6,10.9,23.9,12.4,25.9,12.9"/>
			<path class="st2" d="M25.2,14.8c-1.5,0.3-3.4,0.3-5.1,0.5c-1.7,0.1-3.6,0.7-4.7-0.3c-0.2-0.4,0.1-1.1,0.5-1.3
				C19.1,13.9,22.1,14.4,25.2,14.8"/>
			<path class="st2" d="M39.2,14.9c2.5-0.3,6-0.9,8.3-1.1c0.7,0,1.9-0.3,1.6,1.1c-0.3,1.3-3.4,0.4-4.7,0.3
				C42.4,15.1,41,15,39.2,14.9"/>
			<path class="st2" d="M25.4,16.9c-3.1,0.6-6.6,1.4-10,2.1c-1.1,0.2-2.8,0.5-2.9-0.6c-0.1-0.8,1-1.1,1.6-1.2
				C17.4,16.8,22.2,17.3,25.4,16.9"/>
			<path class="st2" d="M39.1,17c0-0.1,0.1-0.1,0.2-0.1c2.8,0.2,6.5,0.2,9.4,0.3c1.1,0,2.7-0.4,3.2,0.8c-0.1,1.6-1.8,1.1-2.8,0.9
				C46,18.4,42.3,17.5,39.1,17"/>
			<path class="st2" d="M39.2,18.9c2.6,0.3,5.4,1.1,8.2,1.8c2.7,0.7,5.7,0.9,7.9,2.2c-0.1,2.3-2.7,0.9-3.6,0.6
				C47.7,22,43.3,20.2,39.2,18.9"/>
			<path class="st2" d="M34.3,23.2c0.2,0.4,0.1,1.1,0.1,1.6h-0.3c-0.3-0.3-0.4-0.9-0.4-1.5C33.8,23.2,34,23.2,34.3,23.2"/>
			<path class="st2" d="M13.6,29.4c-0.6,2.6-1.4,5.2-2,7.8c0.5,0,0.7-0.3,1.3-0.2v1.3c2.9,2.2,1.5-6.2,1.8-8.9h1.1
				c-0.4,3.8,1.3,10-1.9,10.8c-0.8-0.5-2-0.5-2.1-1.6c-0.5,0.2-1.3,0.2-1.7,0.5c0.4-3.1,1.7-6.4,2.4-9.6L13.6,29.4L13.6,29.4z"/>
			<path class="st2" d="M17.5,29.4c1.1,1.1,1.3,3.2,2.3,4.4c0.6-1.9-0.7-2.6-0.5-4.3c0.2-0.2,0.8-0.1,1.2-0.1
				c0.1,0.7,0.1,1.5,0.5,1.9v5.5c-0.4,0.1-0.6,0.3-1.1,0.2c-0.8-1.4-1.3-3-2-4.5c-0.2,0.8,0,2.2-0.1,3.2c0.1,0.3,0.5,0.2,0.6,0.3
				v1.5c-0.4,0.2-0.7,0.5-1.3,0.6c0.2-1-0.2-1.4-0.5-1.9c0.1-2.3-0.1-4.8,0.1-6.9L17.5,29.4L17.5,29.4z"/>
			<path class="st2" d="M24.7,29.4c0.3,1.6-0.8,4.9,0.9,5c0.3-1.4-0.1-3.6,0.2-5h1.1c0.1,2.1,0.6,5.7-1,6.3
				c-1.2,0.2-1.7-0.4-2.2-1.1v-5.3L24.7,29.4L24.7,29.4z"/>
			<path class="st2" d="M33.9,30c0.2,2.3-0.7,3.7,0.2,5.2h-1.2c-0.2-0.5-0.2-1.2-0.5-1.6c-0.6,0-0.2,1.1-0.3,1.6h-1.2
				c0.1-2-0.2-3.6-0.1-5.6C31.5,29.6,33.4,29.3,33.9,30 M32,32.6h0.6v-1.9C31.6,30.4,32.2,31.9,32,32.6"/>
			<path class="st2" d="M37.7,31.2c-0.2,0.2-0.6,0.1-1,0.1c-0.4-0.1-0.2-0.8-0.9-0.6c-0.2,0-0.1,0.4-0.1,0.6c0.8,1,2.5,1,1.9,3.4
				c-0.3,0.2-0.5,0.5-0.8,0.7c-0.6,0-1-0.2-1.7-0.1c-0.2-0.6-0.7-0.8-0.6-1.8c0.3-0.3,0.8,0,1.2,0v0.8c0.4,0.1,0.4-0.2,0.7-0.1
				c0.2-1.6-1.2-1.4-1.9-2c0.1-0.9-0.2-1.4,0-2C35.1,28.7,38.2,29.1,37.7,31.2"/>
			<path class="st2" d="M39.5,29.4v6.2c-0.5,0.1-0.6-0.2-1.1-0.1v-6.1H39.5L39.5,29.4z"/>
			<path class="st2" d="M42.4,29.4c1.1,1.8,1.9,3.8,2.1,6.4c-0.7-0.3-0.8,0.2-1.1,0.6c-1.3-0.1-2.4-0.5-3.1-1.4
				c0.1-1.8-0.1-3.8,0.1-5.4C40.9,29.3,41.8,29.5,42.4,29.4 M42.4,35c0.2-0.2,0.3-0.5,0.6-0.5c-0.4-1.2-0.5-2.9-1.2-3.9h-0.3
				C41.7,32.3,41.1,34.7,42.4,35"/>
			<path class="st2" d="M48.6,30c0.2,2.5,0,5.6,0.1,8.3c-0.5,0-0.7-0.4-1.2-0.3v-3.1c-0.2-0.3-0.7-0.2-1.2-0.2
				c-0.2,0.8-0.1,1.9-0.3,2.6c-0.3-0.2-0.7-0.3-1.2-0.3c0-0.6,0.4-0.8,0.4-1.3c0.2-1.6-1.2-3.3-1.2-4.8c0-0.4,0.3-1.2,0.6-1.4
				C45.7,29,47.9,29.4,48.6,30 M46.2,33.6h1.3v-2.9h-1.9C45.5,32,45.9,32.7,46.2,33.6"/>
			<path class="st2" d="M49.4,29.4c1,0.2,2.2,0.1,3.3,0.1c1,3.5,2,6.9,3,10.3c-0.7-0.1-1.1-0.5-1.7-0.7c-0.2,0.6,0,1.6-0.6,1.8
				c-1-0.5-1.8-1.3-3-1.8c0.3-1.2-0.7-1.1-1-1.8V29.4L49.4,29.4z M50.7,36.6c0.3,0.7,1,0.9,0.7,2.1c0.4,0.2,0.8,0.4,1.3,0.6
				c0.1-0.6-0.1-1.5,0.1-1.9c0.4,0,0.5,0.3,1,0.2c-0.7-2.3-1.3-4.7-2-6.9h-1.1V36.6z"/>
			<path class="st2" d="M22.8,29.5c-0.1,2.2,0.1,4.7-0.1,6.7c-0.3,0.1-0.6,0.3-1,0.3c-0.2-2.1,0-4.7-0.1-7H22.8z"/>
			<path class="st2" d="M27.6,29.5c1.2-0.1,2.1,0.1,2.6,0.7c-0.1,0.3-0.4,0.5-0.5,0.9c-0.3-0.1-0.5-0.4-0.8-0.5
				c-0.2,0.2,0,0.8-0.1,1.2h1.5c-0.2,0.2-0.1,0.9-0.1,1.3h-1.3c-0.2,0.1,0,0.7-0.1,1.1c0.5,0,0.8-0.2,1.4-0.1v1.2
				c-0.9,0-1.5,0.2-2.5,0.1C27.4,33.7,27.6,31.5,27.6,29.5"/>
			<path class="st2" d="M31.1,36.6c0.6,1.3,0.2,3.6,0,4.9c-0.9-0.1-1.5,0.1-2.4,0.1C28,39.6,27.7,35.5,31.1,36.6 M29.2,37.9v2.3
				c0.3,0.3,0.5,0.6,1.2,0.5c0.3-0.7,0.3-2.3,0.1-3.2C30,37.6,29.4,37.6,29.2,37.9"/>
			<path class="st2" d="M32.2,36.6c2.1,0.1,1.8,2.7,3,3.8c0.2-0.7,0-1.8,0.1-2.7c-0.1-0.3-0.7,0-0.7-0.2v-0.8h1.5v4.9
				c-0.6,0.1-0.8-0.2-1.4-0.1c-0.5-1-0.9-2-1.5-2.8c-0.6,1.3,0.7,1.5,0.4,2.8h-0.9c0.2-0.8-0.3-0.9-0.5-1.3L32.2,36.6L32.2,36.6z"/>
			<path class="st2" d="M39.2,41.8c-0.7,0-1.3-0.2-1.9-0.2c-0.6-0.6-1.1-4.3,0-4.8c0.5-0.2,1.2,0.2,1.9,0.2
				C40.2,37.7,40.2,41.2,39.2,41.8 M37.6,40.6c0.3,0.3,0.7,0.4,1.3,0.3c0.4-0.7,0.2-2.2,0.1-3C37.3,37,37.6,39.1,37.6,40.6"/>
			<path class="st2" d="M27.7,36.9V38c-0.6,0.3-0.8-0.2-1.5-0.1c-0.5,0.5-0.1,2-0.2,2.9c0,0.3,0.5,0,0.6,0.1v0.9
				c-0.8,0-1.3,0.4-2.1,0.3v-0.8c0.1-0.1,0.4-0.1,0.6-0.1v-3.1c-1-0.2-0.8,0.8-1.7,0.6v-1.2C24.7,37.2,25.9,36.8,27.7,36.9"/>
			<path class="st2" d="M40.6,37.3c0.6-0.1,0.9,0.1,1.4,0.2c0.5,0.9,0.8,2,1.1,3.2c0.7-0.6,0.8-1.8,1.4-2.5c0.4,0.2,0.9,0.2,1.3,0.5
				v3.5c-0.2,0.4-0.6,0.7-0.4,1.5c-0.5,0-0.7-0.3-1-0.5c0-1.3,0.7-2,0.4-3.6c-0.6,1-1.1,2.2-1.7,3.2c-0.7-1.1-0.9-2.8-1.5-4
				c-0.7,1.5,0.4,2.1,0.3,3.6c-0.3-0.1-0.7-0.1-1-0.2C40.6,40.8,40.5,39.1,40.6,37.3"/>
			<path class="st2" d="M22.6,37.7c-0.2,1.5,0.3,3.1,0,4.2c-0.3,1.3-2.4,2.1-3.2,0.8c0-1.4,0-2.7-0.1-4c0.4-0.2,0.9-0.4,1.5-0.5
				c-0.2,1.2-0.6,2.7-0.2,4.1c0.7,0,1-0.4,1.3-0.8c0.2-1.7-0.2-2.3-0.3-3.5C21.8,37.9,22.2,37.8,22.6,37.7"/>
			<path class="st2" d="M18.7,39.4c0.1,1.8,0,3.5-0.2,5c-0.3,0.2-0.6,0.3-1.1,0.4c-0.1-0.9,0.3-1.3,0.4-2c-0.5-0.1-1.3,0.5-1.7,0.9
				c0.6,0.7,0.5,2.1-0.5,2.2c-0.2-1.6-0.5-3.1-0.3-5C16.1,40.1,17.1,39.4,18.7,39.4 M17.6,40.3c-0.4,0.3-1,0.5-1.5,0.7
				c0.1,0.5-0.1,1.2,0.1,1.5c0.5-0.3,1-0.6,1.6-0.8C17.7,41.3,18,40.4,17.6,40.3"/>
			<path class="st2" d="M49.8,40.7c0.1,2-0.1,3.7-0.3,5.3c-0.3-0.1-0.5-0.3-0.7-0.5c-0.1-0.8,0.2-1.2,0.2-1.9
				c-0.4-0.4-1-0.6-1.5-0.8c-0.2,0.5,0.4,1.1,0.2,2c-0.4,0-0.5-0.4-1-0.3c-0.2-1.5-0.5-3.4-0.2-5C48,39.4,48.8,40.1,49.8,40.7
				 M47.3,41.7c0.5,0.3,1,0.6,1.7,0.7V41c-0.6-0.2-1.1-0.5-1.7-0.7V41.7z"/>
			<path class="st2" d="M31,44.5c6.8-0.6,12.3,3,14.8,7.8c2.2,4.4,2.2,10.6-0.2,14.9C42.9,72,37.4,75.6,31,75
				c-5.1-0.4-9.4-3.8-11.7-8c-1.3-2.5-2.3-6.8-1.6-10.4c0.4-1.8,1.1-3.2,1.7-4.3C21.6,48.5,25.5,45,31,44.5 M19.4,53.8
				C17,59.1,18.8,65.5,21,68.6c2.4,3.4,6.4,6,11.6,6c7.9,0,15.1-7,14.1-16.8c-0.4-3.6-2.8-7.1-4.4-8.7c-2.7-2.6-6.8-4.3-11.9-3.7
				C25.5,45.9,21.2,50,19.4,53.8"/>
			<path class="st2" d="M11.5,48.6c0.5,0.9,0.1,2.7,0.2,4h-3C9.5,51.2,10.6,50,11.5,48.6"/>
			<path class="st2" d="M53.7,48.6c0.9,1.3,2.2,2.7,2.8,4h-2.8V48.6z"/>
			<path class="st2" d="M6.9,67.5h3v1.4C9.7,69.1,9.2,69,8.8,69c0.1,0.5,0.3,0.9,0.5,1.3h3.2c0.2-0.2,0-0.8,0.1-1.2
				c0-0.3-0.5,0-0.7-0.1v-1.5h2.2c0.2,1.1,0.2,3,0,4.1c-0.5,0.2-1.4,0-2,0.1c-0.5,2.3,0.4,4.1,0.3,6.3c-1.1-1.3-2-2.7-3-4.1v-1.4
				c0.5,0,0.5,0.6,0.9,0.7v-1.4H9C8,70.8,7,69.6,6.9,67.5"/>
			<path class="st2" d="M15.3,67.5c1.2,1.4,2.7,2.5,2.6,5.4c-0.2,0.6-0.6-0.4-0.9-0.5v6.7c0.1,0.6,0.8,0.6,0.6,1.5
				c0.3,0.5,0.9,0.6,1.3,0.9c0.2-0.4,0.2-0.9,0.9-0.7v-5.5c-0.7-0.5-0.9-1.4-0.7-2.8c0.9,0.5,1.7,1.1,2.2,2v7.9
				c-0.6,0.3-0.9,0.9-1.4,1.4c-1.4-0.5-2.3-1.6-3.7-2.1c0.1-1.1-0.3-1.5-0.6-2C15.7,75.4,15.4,71.6,15.3,67.5"/>
			<path class="st2" d="M50.3,67.5v11.4c-0.1,0.3-0.3,0.4-0.4,0.7c0.4,1.3-0.1,2.4-1.1,2.6c-0.4-1.5,0-2.8,0-4.5
				c-0.8,0.3-1.6,1.6-2.4,2.2c0.2,1.1,0.9,1.8,0.6,3.4c-0.6,0.2-1,0.6-1.6,0.8c-0.2-0.7,0-2-0.6-2.2v-8.3c1.4-2.1,3.4-3.5,4.4-6.1
				H50.3L50.3,67.5z M46.4,74.3c-0.3,1,0.2,2,0.2,3.3c0.4-0.9,1.9-1.5,2.2-2.6c0.3-0.9-0.1-2.1-0.1-3.3
				C48.3,72.7,46.7,73.1,46.4,74.3"/>
			<path class="st2" d="M51.4,67.5H53c1,1.3,1.7,2.9,2.6,4.3c0.6-0.6,0.9-1.5,1-2.7c-0.2-0.3-0.8,0-1.1-0.2v-1.4
				c1.1,0,2.3-0.1,3.2,0.1c-0.2,1.7-0.6,3.6-1.5,5.2c-0.1,0.3-1.2,2-1.4,2c-0.5,0-1.1-1.3-1.4-1.8c-0.5-0.9-0.7-1.4-1.2-2
				c-0.2,1.3,0,3.2-0.1,4.7c1.2,1.3,0.1,3.4-1.1,3.9v-2.1c-0.1-0.4-0.5-0.5-0.6-0.9V67.5z"/>
			<path class="st2" d="M43.8,78.4c-0.5,0.1-0.9,0.2-1.3,0.5c-0.2-0.4,0-1.2-0.1-1.8c-0.6,0.3-1.3,0.5-1.6,1.2v6
				c0.2,0.3,0.9,0.1,1.2,0v1.6c-1.3,0.1-2.3,0.6-3.5,0.7V85c0.3,0.1,0.4-0.2,0.8-0.1V80c-0.7,0.6-2.1,1.3-1.8,3.4H36v-1.9
				c1.3-1.6,2.6-3.1,3.8-4.8c1.1-0.2,3-2.5,3.9-1.4C44.1,75.8,43.7,77.1,43.8,78.4"/>
			<path class="st2" d="M27.9,80.3c-0.3,0.3-0.7,0.5-1,0.8c-1.2-0.8-1.2-2.8-2.8-3c-0.1,2.4-0.8,6.5,1.6,6.6
				c0.2-0.1,0.1-0.6,0.3-0.7c0.7-0.1,1.1,0.2,1.7,0.2v1.5c-0.9-0.3-0.6,0.8-1.1,0.9c-1.3,0-2.4-1-3.8-1.2c0.1-0.7-0.3-0.9-0.5-1.2
				v-8.6c0.2-0.1,0.3-0.2,0.3-0.4C25.4,76,26.8,77.9,27.9,80.3"/>
			<path class="st2" d="M37.5,77.5c-0.1,1.6-2,1.1-2.7,2c0.1,0.2,1,0.2,1.1,0c0.2,0.9-0.8,1.5-1.9,1.3c-0.1,0.6,0.1,1,0.2,1.4
				c0.2,0.2,0.6,0.1,0.9,0.2v0.8c-0.3,0.2-0.9,0.1-1.4,0.1c-0.4-1-1.1-1.5-1-2.5c0.1-1.2,1.8-2.1,2.1-3
				C35.8,77.8,36.6,77.5,37.5,77.5"/>
			<path class="st2" d="M32.3,80c0,1.6-0.2,2.8-1.2,3.3c-1-1.6-2.1-3-3.1-4.6C29.1,76.5,31.2,79.1,32.3,80 M31.3,81.5
				c0-1.3-0.8-1.7-1.7-2.1C30,80.3,30.6,80.9,31.3,81.5"/>
			<path class="st2" d="M36,84.7c0.5,1,0.3,2.6,0.3,4.2c0,2.2,0.3,4.6-0.5,5.6v2c-0.3,0.2-1,0.1-1.5,0.1c-0.2-2.1,0.4-3.2,0.3-5
				h-3.1c-0.2,0.7-0.2,2.1,0.4,2.1v2.8c-0.3,0.2-1,0.1-1.5,0.1c0.1-1.4,0-2.7-0.8-3.2c0-2.9-0.1-5.9,0.1-8.6
				C31.5,84.5,34,84.9,36,84.7 M31.3,86.5v3.4c0.9,0.2,2.6,0.2,3.5,0v-3.4C33.9,86.3,32.2,86.3,31.3,86.5"/>
			<path class="st2" d="M24.6,4.9c1.8-1.7,2.7,2,3.9,2.9C27.1,7.4,25.3,6.4,24.6,4.9"/>
			<path class="st2" d="M39.2,12.9C39.1,12.9,39.1,12.9,39.2,12.9c0.7-0.4,2.2-0.8,3.6-1.3c0.8-0.3,3.6-1.6,3.6,0
				c0,1.3-2.3,1-3.3,1.1C41.6,12.8,40.6,12.9,39.2,12.9"/>
			<path class="st2" d="M26.5,19.1c0.5,0,0,0.2-0.2,0.1c-4.3,1.4-8.8,2.9-13.5,4.3c-0.7,0.2-4.3,1.8-3.9-0.5c0.2-1,3-1,4.2-1.3
				c4.4-0.9,9-1.9,13.3-2.7h0.1V19.1z"/>
			<path class="st2" d="M38.9,51.8c3.6-0.1,5.3,0.9,5,5.3c0,0.6-0.2,1.6-0.4,2.3c-0.4,1.6-0.6,2.7-1.5,3.4c0.6,1.5,1.7,2.5,2.2,4.1
				c-2.5,0.3-4.8-0.5-6.9,0c-1.2,0.3-2.7,2.1-3.6,2.9c-1.2,1.1-2.4,2.1-3.4,3c-1.6-1.8-3.1-3.9-4.4-6h-5.5c0.5-1.3,1.2-2.5,1.7-3.8
				c-1.4-0.7-3-1.4-3.1-3.2c-0.1-2.9,3.5-5.3,5.8-5.6c0-0.9,0-1.7,0.1-2.5c0.1-0.1,0.4-0.1,0.6-0.1c1-4.6,7.7-6.7,11.3-3
				C37.8,49.6,38.3,50.7,38.9,51.8 M34.3,47.8c0-0.4-0.7-0.5-0.9-0.4C33.7,47.6,33.9,47.9,34.3,47.8 M31.3,47.6
				c-0.1,0.3-0.8,0.3-0.5,0.7 M31.2,48.6c0.4,0,0.5,0.2,1,0.1c0-0.5,0-0.9-0.2-1.2C31.9,48.1,31.2,48.1,31.2,48.6 M32.6,48.8h0.9
				c-0.1-0.6-0.6-0.8-0.9-1.2C32.5,48.1,32.4,48.3,32.6,48.8 M27.9,49.2c0.9,0.2,1.6-0.9,2.2-1.4C29.3,47.7,28.2,48.4,27.9,49.2
				 M34,48.4c0-0.4-0.6-0.9-0.9-0.6C33.6,47.8,33.3,48.6,34,48.4 M34.6,48.3c0.8,0.1,1.4,1.9,2.1,1.1c-0.3-0.5-1.2-1.4-2.1-1.5
				C34.6,48.1,34.4,48.1,34.6,48.3 M28.5,49.9c0.3,0.3,0.9,1,1.4,0.8c0.2-0.7,0.7-1.6,0.6-2.3C29.7,48.3,28.9,49.2,28.5,49.9
				 M34.6,51.1c0.6-0.2,1.2-0.4,1.4-1.1c-0.4-0.7-1.3-1.8-2.1-1.3 M30.2,51.1c0.6,0.2,1.1,0.4,1.9,0.3v-2.3c-0.5,0-0.9-0.1-1.2-0.2
				C30.7,49.6,30.4,50.3,30.2,51.1 M32.6,49.2v2.2c0.5,0.2,1.2-0.1,1.7-0.2C34,50.2,34,48.5,32.6,49.2 M26,51.7
				c0.1,0.3,0.4,0.5,0.8,0.6c-0.1-1.3,1.1-1.7,0.9-2.8C27,49.6,26.3,50.8,26,51.7 M36.8,50.3c0.4,0.6,0.7,1.2,1,2
				c0.5,0,0.6-0.3,0.9-0.6c-0.7-0.5-0.8-1.6-1.5-2.1C37,49.9,36.8,49.9,36.8,50.3 M26.9,52.6c0.8,0.3,1.4,0.9,2.4,1.2
				c0-1,0.3-1.5,0.3-2.5c-0.5-0.5-1-0.9-1.6-1.2C27.6,51,27.3,51.8,26.9,52.6 M36.2,50.5c-0.4,0.4-0.8,0.8-1.4,0.9
				c0.3,0.7,0.4,1.6,0.4,2.6c0.9-0.3,1.6-0.8,2.2-1.3C37.2,51.8,37,50.9,36.2,50.5 M29.6,54c0.8,0.2,1.6,0.5,2.6,0.5V52
				c-0.7-0.2-1.4-0.4-2.1-0.6C29.9,52.4,29.6,53,29.6,54 M32.5,52v2.6c0.9,0,1.6-0.2,2.4-0.4c-0.1-0.9-0.3-1.7-0.3-2.6
				C33.9,51.8,33.1,51.8,32.5,52 M35.7,58.7c0.2,0.9,0.2,0.3-0.5,0.4c-0.3,0.2,0.3,0.6-0.2,0.6h-0.3c-0.2-1.2-0.6-2.2-0.4-3.7
				c-0.3,0.1-0.2-0.2-0.4-0.2c-0.2,0.2-0.5,0.3-0.4,0.8c0,0.4,0.6,0.2,0.8,0.5c-0.4,0.2-0.5,0.2-1,0.1c-0.3,2.1,0.3,3.3,0.4,5.2
				c0.9,0,1.5,0.2,2.5,0.1C38,60,41,57.1,39.5,52.2c-0.7-0.1-0.4,1.5,0.1,1.8c-0.2,0-0.2-0.1-0.4-0.1c0.1,2.2-0.3,3.9-1.4,4.8
				c0.3-1.4,1.3-2.1,1-4.2c-0.3,0-0.5,0-0.5-0.2c0.3,0.1,0.4-0.1,0.6-0.1c0-0.4,0.1-0.9-0.3-0.9h-0.3C37.7,55.4,37.2,57.6,35.7,58.7
				 M29.2,58.7c-1.8-0.9-2.1-3.6-2.8-5.7c-0.8,0-0.4,1.2,0,1.3H26c-0.3,2,0.9,3,1,4.2c-1-1-1.4-2.5-1.3-4.7c-0.2,0-0.4,0-0.4-0.1
				c0-0.4,0.6-0.1,0.5-0.6c0-0.5,0.1-1.1-0.4-1.1c-1.1,4.9,1.3,7.9,3.1,10.4c0.9-0.1,1.7-0.3,2.8-0.2c0.1-1.6,0.6-3.7,0.1-5.3
				c0,0.2-0.7,0.5-0.6,0c0-0.3,0.6,0,0.6-0.2c0.1-0.6-0.1-0.9-0.6-0.9c-0.4,1.3,0.1,3.6-1.2,4c0-0.3,0.2-0.3,0.1-0.7
				c-0.4-0.2-0.7,0.4-0.9,0.1C29,59.2,29.1,59,29.2,58.7 M25.9,52.7c0.2,0,0.4,0,0.4-0.1c-0.2-0.1-0.2-0.4-0.4-0.5V52.7z M38.3,52.7
				h0.4c0-0.2,0-0.4-0.1-0.5C38.6,52.6,38.2,52.4,38.3,52.7 M39.7,52.5c0.5-0.1,1.4,0.2,1.7-0.1C41.1,52.4,39.9,52,39.7,52.5
				 M39.7,53.1c0.8,0.3,2,0,3,0.1C42.4,52.6,40.3,52.8,39.7,53.1 M29.2,56.6c0-0.9,0-1.6-0.1-2.3c-0.7-0.4-1.4-0.8-2.1-1.2
				C26.9,55.1,27.5,56.4,29.2,56.6 M37.4,53.3c-0.6,0.4-1.3,0.8-2,1.2v2.2c0.7,0.1,1.1-0.1,1.6-0.4C37.3,55.7,37.9,54.1,37.4,53.3
				 M39.7,53.8V54c0.9-0.1,3.1,0.3,3.2-0.2C42.4,53.4,40.3,53.4,39.7,53.8 M29.7,57c0.9-0.2,0.3-1.3,1.1-1.5s0.9,0.9,1.3,1.6
				c0.2-0.5,0-1.4,0.1-2.1c-1.1,0-1.7-0.4-2.7-0.5C29.6,55.3,29.2,56.5,29.7,57 M43.2,54.7c-0.8-0.1-2.7-0.3-3.3,0.1 M23.6,55.2h1.1
				C24.9,54.4,23.7,54.9,23.6,55.2 M32.6,55v2.1c0.5-0.5,0.4-1.7,1.4-1.6c0.6,0.1,0.3,1.2,0.5,1.6c0.5-0.4,0.3-1.6,0.5-2.3
				C34.1,54.7,33.3,54.8,32.6,55 M22.5,55.9c0.6-0.2,2,0.4,2.1-0.4C24.1,55.3,22.7,55.3,22.5,55.9 M39.9,55.8
				c0.9,0.1,2.7,0.3,3.4-0.1C42.4,55.5,40.5,55.3,39.9,55.8 M21.1,56.8c1.2-0.1,2.9,0.3,3.7-0.2C24,56.2,21.7,56.2,21.1,56.8
				 M29.7,58.7c-0.1-1.4-1-2-2-2.3C28.1,57.4,28.8,58.2,29.7,58.7 M39.7,56.5v0.4h2c0.6,0,1.6,0.3,1.7-0.4
				C42.5,56.3,40.8,56.3,39.7,56.5 M35.3,57.2c0,0.8-1,1.2-0.4,1.9c0.7-0.6,1.3-1.2,1.7-2.1C36.3,56.8,35.7,57.2,35.3,57.2
				 M20.9,57.3c-0.1,0-0.1,0.1-0.2,0.1c0,0.1-0.2,0.2,0.1,0.2h4.3C24.3,56.9,22.2,57.5,20.9,57.3 M30,58.1c0.2,0,0-0.5,0.1-0.7
				c-0.2,0-0.3,0-0.4-0.1C29.7,57.7,29.7,58.1,30,58.1 M39.5,57.5c1,0.1,3,0.3,3.8-0.1C42.3,57.3,40.3,57.1,39.5,57.5 M32.2,59.5v-2
				h-0.3C31.9,58.3,31.7,59.2,32.2,59.5 M32.7,59.5c0-0.5,0.4-1.7-0.1-2C32.6,58.2,32.4,59.1,32.7,59.5 M23.2,58.3h-2.8
				c-0.1,0-0.1,0.1-0.1,0.2c1.1,0.3,3.6,0,5.2,0.1C25.1,58,24.1,58.3,23.2,58.3 M39.2,58.5c0.6,0.1,3.1,0.3,3.9-0.1
				C42.1,58.2,40,58,39.2,58.5 M19.8,59.4c1.8,0.2,4.3,0.2,6.1,0C24.4,59,21.4,59,19.8,59.4 M38.7,59.3c0,0.1-0.2,0.2,0.1,0.2
				c1.3-0.2,3.1,0.3,4.1-0.2C41.7,59.1,39.8,59.1,38.7,59.3 M26.8,60.4c-1.9-0.5-5.1-0.2-7.2-0.1C21.6,60.7,24.7,60.5,26.8,60.4
				 M31.8,60.4c-0.3,0.1,1.2,0.3,1.1-0.1C32.8,60.1,31.8,59.9,31.8,60.4 M37.9,60.2c0,0.1-0.2,0.2,0.1,0.2c1.5-0.2,3.8,0.4,4.7-0.4
				C41.2,60.2,39.3,60,37.9,60.2 M20.3,61.5h7C26.7,60.7,25.2,61,24,61h-3.9C20.1,61.3,20.3,61.3,20.3,61.5 M31.7,61.3
				c0.2,0.1,1.3,0.3,1.3-0.1C32.8,61,31.7,60.9,31.7,61.3 M37.3,61.2c0,0.2-0.1,0.2-0.1,0.3H40c0.9,0,2.2,0.3,2.5-0.3
				C41,61,38.8,61,37.3,61.2 M27.8,62.2C26,61.7,23,62,21.1,62.1C22.8,62.6,25.8,62.4,27.8,62.2 M31.3,62.2c0.4,0.8,1.7,0.9,2,0
				C33,61.9,31.6,61.8,31.3,62.2 M36.5,62.4c1.9-0.3,4.2,0.6,5.5-0.4C40.2,62.2,37.8,61.6,36.5,62.4 M21.2,66.5h9.6
				c0.6,1.2,2.3,1,3,0h9.6c-0.7-1.1-1.3-2.4-2-3.6h-2.3c-1.1,0.2,1.3,0,1.5,0.1c0.7,0.3,0.7,2.2,1.3,2.5c-10.8,0.5-9.8,0.8-9.6,0.7
				c-2-2.3-6.2-0.2-9.4-0.8c0.4-0.7,0.6-1.6,1.1-2.2c0.6,0,1.2,0,1.7-0.1h0.9c0.5,0.1,0.5-0.2,0-0.1h-3.9c-0.1,0-0.1,0-0.1,0.1
				C22.5,64.1,21.7,65.4,21.2,66.5 M31.2,67.3c-1.1-0.5-3-0.1-4.4-0.2C27.4,67.7,30.1,67.3,31.2,67.3 M33.6,67.2
				c0.1,0.5,2.1,0.4,2.5-0.1C35.3,67.1,34.3,66.9,33.6,67.2 M27.6,68.4c2.5-0.3,5.9,0.6,7.7-0.5h-8C27.3,68.3,27.6,68.2,27.6,68.4
				 M28.2,69.3c1.7,0,4.8,0.6,6-0.3c-2.1,0.1-4.4-0.2-6.3,0.1C28,69,28,69.3,28.2,69.3 M33.1,69.9c-1.5,0.1-3.2-0.2-4.5,0.1
				C29.4,70.5,32.4,70.6,33.1,69.9 M29.3,70.9c0.5,0.4,2.4,0.4,2.8-0.1 M30.9,71.7c-0.3,0.1-0.8-0.1-0.9,0.1
				C30.2,72.2,30.8,72.2,30.9,71.7"/>
			<path class="st2" d="M69.8,15.2v-1.3h12v1.3h-0.4c-1.7,0.1-2.7,0.3-3,0.7s-0.5,1.5-0.5,3.4v13.4c0,3.2,0.1,5.4,0.2,6.4
				c0.2,1,0.6,1.9,1.2,2.8c1.3,1.8,3.3,2.7,6,2.7c2.5,0,4.5-0.8,6-2.3c0.8-0.9,1.4-1.8,1.6-2.9c0.3-1.1,0.4-3,0.4-5.7V19.3
				c0-1.9-0.2-3.1-0.5-3.4s-1.3-0.6-3-0.7h-0.4v-1.3h9.8v1.3h-0.4c-1.7,0.1-2.7,0.3-3,0.7s-0.4,1.5-0.4,3.4v13.2
				c0,2.9-0.2,5.1-0.5,6.4c-0.3,1.4-1,2.6-1.9,3.8c-1.8,2.2-4.6,3.3-8.3,3.3c-7.6,0-11.4-4.2-11.4-12.5V19.3c0-1.9-0.2-3.1-0.5-3.4
				C72.5,15.5,71.5,15.3,69.8,15.2L69.8,15.2z"/>
			<path class="st2" d="M107.6,35.6l-1.8,4.2c-0.7,1.6-1,2.7-1,3.3s0.9,0.9,2.7,0.9h0.3v1.3h-7.9V44h0.4c1.2-0.1,1.9-0.2,2.1-0.5
				c0.2-0.2,0.8-1.5,1.7-3.7l10.8-26.3h1.4L127,40c0.8,1.9,1.4,3,1.8,3.4c0.3,0.4,1,0.6,2,0.6h0.5v1.3H120V44h0.4
				c1.9,0,2.9-0.3,2.9-0.8c0-0.8-0.3-1.9-0.9-3.3l-1.7-4.2L107.6,35.6L107.6,35.6z M108.2,33.9h11.7l-5.8-14.3L108.2,33.9z"/>
			<path class="st2" d="M132.2,45.3V44h0.4c1.7-0.1,2.7-0.4,3-0.7c0.3-0.4,0.5-1.5,0.5-3.4V19.3c0-1.9-0.2-3.1-0.5-3.4
				c-0.3-0.4-1.3-0.6-3-0.7h-0.4v-1.3h9.8l3.2-0.1h1.5c4.8,0,8.4,1.3,11,3.9c2.5,2.6,3.8,6.3,3.8,11.2c0,5.1-1.3,9-3.9,12
				c-2.6,2.9-6.2,4.4-10.7,4.4H132.2L132.2,45.3z M140.4,15.3v24.5c0,1.9,0.2,3,0.6,3.3c0.7,0.5,2.2,0.8,4.3,0.8
				c3.9,0,6.8-1.2,8.7-3.6s2.9-6,2.9-10.8c0-5-1-8.6-3.1-10.8s-5.5-3.3-10.1-3.3L140.4,15.3L140.4,15.3z"/>
			<path class="st2" d="M175.8,31.3l-7-11.9c-1.5-2.5-2.3-3.8-2.5-4s-0.9-0.3-2.1-0.3h-0.4v-1.3h11.9v1.3h-0.4c-2,0-2.9,0.2-3,0.7
				c0,0.4,0.5,1.6,1.7,3.6l5.7,9.9l6-9.9c1.2-2,1.8-3.2,1.8-3.6c0-0.5-1-0.7-2.9-0.7h-0.4v-1.3h8.3v1.3h-0.4
				c-1.3,0.1-2.1,0.2-2.3,0.4s-1,1.5-2.5,3.9l-7.2,11.9v8.4c0,1.9,0.1,3.1,0.4,3.4c0.3,0.4,1.3,0.6,3,0.7h0.4v1.5h-12V44h0.4
				c1.7-0.1,2.7-0.4,3-0.7c0.3-0.4,0.4-1.5,0.4-3.4L175.8,31.3L175.8,31.3z"/>
			<path class="st3" d="M109,54.7h3.6v0.6h-0.1c-0.4,0-0.6,0.1-0.7,0.2c-0.1,0.1-0.1,0.4-0.1,0.9v3.8c0,1,0.1,1.8,0.4,2.2
				s0.8,0.7,1.4,0.7c0.7,0,1.2-0.2,1.6-0.7c0.3-0.5,0.5-1.2,0.5-2.2v-3.7c0-0.5,0-0.8-0.1-0.9s-0.3-0.2-0.7-0.2h-0.1v-0.5h2.6v0.4
				h-0.1c-0.4,0-0.6,0.1-0.7,0.2c-0.1,0.1-0.1,0.4-0.1,0.9V60c0,1.2-0.3,2.2-0.8,2.8s-1.3,0.9-2.4,0.9c-2.3,0-3.4-1.2-3.4-3.5v-3.6
				c0-0.5,0-0.8-0.1-1c-0.1-0.1-0.3-0.2-0.7-0.2h-0.1L109,54.7L109,54.7z"/>
			<path class="st3" d="M124.2,63.5l-4.6-6.6v4.8c0,0.5,0,0.8,0.1,0.9s0.3,0.2,0.7,0.2h0.1v0.5h-2.6v-0.5h0.1c0.4,0,0.6-0.1,0.7-0.2
				c0.1-0.1,0.1-0.4,0.1-0.9v-5.3c0-0.5,0-0.8-0.1-0.9s-0.3-0.2-0.7-0.2h-0.1v-0.5h2.1l4.6,6.6v-4.9c0-0.5,0-0.8-0.1-0.9
				s-0.3-0.2-0.7-0.2h-0.1v-0.5h2.6v0.4h-0.1c-0.4,0-0.6,0.1-0.7,0.2c-0.1,0.1-0.1,0.4-0.1,0.9v7.1L124.2,63.5L124.2,63.5z"/>
			<path class="st3" d="M130.5,63.4h-3.6v-0.5h0.1c0.4,0,0.6-0.1,0.7-0.2c0.1-0.1,0.1-0.4,0.1-0.9v-5.3c0-0.5,0-0.8-0.1-0.9
				s-0.3-0.2-0.7-0.2h-0.1v-0.5h3.6v0.4h-0.1c-0.4,0-0.6,0.1-0.7,0.2c-0.1,0.1-0.1,0.4-0.1,0.9v5.3c0,0.5,0,0.8,0.1,0.9
				s0.3,0.2,0.7,0.2h0.1V63.4L130.5,63.4z"/>
			<path class="st3" d="M134.9,63.5l-3-7.1c-0.3-0.6-0.4-1-0.5-1c0,0-0.2-0.1-0.6-0.1h-0.1v-0.5h3.6v0.5h-0.1c-0.1,0-0.3,0-0.4,0
				c-0.1,0-0.2,0.1-0.2,0.2s0.1,0.4,0.3,0.9l1.9,4.6l1.8-4.6c0-0.1,0.1-0.3,0.2-0.5c0.1-0.2,0.1-0.4,0.1-0.4c0-0.1-0.1-0.2-0.4-0.2
				h-0.3h-0.1v-0.5h2.4v0.5h-0.1c-0.1,0-0.2,0-0.2,0c-0.2,0-0.3,0.1-0.4,0.2c-0.1,0.1-0.2,0.4-0.4,1l-2.9,7.1L134.9,63.5L134.9,63.5
				z"/>
			<path class="st3" d="M146.1,63.4h-6.4v-0.5h0.1c0.4,0,0.6-0.1,0.7-0.2c0.1-0.1,0.1-0.4,0.1-0.9v-5.3c0-0.5,0-0.8-0.1-0.9
				s-0.3-0.2-0.7-0.2h-0.1v-0.5h6.1v1.4H145v-0.1c0-0.2,0-0.3,0-0.4c0-0.2,0-0.4-0.2-0.4c-0.1-0.1-0.3-0.1-0.7-0.1h-1.8v3.3h1.2
				c0.4,0,0.7,0,0.8,0s0.1-0.2,0.1-0.5V58h0.6v1.9h-0.6v-0.1c0-0.3-0.1-0.5-0.2-0.5c-0.1,0-0.3-0.1-0.7-0.1h-1.2v2.6
				c0,0.6,0.1,1,0.2,1c0.1,0,0.4,0,0.9,0h0.7c0.6,0,0.9,0,0.9-0.1c0.1-0.1,0.1-0.3,0.1-0.8v-0.1h0.8L146.1,63.4L146.1,63.4z"/>
			<path class="st3" d="M149.3,59.6v2.1c0,0.5,0,0.8,0.1,0.9s0.3,0.2,0.6,0.2h0.1v0.5h-3.4v-0.5h0.1c0.4,0,0.6-0.1,0.7-0.2
				c0.1-0.1,0.1-0.4,0.1-0.9v-5.3c0-0.5,0-0.8-0.1-0.9s-0.3-0.2-0.7-0.2h-0.1v-0.5h2.4h1h0.5c1.7,0,2.6,0.7,2.6,2.2
				c0,0.6-0.1,1.1-0.4,1.5c-0.3,0.4-0.7,0.7-1.2,1l1.6,2.4c0.4,0.6,0.7,0.9,0.8,1s0.3,0.1,0.6,0.2h0.1v0.5h-2.4l-2.3-3.8L149.3,59.6
				L149.3,59.6z M149.3,59h0.3c0.6,0,1.1-0.2,1.4-0.5c0.3-0.4,0.5-0.9,0.5-1.5c0-1.1-0.5-1.7-1.6-1.7h-0.6L149.3,59L149.3,59z"/>
			<path class="st3" d="M155.4,63.3v-1.8h0.8v0.1c0,0.5,0.1,0.8,0.3,1c0.3,0.3,0.8,0.4,1.2,0.4s0.8-0.1,1.1-0.4s0.4-0.7,0.4-1.1
				s-0.1-0.7-0.2-0.9c-0.2-0.2-0.5-0.5-0.9-0.7l-0.6-0.3c-1.4-0.8-2.1-1.7-2.1-2.6c0-0.7,0.3-1.3,0.8-1.8c0.5-0.4,1.2-0.7,2-0.7
				c0.7,0,1.4,0.1,2.3,0.4v1.8h-0.8v-0.1c0-0.5-0.1-0.9-0.2-1c-0.3-0.3-0.6-0.4-1.1-0.4c-0.4,0-0.7,0.1-0.9,0.4s-0.4,0.6-0.4,1
				c0,0.3,0.1,0.5,0.2,0.8c0.2,0.2,0.5,0.4,0.9,0.7l0.6,0.3c0.8,0.5,1.4,0.9,1.7,1.3s0.5,0.9,0.5,1.4c0,0.8-0.3,1.4-0.9,1.9
				c-0.6,0.5-1.3,0.7-2.3,0.7C157,63.6,156.2,63.5,155.4,63.3"/>
			<path class="st3" d="M165,63.4h-3.6v-0.5h0.1c0.4,0,0.6-0.1,0.7-0.2c0.1-0.1,0.1-0.4,0.1-0.9v-5.3c0-0.5,0-0.8-0.1-0.9
				s-0.3-0.2-0.7-0.2h-0.1v-0.5h3.6v0.4h-0.1c-0.4,0-0.6,0.1-0.7,0.2c-0.1,0.1-0.1,0.4-0.1,0.9v5.3c0,0.5,0,0.8,0.1,0.9
				s0.3,0.2,0.7,0.2h0.1V63.4L165,63.4z"/>
			<path class="st3" d="M165.5,63.4v-0.5h0.1c0.4,0,0.6-0.1,0.7-0.2c0.1-0.1,0.1-0.4,0.1-0.9v-5.3c0-0.5,0-0.8-0.1-0.9
				s-0.3-0.2-0.7-0.2h-0.1v-0.5h2.7h1.2h0.4c1.3,0,2.3,0.4,3,1.1s1.1,1.8,1.1,3.1c0,1.4-0.4,2.5-1.1,3.3s-1.7,1.2-2.9,1.2
				L165.5,63.4L165.5,63.4z M168.2,55.3v6.4c0,0.5,0.1,0.8,0.2,0.9c0.1,0.1,0.5,0.2,1,0.2c0.9,0,1.6-0.3,2-1s0.7-1.6,0.7-2.9
				s-0.3-2.2-0.8-2.8c-0.5-0.5-1.4-0.8-2.6-0.8L168.2,55.3L168.2,55.3z"/>
			<path class="st3" d="M176.8,60.8l-0.4,0.9c-0.2,0.5-0.3,0.8-0.3,0.9s0.1,0.2,0.4,0.2c0,0,0.1,0,0.2,0h0.1v0.5h-2.2v-0.5h0.1
				c0.3,0,0.5-0.1,0.6-0.2s0.2-0.4,0.5-1l3.1-7.1h0.6l3.1,7.1c0.3,0.6,0.5,0.9,0.5,1c0.1,0.1,0.3,0.1,0.6,0.2h0.1v0.5h-3.5v-0.5h0.1
				c0.5,0,0.7-0.1,0.7-0.2s-0.1-0.4-0.3-0.9l-0.4-0.9H176.8L176.8,60.8z M177,60.2h3l-1.5-3.4L177,60.2z"/>
			<path class="st3" d="M183.9,63.4v-0.5h0.1c0.4,0,0.6-0.1,0.7-0.2c0.1-0.1,0.1-0.4,0.1-0.9v-5.3c0-0.5,0-0.8-0.1-0.9
				s-0.3-0.2-0.7-0.2h-0.1v-0.5h2.7h1.2h0.4c1.3,0,2.3,0.4,3,1.1s1.1,1.8,1.1,3.1c0,1.4-0.4,2.5-1.1,3.3s-1.7,1.2-2.9,1.2
				L183.9,63.4L183.9,63.4z M186.6,55.3v6.4c0,0.5,0.1,0.8,0.2,0.9c0.1,0.1,0.5,0.2,1,0.2c0.9,0,1.6-0.3,2-1s0.7-1.6,0.7-2.9
				s-0.3-2.2-0.8-2.8c-0.5-0.5-1.4-0.8-2.6-0.8L186.6,55.3L186.6,55.3z"/>
			<path class="st3" d="M121.4,74.4l-0.4,0.9c-0.2,0.5-0.3,0.8-0.3,0.9s0.1,0.2,0.4,0.2c0,0,0.1,0,0.2,0h0.1v0.5h-2.2v-0.5h0.1
				c0.3,0,0.5-0.1,0.6-0.2s0.2-0.4,0.5-1l3.1-7.1h0.6l3.1,7.1c0.3,0.6,0.5,0.9,0.5,1c0.1,0.1,0.3,0.1,0.6,0.2h0.1v0.5h-3.5v-0.5h0.1
				c0.5,0,0.7-0.1,0.7-0.2s-0.1-0.4-0.3-0.9l-0.4-0.9H121.4L121.4,74.4z M121.7,73.9h3l-1.5-3.4L121.7,73.9z"/>
			<path class="st3" d="M128.5,68.4h3.6v0.5H132c-0.4,0-0.6,0.1-0.7,0.2c-0.1,0.1-0.1,0.4-0.1,0.9v3.8c0,1,0.1,1.8,0.4,2.2
				c0.3,0.4,0.8,0.7,1.4,0.7c0.7,0,1.2-0.2,1.6-0.7c0.3-0.5,0.5-1.2,0.5-2.2v-3.7c0-0.5,0-0.8-0.1-0.9s-0.3-0.2-0.7-0.2h-0.1v-0.5
				h2.6V69h-0.1c-0.4,0-0.6,0.1-0.7,0.2c-0.1,0.1-0.1,0.4-0.1,0.9v3.6c0,1.2-0.3,2.2-0.8,2.8s-1.3,0.9-2.4,0.9
				c-2.3,0-3.4-1.2-3.4-3.5v-3.6c0-0.5,0-0.8-0.1-1c-0.1-0.1-0.3-0.2-0.7-0.2h-0.1L128.5,68.4L128.5,68.4z"/>
			<path class="st3" d="M140.3,69h-1.4c-0.4,0-0.6,0-0.7,0.1c-0.1,0.1-0.2,0.4-0.2,0.9v0.2h-0.8v-1.8h7.8v1.8h-0.8V70
				c0-0.5-0.1-0.8-0.2-0.9c-0.1-0.1-0.3-0.1-0.7-0.1h-1.4v6.4c0,0.6,0.1,0.9,0.1,1c0.1,0.1,0.3,0.1,0.8,0.2h0.1v0.5h-3.8v-0.5h0.1
				c0.5,0,0.7-0.1,0.8-0.2s0.1-0.4,0.1-0.9L140.3,69L140.3,69z"/>
			<path class="st3" d="M150,77.3c-1.3,0-2.4-0.4-3.1-1.2c-0.8-0.8-1.1-1.9-1.1-3.3s0.4-2.5,1.1-3.3c0.8-0.8,1.8-1.2,3.1-1.2
				s2.3,0.4,3.1,1.2s1.1,1.9,1.1,3.3s-0.4,2.5-1.1,3.3C152.3,76.9,151.3,77.3,150,77.3 M150,76.7c0.8,0,1.4-0.3,1.8-1
				c0.4-0.7,0.6-1.7,0.6-3s-0.2-2.3-0.6-3c-0.4-0.7-1-1-1.8-1s-1.4,0.3-1.8,1c-0.4,0.7-0.6,1.7-0.6,3s0.2,2.3,0.6,3
				S149.2,76.7,150,76.7 M150.2,65.9h1.5l-2.1,1.7h-0.7L150.2,65.9z"/>
			<path class="st3" d="M161.3,77.2l-4.6-6.6v4.8c0,0.5,0,0.8,0.1,0.9s0.3,0.2,0.7,0.2h0.1V77H155v-0.5h0.1c0.4,0,0.6-0.1,0.7-0.2
				c0.1-0.1,0.1-0.4,0.1-0.9v-5.3c0-0.5,0-0.8-0.1-0.9s-0.3-0.2-0.7-0.2H155v-0.5h2.1l4.6,6.6v-4.9c0-0.5,0-0.8-0.1-0.9
				s-0.3-0.2-0.7-0.2h-0.1v-0.5h2.6v0.5h-0.1c-0.4,0-0.6,0.1-0.7,0.2c-0.1,0.1-0.1,0.4-0.1,0.9v7.1L161.3,77.2L161.3,77.2z"/>
			<path class="st3" d="M168.5,77.3c-1.3,0-2.4-0.4-3.1-1.2c-0.8-0.8-1.1-1.9-1.1-3.3s0.4-2.5,1.1-3.3c0.8-0.8,1.8-1.2,3.1-1.2
				s2.3,0.4,3.1,1.2s1.1,1.9,1.1,3.3s-0.4,2.5-1.1,3.3C170.9,76.9,169.8,77.3,168.5,77.3 M168.5,76.7c0.8,0,1.4-0.3,1.8-1
				c0.4-0.7,0.6-1.7,0.6-3s-0.2-2.3-0.6-3c-0.4-0.7-1-1-1.8-1s-1.4,0.3-1.8,1s-0.6,1.7-0.6,3s0.2,2.3,0.6,3S167.7,76.7,168.5,76.7"
				/>
			<path class="st3" d="M173.4,68.4h2.8l2.3,5.6l2.4-5.6h2.5v0.5h-0.1c-0.4,0-0.6,0.1-0.7,0.2c-0.1,0.1-0.1,0.4-0.1,0.9v5.3
				c0,0.5,0,0.8,0.1,0.9s0.3,0.2,0.7,0.2h0.1v0.5h-3.3v-0.5h0.1c0.3,0,0.5-0.1,0.6-0.2s0.1-0.4,0.1-1V70l-2.6,5.9h-0.6l-2.6-6.2v5.5
				c0,0.5,0,0.8,0.1,0.9s0.3,0.2,0.6,0.2h0.1v0.5h-2.5v-0.5h0.1c0.4,0,0.6-0.1,0.7-0.2c0.1-0.1,0.1-0.4,0.1-0.9v-5.3
				c0-0.5,0-0.8-0.1-0.9s-0.3-0.2-0.7-0.2h-0.1L173.4,68.4L173.4,68.4z"/>
			<path class="st3" d="M186,74.4l-0.4,0.9c-0.2,0.5-0.3,0.8-0.3,0.9s0.1,0.2,0.4,0.2c0,0,0.1,0,0.2,0h0.1v0.5h-2.2v-0.5h0.1
				c0.3,0,0.5-0.1,0.6-0.2s0.2-0.4,0.5-1l3.1-7.1h0.6l3.1,7.1c0.3,0.6,0.5,0.9,0.5,1c0.1,0.1,0.3,0.1,0.6,0.2h0.1v0.5h-3.5v-0.5h0.1
				c0.5,0,0.7-0.1,0.7-0.2s-0.1-0.4-0.3-0.9l-0.4-0.9H186L186,74.4z M186.2,73.9h3l-1.5-3.4L186.2,73.9z"/>
			<path class="st3" d="M112.3,90.7v-0.5h0.1c0.4,0,0.6-0.1,0.7-0.2s0.1-0.4,0.1-0.9v-5.3c0-0.5,0-0.8-0.1-0.9s-0.3-0.2-0.7-0.2
				h-0.1v-0.5h2.7h1.2h0.4c1.3,0,2.3,0.4,3,1.1s1.1,1.8,1.1,3.1c0,1.4-0.4,2.5-1.1,3.3s-1.7,1.2-2.9,1.2h-4.4
				C112.3,90.9,112.3,90.7,112.3,90.7z M115,82.6V89c0,0.5,0.1,0.8,0.2,0.9s0.5,0.2,1,0.2c0.9,0,1.6-0.3,2-1s0.7-1.6,0.7-2.9
				s-0.3-2.2-0.8-2.8c-0.5-0.5-1.4-0.8-2.6-0.8L115,82.6L115,82.6z"/>
			<path class="st3" d="M127.9,90.7h-6.4v-0.5h0.1c0.4,0,0.6-0.1,0.7-0.2s0.1-0.4,0.1-0.9v-5.3c0-0.5,0-0.8-0.1-0.9
				s-0.3-0.2-0.7-0.2h-0.1v-0.5h6.1v1.6h-0.8v-0.1c0-0.2,0-0.3,0-0.4c0-0.2,0-0.4-0.2-0.4c-0.1-0.1-0.3-0.1-0.7-0.1h-1.8v3.3h1.2
				c0.4,0,0.7,0,0.8,0s0.1-0.2,0.1-0.5v-0.1h0.6v1.9h-0.6v-0.1c0-0.3-0.1-0.5-0.2-0.5s-0.3-0.1-0.7-0.1h-1.2v2.6c0,0.6,0.1,1,0.2,1
				s0.4,0,0.9,0h0.7c0.6,0,0.9,0,0.9-0.1c0.1-0.1,0.1-0.3,0.1-0.8v-0.1h0.8L127.9,90.7L127.9,90.7z"/>
			<path class="st3" d="M135.1,87l-1.9-3.2c-0.2-0.4-0.4-0.6-0.4-0.7c-0.1-0.2-0.2-0.4-0.3-0.4s-0.3-0.1-0.6-0.1h-0.1v-0.5h3.6v0.5
				h-0.1c-0.4,0-0.7,0.1-0.7,0.2s0.2,0.5,0.5,1l1.4,2.4l1.5-2.4c0.3-0.5,0.5-0.9,0.5-1s-0.2-0.2-0.5-0.2h-0.1v-0.5h2.3v0.5h-0.1
				c-0.3,0-0.5,0.1-0.6,0.1c0,0-0.3,0.4-0.7,1.1l-1.9,3.2v2.1c0,0.5,0,0.8,0.1,0.9s0.3,0.2,0.7,0.2h0.1v0.5h-3.6v-0.5h0.1
				c0.4,0,0.6-0.1,0.7-0.2c0.1-0.1,0.1-0.4,0.1-0.9V87L135.1,87z"/>
			<path class="st3" d="M140.3,82.1h3.6v0.5h-0.1c-0.4,0-0.6,0.1-0.7,0.2c-0.1,0.1-0.1,0.4-0.1,0.9v3.8c0,1,0.1,1.8,0.4,2.2
				c0.3,0.4,0.8,0.7,1.4,0.7c0.7,0,1.2-0.2,1.6-0.7s0.5-1.2,0.5-2.2v-3.7c0-0.5,0-0.8-0.1-0.9s-0.3-0.2-0.7-0.2H146v-0.5h2.6v0.5
				h-0.1c-0.4,0-0.6,0.1-0.7,0.2c-0.1,0.1-0.1,0.4-0.1,0.9v3.6c0,1.2-0.3,2.2-0.8,2.8c-0.5,0.6-1.3,0.9-2.4,0.9
				c-2.3,0-3.4-1.2-3.4-3.5V84c0-0.5,0-0.8-0.1-1c-0.1-0.1-0.3-0.2-0.7-0.2h-0.1L140.3,82.1L140.3,82.1z"/>
			<path class="st3" d="M156.5,90.4c-0.9,0.4-1.8,0.6-2.8,0.6c-1.4,0-2.5-0.4-3.3-1.2c-0.8-0.8-1.2-1.9-1.2-3.4
				c0-1.4,0.4-2.6,1.2-3.4s1.9-1.2,3.3-1.2c0.9,0,1.8,0.1,2.7,0.4V84h-0.8v-0.1c0-0.5-0.1-0.8-0.2-1c-0.4-0.3-0.9-0.5-1.6-0.5
				c-0.8,0-1.5,0.3-1.9,1s-0.7,1.7-0.7,2.9c0,1.3,0.3,2.3,0.8,2.9s1.3,1,2.3,1c0.7,0,1.5-0.2,2.4-0.6L156.5,90.4L156.5,90.4z"/>
			<path class="st3" d="M159.3,88.1l-0.4,0.9c-0.2,0.5-0.3,0.8-0.3,0.9s0.1,0.2,0.4,0.2c0,0,0.1,0,0.2,0h0.1v0.5h-2.2v-0.5h0.1
				c0.3,0,0.5-0.1,0.6-0.2s0.2-0.4,0.5-1l3.1-7.1h0.6l3.1,7.1c0.3,0.6,0.5,0.9,0.5,1c0.1,0.1,0.3,0.1,0.6,0.2h0.1v0.5h-3.5v-0.5h0.1
				c0.5,0,0.7-0.1,0.7-0.2s-0.1-0.4-0.3-0.9l-0.4-0.9H159.3L159.3,88.1z M159.6,87.5h3l-1.5-3.4L159.6,87.5z"/>
			<path class="st3" d="M169.5,82.6h-1.4c-0.4,0-0.6,0-0.7,0.1c-0.1,0.1-0.2,0.4-0.2,0.9v0.2h-0.8V82h7.8v1.8h-0.8v-0.2
				c0-0.5-0.1-0.8-0.2-0.9c-0.1-0.1-0.3-0.1-0.7-0.1h-1.2V89c0,0.6,0.1,0.9,0.1,1c0.1,0.1,0.3,0.1,0.8,0.2h0.1v0.5h-3.8v-0.5h0.1
				c0.5,0,0.7-0.1,0.8-0.2s0.1-0.4,0.1-0.9L169.5,82.6L169.5,82.6z"/>
			<path class="st3" d="M176.8,88.1l-0.4,0.9c-0.2,0.5-0.3,0.8-0.3,0.9s0.1,0.2,0.4,0.2c0,0,0.1,0,0.2,0h0.1v0.5h-2.2v-0.5h0.1
				c0.3,0,0.5-0.1,0.6-0.2s0.2-0.4,0.5-1l3.1-7.1h0.6l3.1,7.1c0.3,0.6,0.5,0.9,0.5,1s0.3,0.1,0.6,0.2h0.1v0.5h-3.5v-0.5h0.1
				c0.5,0,0.7-0.1,0.7-0.2s-0.1-0.4-0.3-0.9l-0.4-0.9H176.8L176.8,88.1z M177.1,87.5h3l-1.5-3.4L177.1,87.5z M179.5,79.6h1.5
				l-2.1,1.7h-0.6L179.5,79.6z"/>
			<path class="st3" d="M190.4,90.9l-4.6-6.6v4.8c0,0.5,0,0.8,0.1,0.9s0.3,0.2,0.7,0.2h0.1v0.5h-2.6v-0.5h0.1c0.4,0,0.6-0.1,0.7-0.2
				c0.1-0.1,0.1-0.4,0.1-0.9v-5.3c0-0.5,0-0.8-0.1-0.9s-0.3-0.2-0.7-0.2h-0.1v-0.5h2.1l4.6,6.6v-4.9c0-0.5,0-0.8-0.1-0.9
				s-0.3-0.2-0.7-0.2h-0.1v-0.5h2.6v0.5h-0.1c-0.4,0-0.6,0.1-0.7,0.2c-0.1,0.1-0.1,0.4-0.1,0.9V91L190.4,90.9L190.4,90.9z"/>
		</g>
	</g>
</g>
</svg>
