<?xml version="1.0" standalone="no"?>
<!DOCTYPE svg PUBLIC "-//W3C//DTD SVG 20010904//EN"
 "http://www.w3.org/TR/2001/REC-SVG-20010904/DTD/svg10.dtd">
<svg version="1.0" xmlns="http://www.w3.org/2000/svg"
 width="1350.000000pt" height="1350.000000pt" viewBox="0 0 1350.000000 1350.000000"
 preserveAspectRatio="xMidYMid meet">

<g transform="translate(0.000000,1350.000000) scale(0.100000,-0.100000)"
fill="#000000" stroke="none">
<path d="M6598 13214 c-260 -47 -528 -186 -713 -370 -173 -172 -279 -360 -342
-604 -48 -186 -41 -456 17 -642 10 -32 15 -60 11 -62 -3 -2 -42 -13 -86 -25
-625 -168 -1329 -527 -1837 -938 l-77 -62 -46 66 c-190 272 -475 458 -816 535
-89 20 -131 23 -294 23 -169 -1 -202 -4 -301 -27 -182 -43 -368 -128 -509
-234 -94 -69 -230 -210 -294 -304 -153 -223 -221 -442 -221 -710 0 -212 42
-390 137 -573 156 -303 441 -539 778 -647 55 -17 101 -33 103 -35 2 -2 -15
-45 -36 -96 -202 -473 -334 -989 -392 -1519 -14 -131 -30 -414 -30 -536 l0
-101 -132 -6 c-372 -17 -669 -145 -919 -396 -147 -147 -238 -288 -303 -469
-93 -260 -93 -572 0 -834 131 -368 453 -674 837 -797 149 -47 262 -65 427 -65
229 0 412 43 614 143 l94 46 32 -64 c53 -100 223 -373 317 -505 242 -341 545
-676 848 -937 l94 -81 -70 -91 c-72 -96 -152 -245 -189 -357 -81 -241 -80
-540 1 -784 117 -351 389 -638 743 -786 163 -69 275 -91 478 -97 139 -4 198
-2 279 12 364 61 694 272 893 572 73 111 146 269 167 364 15 69 7 67 162 39
281 -51 451 -64 857 -64 257 -1 427 3 510 12 132 15 351 45 435 61 27 5 51 9
51 8 1 -1 20 -50 43 -109 163 -416 520 -711 985 -810 143 -30 388 -30 533 1
520 110 910 476 1034 971 29 119 37 361 15 486 -31 181 -100 353 -200 502
l-49 73 39 32 c164 134 477 448 634 637 192 232 368 481 505 715 32 55 64 110
71 122 13 20 15 21 61 7 165 -51 432 -68 603 -40 571 93 1011 512 1105 1050
19 113 19 316 0 429 -69 391 -332 740 -695 922 -125 63 -227 96 -397 131 -22
4 -23 8 -23 137 0 572 -131 1242 -356 1825 -24 63 -44 117 -44 121 0 4 28 13
63 20 231 48 485 189 661 367 251 254 376 576 363 929 -13 327 -136 604 -372
840 -190 191 -429 317 -702 372 -122 24 -394 24 -515 0 -107 -21 -267 -76
-362 -124 -176 -88 -379 -261 -476 -405 -25 -37 -47 -68 -50 -68 -3 0 -43 32
-90 71 -581 486 -1291 856 -2000 1043 -73 20 -134 37 -137 39 -2 3 5 40 16 83
105 419 -10 851 -311 1170 -198 209 -463 349 -752 399 -111 19 -371 19 -478
-1z m512 -79 c476 -105 847 -455 961 -905 27 -108 37 -333 20 -452 -32 -223
-148 -458 -309 -630 -317 -338 -796 -478 -1252 -366 -356 87 -667 332 -823
649 -90 183 -120 313 -120 519 -1 213 33 353 131 545 114 221 316 417 551 535
85 42 248 95 341 110 41 6 82 13 90 15 40 10 342 -5 410 -20z m1154 -1850
c474 -134 944 -348 1366 -623 246 -160 615 -453 607 -481 -81 -271 -95 -464
-50 -680 59 -289 239 -576 471 -751 l59 -45 57 -170 c31 -94 56 -176 56 -183
0 -21 -36 -13 -81 19 -24 17 -81 69 -126 115 -45 46 -96 91 -114 98 -64 27
-108 -23 -76 -88 8 -17 48 -71 88 -121 39 -49 83 -115 97 -145 27 -59 35 -141
15 -161 -19 -19 -76 -26 -103 -13 -25 12 -157 34 -206 34 -15 0 -38 -13 -55
-30 -26 -25 -28 -33 -19 -51 13 -23 67 -50 87 -42 9 3 11 0 7 -10 -4 -11 8
-23 44 -41 27 -14 79 -45 116 -70 68 -48 82 -54 70 -34 -4 7 -3 8 5 4 6 -4 9
-11 6 -16 -3 -4 12 -19 32 -32 l38 -23 -91 -6 c-51 -4 -123 -14 -160 -22 -102
-24 -222 -31 -271 -18 -80 22 -105 84 -129 316 -8 83 -27 202 -40 265 -14 63
-28 156 -31 207 -7 110 0 125 85 180 178 116 211 158 212 269 0 170 -183 349
-358 349 -57 0 -73 -6 -192 -68 -151 -78 -196 -88 -261 -60 -73 33 -144 96
-173 154 -34 69 -32 75 52 215 47 79 82 169 82 212 0 41 -46 126 -83 155 -38
28 -149 81 -204 96 -59 17 -129 13 -172 -8 -48 -25 -80 -62 -170 -194 -39 -58
-78 -111 -86 -117 -12 -10 -31 -10 -88 -1 -101 16 -314 30 -497 32 -85 1 -186
4 -225 8 l-70 6 -71 95 c-90 120 -171 196 -227 211 -79 21 -159 6 -271 -49
-158 -79 -246 -170 -246 -254 0 -18 9 -52 20 -76 20 -45 138 -208 202 -279 20
-23 40 -54 44 -68 16 -63 -38 -142 -121 -182 -32 -15 -37 -15 -102 11 -89 36
-268 130 -568 299 -171 96 -462 240 -558 276 -101 37 -172 26 -228 -36 -73
-81 -149 -248 -149 -328 0 -70 29 -103 188 -215 50 -36 92 -72 92 -81 0 -22
-89 -145 -141 -196 -58 -55 -216 -153 -247 -153 -14 0 -55 20 -92 44 -87 58
-298 160 -375 182 -45 13 -79 15 -141 10 -209 -16 -546 -117 -777 -232 -101
-51 -425 -247 -463 -281 -61 -54 -360 -429 -492 -618 -159 -227 -242 -394
-250 -502 -8 -115 43 -724 70 -821 13 -50 33 -62 107 -62 26 0 55 -6 64 -12
16 -13 49 -81 156 -318 28 -63 87 -182 130 -265 l78 -150 49 -3 c54 -3 138 31
141 58 1 8 5 45 8 83 4 37 11 67 16 67 4 0 16 -26 25 -57 26 -90 90 -218 125
-247 29 -24 37 -26 138 -26 77 0 112 -4 127 -15 32 -22 60 -97 83 -225 46
-244 51 -262 84 -289 217 -180 348 -386 412 -646 19 -77 35 -144 35 -149 0 -5
-20 10 -45 33 -24 22 -49 41 -55 41 -5 0 -55 45 -110 101 -88 87 -105 100
-126 95 -23 -6 -24 -5 -14 14 10 19 7 26 -25 56 -51 48 -91 47 -111 -2 -10
-24 -13 -50 -9 -75 7 -42 73 -183 107 -232 20 -28 22 -29 29 -11 6 15 8 11 8
-14 1 -18 13 -60 27 -94 31 -74 26 -98 -23 -122 -93 -44 -182 -31 -386 58
-134 59 -235 90 -260 81 -8 -4 -19 -16 -25 -28 -41 -82 8 -142 206 -245 127
-67 227 -140 252 -184 27 -48 13 -51 -197 -39 -104 6 -232 11 -286 11 l-96 0
-16 -30 c-21 -41 -19 -64 10 -98 32 -38 100 -57 280 -77 232 -27 355 -60 355
-95 0 -25 -32 -35 -218 -69 -186 -34 -246 -58 -270 -107 -13 -29 -14 -37 -2
-60 19 -35 82 -65 139 -67 25 -1 82 4 126 11 44 7 141 15 215 18 206 8 210 -9
32 -121 -175 -110 -235 -183 -198 -239 14 -23 14 -24 -15 -36 -17 -7 -74 -42
-127 -76 -53 -35 -99 -64 -103 -64 -15 0 -263 226 -401 366 -160 163 -261 277
-384 436 -99 127 -232 317 -268 381 -14 27 -42 71 -61 100 -19 28 -35 56 -35
60 0 5 -13 29 -30 54 -16 24 -30 47 -30 50 0 3 -14 28 -30 55 -36 57 -41 45
65 158 147 158 254 355 306 564 29 116 37 369 15 492 -83 478 -433 873 -905
1020 l-91 28 0 116 c1 693 138 1362 412 2008 l60 142 102 0 c420 0 842 224
1080 574 214 313 275 714 165 1072 -11 36 -19 69 -17 73 5 13 111 99 238 193
471 350 1024 624 1579 784 84 24 159 44 166 44 7 0 39 -37 71 -82 71 -103 224
-256 325 -325 156 -107 324 -178 519 -220 117 -24 399 -25 522 0 183 37 366
114 520 219 119 81 267 230 342 345 l59 90 60 -14 c34 -7 115 -29 181 -48z
m-5604 -239 c526 -101 923 -499 1006 -1006 23 -134 14 -332 -20 -463 -140
-542 -648 -927 -1226 -927 -567 0 -1074 375 -1218 900 -63 228 -52 492 29 710
160 429 561 741 1030 800 96 12 304 5 399 -14z m9092 -117 c255 -51 479 -170
654 -349 174 -177 279 -370 329 -606 22 -99 25 -321 6 -424 -92 -512 -504
-906 -1040 -995 -123 -21 -353 -17 -466 8 -257 57 -474 174 -650 351 -175 176
-290 393 -330 624 -19 110 -19 317 0 420 92 482 481 870 976 971 164 34 352
34 521 0z m-4412 -1064 c-30 -17 -40 -18 -40 -6 0 10 22 18 50 19 8 1 4 -5
-10 -13z m-55 -24 c3 -5 2 -12 -3 -15 -5 -3 -9 1 -9 9 0 17 3 19 12 6z m135 5
c0 -2 -8 -10 -17 -17 -16 -13 -17 -12 -4 4 13 16 21 21 21 13z m-67 -43 c3 -5
-8 -8 -25 -9 -20 -1 -25 2 -16 7 16 11 35 11 41 2z m-158 -13 c-3 -5 -12 -10
-18 -10 -7 0 -6 4 3 10 19 12 23 12 15 0z m0 -50 c3 -5 -1 -10 -10 -10 -9 0
-13 5 -10 10 3 6 8 10 10 10 2 0 7 -4 10 -10z m1030 -420 c96 -16 112 -26 152
-97 28 -51 37 -79 41 -132 6 -82 2 -101 -99 -476 -93 -347 -136 -492 -149
-500 -13 -8 -54 50 -90 130 -53 119 -217 538 -235 601 -10 36 -19 113 -22 199
-4 129 -3 143 16 173 12 18 31 37 44 43 12 5 36 17 52 26 72 40 175 52 290 33z
m1722 -180 c-1 -22 -18 -22 -25 0 -3 7 0 10 7 6 6 -4 11 -2 11 3 0 6 2 11 4
11 3 0 4 -9 3 -20z m64 -37 c13 -16 12 -17 -3 -4 -10 7 -18 15 -18 17 0 8 8 3
21 -13z m-3855 -48 c110 -31 156 -50 214 -89 70 -46 100 -81 101 -118 3 -93
-19 -204 -42 -219 -7 -4 -36 1 -63 12 -73 27 -78 24 -21 -14 59 -38 69 -73 20
-70 -27 2 -28 1 -10 -9 21 -12 35 -28 35 -40 0 -5 -32 -8 -72 -8 -76 0 -80 -9
-15 -30 49 -15 80 -50 133 -150 39 -72 41 -80 23 -80 -11 0 -86 -14 -167 -30
-91 -19 -179 -31 -232 -32 -86 0 -164 14 -175 33 -4 5 -25 21 -46 35 -22 14
-98 82 -169 151 -71 70 -133 129 -137 133 -26 19 -76 81 -70 86 3 4 20 -4 36
-17 16 -13 41 -32 56 -42 14 -10 22 -23 19 -29 -4 -6 -3 -8 3 -5 6 4 41 -14
79 -38 75 -50 160 -85 202 -85 20 1 10 7 -33 22 -33 11 -72 29 -87 39 -14 11
-29 19 -32 19 -3 0 -46 30 -95 68 -50 37 -102 75 -116 85 -25 18 -29 37 -9 44
6 2 52 -24 104 -58 103 -66 209 -123 216 -116 5 4 -61 46 -74 48 -20 2 -187
127 -190 142 -6 28 22 20 110 -35 112 -69 188 -111 194 -106 2 3 -48 38 -111
79 -63 40 -117 80 -120 87 -7 19 6 39 62 97 26 28 64 71 83 95 128 164 216
196 396 145z m3814 15 c0 -5 -5 -10 -11 -10 -5 0 -7 5 -4 10 3 6 8 10 11 10 2
0 4 -4 4 -10z m15 -29 c-3 -11 -1 -22 5 -26 5 -3 10 -11 10 -18 0 -6 -7 -2
-15 10 -8 12 -12 28 -9 37 9 23 17 20 9 -3z m95 -53 c0 -6 -6 -5 -15 2 -8 7
-15 14 -15 16 0 2 7 1 15 -2 8 -4 15 -11 15 -16z m10 -60 c0 -4 -9 -8 -20 -8
-11 0 -20 4 -20 8 0 4 9 8 20 8 11 0 20 -4 20 -8z m-5057 -82 c192 -78 268
-135 607 -460 58 -56 126 -117 150 -136 25 -19 52 -41 60 -49 45 -44 209 -55
385 -26 50 8 101 15 113 15 17 0 54 -29 120 -93 92 -88 100 -94 157 -105 46
-9 72 -22 109 -52 43 -36 54 -40 103 -40 59 0 118 -22 127 -47 8 -21 -2 -53
-17 -53 -7 0 -48 -4 -92 -10 -44 -5 -140 -14 -214 -20 -74 -5 -155 -13 -180
-16 l-46 -6 3 -146 c3 -198 -5 -223 -53 -169 -20 23 -21 23 -215 17 -107 -3
-203 -4 -212 -2 -18 4 -30 62 -45 222 l-8 85 -183 -2 c-171 -2 -337 -19 -423
-43 -31 -9 -40 -19 -60 -63 -19 -44 -24 -72 -26 -177 -4 -186 -3 -169 -12
-145 -17 40 -52 49 -168 41 -127 -8 -194 -18 -362 -53 l-123 -27 6 -95 c25
-348 175 -873 310 -1084 79 -125 247 -197 456 -197 176 0 310 53 483 189 l61
49 76 -58 c41 -31 102 -72 135 -91 l60 -34 211 -3 210 -4 100 37 c54 21 101
41 104 45 3 4 21 15 40 25 36 18 193 134 198 147 2 4 19 17 38 29 34 20 36 21
48 3 8 -10 19 -57 26 -105 10 -77 14 -88 36 -98 14 -6 35 -11 48 -11 22 0 23
-4 29 -91 4 -59 12 -100 22 -116 18 -27 79 -58 138 -68 47 -9 57 -28 57 -106
0 -62 17 -99 45 -99 6 0 42 -10 79 -21 66 -21 69 -21 154 -4 l87 17 105 -27
c58 -14 140 -38 182 -52 99 -33 106 -49 49 -107 -27 -27 -47 -61 -56 -91 -20
-63 -19 -139 0 -159 29 -28 18 -62 -30 -97 -52 -37 -62 -68 -47 -147 7 -41 6
-62 -8 -102 -9 -28 -19 -53 -22 -56 -3 -2 -28 -7 -56 -11 l-51 -6 -42 -81
c-52 -100 -94 -178 -111 -206 -7 -12 -33 -32 -58 -45 -84 -43 -154 -124 -246
-286 -89 -158 -118 -195 -180 -225 -31 -15 -69 -38 -83 -50 -49 -41 -101 -55
-251 -65 -79 -6 -159 -17 -176 -24 -21 -9 -54 -42 -91 -92 -75 -101 -113 -139
-166 -163 -66 -30 -190 -155 -212 -215 -10 -27 -27 -62 -37 -77 -18 -26 -24
-28 -91 -28 -71 0 -73 -1 -162 -60 -55 -37 -100 -60 -117 -60 -31 0 -62 29
-116 110 -52 77 -205 228 -281 278 -35 23 -67 42 -72 42 -16 0 -145 137 -185
196 -22 32 -63 91 -92 131 -49 67 -57 74 -110 89 -191 56 -183 42 -317 528
-45 163 -87 259 -158 366 -76 114 -118 163 -221 257 -55 51 -64 74 -111 294
-19 89 -45 183 -57 208 -30 61 -63 72 -183 65 -81 -6 -93 -4 -116 14 -36 29
-83 122 -115 230 -29 98 -39 108 -95 100 -23 -3 -24 -5 -21 -94 3 -89 2 -92
-24 -113 -40 -32 -72 -27 -114 18 -44 46 -144 241 -247 481 -41 96 -84 185
-95 197 -12 13 -47 30 -79 39 -87 25 -96 39 -120 195 -26 168 -39 630 -20 715
27 120 76 216 216 424 77 114 211 299 229 315 6 6 29 33 51 60 70 88 287 295
309 295 4 0 22 10 39 23 43 30 53 36 197 116 248 139 543 251 750 284 14 2 82
5 153 6 123 1 130 0 210 -33z m1538 -147 c46 -23 134 -80 165 -106 46 -38 79
-149 63 -208 -22 -80 -131 -153 -208 -140 -43 7 -106 48 -135 88 -18 24 -21
42 -20 110 1 79 14 134 58 240 19 43 23 44 77 16z m4450 -157 c11 -12 19 -127
9 -141 -7 -13 -11 -13 -25 -1 -14 12 -105 180 -105 194 0 6 112 -43 121 -52z
m233 -57 c27 -6 28 -8 22 -47 -14 -89 -42 -96 -65 -16 -7 24 -14 51 -17 60 -5
17 -5 17 60 3z m288 -143 c225 -554 347 -1131 365 -1723 l6 -206 -90 -6 c-307
-22 -616 -163 -838 -382 -188 -186 -323 -446 -366 -704 -14 -85 -14 -297 0
-382 29 -174 112 -380 213 -526 93 -135 284 -310 411 -378 20 -11 37 -24 37
-29 0 -24 -188 -325 -303 -486 -72 -100 -223 -292 -292 -370 -125 -142 -417
-432 -551 -547 l-53 -45 -87 65 c-163 122 -367 211 -579 253 -123 24 -368 25
-490 1 -144 -28 -246 -63 -372 -127 -441 -222 -711 -645 -716 -1122 l-2 -126
-135 -21 c-187 -29 -272 -39 -444 -52 -194 -15 -714 -6 -896 15 -125 15 -442
64 -446 69 -1 1 -7 58 -13 126 -38 407 -237 741 -576 966 -197 130 -428 207
-670 222 -93 6 -97 7 -55 16 165 32 298 94 366 171 58 65 141 234 150 304 5
43 3 56 -12 74 -11 12 -13 18 -5 13 7 -4 16 -3 20 4 14 21 -9 168 -38 251 -35
98 -30 94 74 -62 66 -98 126 -153 234 -216 122 -69 209 -157 303 -303 31 -48
66 -94 79 -103 32 -22 71 -20 104 6 26 20 28 20 37 4 9 -16 12 -16 34 5 13 13
39 45 56 72 l31 49 88 -7 c106 -8 118 -1 149 104 18 63 26 74 65 101 24 17 51
39 58 51 8 11 50 43 93 72 66 43 89 66 137 137 32 47 62 91 66 99 7 11 61 19
205 33 196 18 266 34 266 61 0 8 31 31 70 51 87 46 119 85 171 210 32 76 53
111 85 141 23 22 51 59 63 82 23 46 46 63 85 63 32 0 89 49 111 98 10 20 33
71 52 112 49 106 47 103 84 128 57 39 71 29 95 -70 12 -47 32 -108 45 -135
l24 -48 92 -9 c50 -5 99 -6 108 -2 9 3 47 71 85 150 100 212 200 381 242 411
12 8 44 22 70 31 65 21 104 70 178 223 33 69 75 155 93 191 l33 65 116 31 c64
16 123 36 132 43 8 7 30 59 48 114 l32 102 122 120 c135 134 164 179 171 269
6 84 16 104 78 165 30 30 69 76 86 103 l32 49 -21 94 c-30 127 -28 157 9 224
22 37 32 68 31 96 -1 88 6 104 56 136 97 61 294 102 445 92 111 -7 284 11 371
37 75 24 150 85 177 145 14 30 19 65 19 145 0 117 -9 161 -44 213 l-24 36 38
-14 c109 -39 293 -26 398 27 77 39 168 132 208 215 27 54 29 66 29 183 0 69
-4 184 -9 256 l-9 131 29 -4 c27 -4 33 -14 76 -121z m-117 -382 c3 -5 1 -10
-4 -10 -6 0 -11 5 -11 10 0 6 2 10 4 10 3 0 8 -4 11 -10z m-3015 -40 c81 -41
204 -184 248 -287 27 -63 45 -190 36 -253 -9 -67 -43 -113 -106 -146 -16 -8
-28 -21 -28 -30 0 -8 13 -60 30 -115 57 -191 61 -347 12 -459 -27 -63 -129
-196 -204 -266 -43 -40 -99 -77 -172 -114 l-107 -55 -117 0 c-134 0 -162 9
-240 81 -41 38 -49 42 -61 29 -8 -8 -21 -38 -28 -67 -15 -57 -33 -82 -75 -104
-34 -18 -191 -41 -335 -50 l-111 -7 -10 39 c-5 22 -17 82 -27 134 -28 148 -37
157 -88 83 -81 -120 -243 -247 -378 -297 -319 -119 -645 -46 -774 172 -14 23
-27 32 -46 32 -22 0 -33 -11 -68 -69 -103 -174 -264 -237 -542 -214 -186 16
-248 45 -333 153 -77 98 -111 180 -201 490 -59 203 -93 358 -105 475 -14 156
-13 183 8 194 26 14 312 60 419 67 l91 7 22 -44 c27 -52 35 -59 77 -59 27 0
32 4 38 31 4 17 4 70 0 117 -7 96 7 213 31 249 17 26 57 38 179 53 156 19 387
39 400 34 16 -6 25 -73 25 -179 0 -45 5 -97 11 -114 l12 -33 116 9 c64 4 157
8 208 8 86 0 93 -2 120 -27 31 -29 71 -36 91 -16 8 8 12 57 12 154 0 156 7
191 42 198 51 9 377 36 440 36 63 0 68 -2 74 -25 12 -47 28 -48 78 -7 44 36
52 39 149 50 126 15 411 16 438 2 10 -6 19 -20 19 -31 0 -32 28 -89 44 -89 8
0 34 20 57 45 63 67 295 196 418 231 64 19 157 12 211 -16z m2091 -27 c13 -16
12 -17 -3 -4 -17 13 -22 21 -14 21 2 0 10 -8 17 -17z m512 -13 c-3 -12 -8 -19
-11 -16 -5 6 5 36 12 36 2 0 2 -9 -1 -20z m244 -2 c-3 -8 -6 -5 -6 6 -1 11 2
17 5 13 3 -3 4 -12 1 -19z m-70 -30 c-3 -8 -6 -5 -6 6 -1 11 2 17 5 13 3 -3 4
-12 1 -19z m-450 -10 c-3 -8 -6 -5 -6 6 -1 11 2 17 5 13 3 -3 4 -12 1 -19z
m100 -20 c-3 -8 -6 -5 -6 6 -1 11 2 17 5 13 3 -3 4 -12 1 -19z m350 -90 c-3
-8 -6 -5 -6 6 -1 11 2 17 5 13 3 -3 4 -12 1 -19z m-2157 -92 c5 -16 7 -17 19
-2 20 23 61 21 61 -4 0 -26 -36 -46 -56 -29 -11 9 -14 8 -14 -9 0 -32 -21 -38
-41 -11 -19 24 -19 24 -19 -49 0 -41 5 -81 13 -92 15 -25 -2 -40 -48 -40 -46
0 -63 15 -47 40 7 11 12 51 12 92 l0 73 -20 -25 c-16 -20 -22 -22 -29 -11 -8
12 -1 57 12 78 3 4 38 8 78 7 60 0 74 -4 79 -18z m670 4 c0 -12 -10 -25 -25
-32 -31 -14 -38 -8 -29 26 8 33 54 38 54 6z m-360 -10 c0 -29 -38 -46 -58 -26
-13 12 -13 18 -2 30 19 24 60 21 60 -4z m-218 -120 c1 -38 2 -78 2 -87 1 -21
-49 -30 -74 -13 -12 8 -13 13 -2 30 6 11 12 35 12 53 0 18 -6 39 -12 46 -11
10 -9 15 6 27 11 8 30 14 43 14 22 0 23 -4 25 -70z m138 60 c0 -5 -9 -33 -20
-61 -22 -54 -20 -70 4 -50 11 10 16 8 24 -6 9 -16 11 -14 18 11 4 17 2 43 -5
60 -9 26 -9 33 6 44 9 6 25 12 35 12 15 0 18 -9 18 -58 0 -64 22 -113 36 -79
3 10 4 42 0 72 -5 43 -3 54 10 59 26 10 54 7 54 -6 0 -9 3 -9 12 0 15 15 55
16 63 2 5 -8 11 -7 20 0 8 6 24 10 37 8 21 -3 24 -9 30 -83 3 -44 3 -84 -2
-88 -4 -5 -18 -7 -31 -5 -21 3 -24 8 -22 43 3 51 -4 85 -18 85 -7 0 -10 -22
-8 -62 l4 -63 -35 0 -35 0 4 63 c2 39 -1 62 -8 62 -5 0 -11 -27 -13 -62 l-3
-63 -73 -1 c-50 -1 -77 3 -86 12 -12 11 -15 11 -20 -1 -6 -17 -108 -14 -114 3
-2 6 7 34 19 62 12 28 18 54 14 58 -4 4 -10 1 -12 -5 -5 -14 -33 -18 -33 -5 0
4 3 17 6 30 6 20 13 22 65 22 33 0 59 -4 59 -10z m430 -49 c0 -61 6 -91 20
-91 14 0 21 67 10 95 -9 23 -7 30 7 41 23 17 50 18 57 2 5 -10 7 -10 12 0 3 6
16 12 29 12 34 0 42 -18 46 -100 l4 -75 -32 -3 -33 -3 0 65 c0 37 -4 66 -10
66 -11 0 -13 -13 -14 -80 l-1 -45 -79 0 -80 0 0 78 c-1 82 6 96 47 97 14 0 17
-9 17 -59z m997 19 c4 -12 3 -13 -5 -1 -6 8 -19 12 -31 8 -12 -3 -19 -1 -15 5
9 14 47 5 51 -12z m-76 -37 c-12 -20 -14 -14 -5 12 4 9 9 14 11 11 3 -2 0 -13
-6 -23z m94 7 c3 -5 1 -10 -4 -10 -6 0 -11 5 -11 10 0 6 2 10 4 10 3 0 8 -4
11 -10z m-109 -57 c-10 -10 -19 5 -10 18 6 11 8 11 12 0 2 -7 1 -15 -2 -18z
m41 -5 c-3 -8 -6 -5 -6 6 -1 11 2 17 5 13 3 -3 4 -12 1 -19z m33 -107 c0 -5
-8 -15 -17 -22 -16 -12 -17 -12 -6 2 7 9 10 19 6 22 -3 4 -1 7 5 7 7 0 12 -4
12 -9z m1518 -1026 c251 -49 471 -165 653 -345 111 -110 169 -189 232 -315 92
-185 122 -315 121 -530 0 -133 -4 -176 -23 -254 -115 -468 -473 -812 -956
-922 -131 -29 -405 -32 -530 -5 -452 99 -808 405 -945 814 -80 240 -80 504 0
744 111 330 378 608 712 742 94 38 220 71 323 85 95 13 311 6 413 -14z
m-10407 -60 c318 -53 614 -233 805 -491 442 -596 232 -1429 -447 -1769 -189
-94 -363 -135 -578 -135 -157 0 -285 20 -421 67 -130 44 -190 74 -311 155
-178 119 -322 288 -419 491 -70 145 -100 270 -107 438 -9 219 25 388 117 571
66 132 127 215 235 323 290 290 705 419 1126 350z m2729 -1956 c0 -6 -4 -7
-10 -4 -5 3 -10 11 -10 16 0 6 5 7 10 4 6 -3 10 -11 10 -16z m-110 -39 c0 -5
-5 -10 -11 -10 -5 0 -7 5 -4 10 3 6 8 10 11 10 2 0 4 -4 4 -10z m235 -110 c-3
-5 -11 -10 -16 -10 -6 0 -7 5 -4 10 3 6 11 10 16 10 6 0 7 -4 4 -10z m-75 -24
c0 -2 -7 -6 -15 -10 -8 -3 -15 -1 -15 4 0 6 7 10 15 10 8 0 15 -2 15 -4z m137
-62 c-3 -3 -12 -4 -19 -1 -8 3 -5 6 6 6 11 1 17 -2 13 -5z m13 -144 c-8 -5
-22 -9 -30 -9 -10 0 -8 3 5 9 27 12 43 12 25 0z m20 -94 c0 -2 -9 -6 -20 -9
-11 -3 -18 -1 -14 4 5 9 34 13 34 5z m20 -46 c-8 -5 -19 -10 -25 -10 -5 0 -3
5 5 10 8 5 20 10 25 10 6 0 3 -5 -5 -10z m125 -60 c-11 -5 -27 -9 -35 -9 -9 0
-8 4 5 9 11 5 27 9 35 9 9 0 8 -4 -5 -9z m50 -135 c-16 -8 -37 -14 -45 -14 -8
0 1 7 20 14 46 18 64 17 25 0z m-100 -35 c-3 -5 -11 -10 -16 -10 -6 0 -7 5 -4
10 3 6 11 10 16 10 6 0 7 -4 4 -10z m165 -44 c0 -2 -7 -6 -15 -10 -8 -3 -15
-1 -15 4 0 6 7 10 15 10 8 0 15 -2 15 -4z m4403 -701 c386 -67 724 -309 900
-644 310 -588 73 -1302 -535 -1614 -343 -176 -783 -184 -1137 -21 -288 132
-532 394 -641 687 -86 233 -92 531 -13 766 142 424 517 743 969 825 107 19
349 20 457 1z m-4579 -71 c334 -64 638 -263 822 -540 196 -294 246 -661 138
-1005 -128 -410 -491 -726 -944 -825 -120 -26 -400 -26 -520 0 -247 54 -455
164 -631 333 -372 359 -473 894 -254 1351 187 391 570 656 1015 703 97 10 273
2 374 -17z"/>
<path d="M6775 13106 c-5 -3 -45 -7 -87 -11 -66 -6 -76 -9 -71 -23 6 -14 4
-15 -8 -5 -16 13 -69 6 -69 -9 0 -5 -4 -7 -10 -3 -17 10 -62 -6 -56 -22 4 -10
2 -12 -11 -5 -18 11 -96 -15 -87 -29 3 -5 -3 -6 -12 -2 -13 5 -16 2 -11 -9 4
-11 1 -14 -12 -11 -25 6 -161 -68 -161 -89 0 -5 9 -6 20 -3 15 5 20 2 19 -12
0 -10 -3 -13 -6 -5 -2 6 -9 9 -14 6 -6 -3 -15 -1 -22 5 -9 7 -28 -4 -70 -41
-44 -39 -55 -53 -45 -61 9 -6 8 -7 -5 -3 -13 4 -30 -7 -57 -37 -22 -23 -40
-48 -40 -55 0 -7 -4 -11 -9 -7 -5 3 -13 0 -17 -6 -3 -6 0 -15 7 -20 7 -4 10
-11 6 -16 -5 -4 -12 -1 -17 7 -8 13 -11 12 -24 -5 -8 -11 -12 -23 -10 -27 3
-5 0 -8 -6 -8 -6 0 -9 -4 -6 -9 3 -5 -1 -12 -10 -15 -9 -4 -14 -13 -10 -21 3
-9 0 -15 -7 -15 -18 0 -98 -165 -100 -206 -1 -18 -6 -32 -11 -31 -21 4 -57
-211 -56 -332 2 -133 39 -341 60 -341 5 0 8 -8 7 -18 -2 -28 37 -113 49 -108
8 3 10 -3 6 -16 -3 -14 -1 -19 5 -15 7 5 9 0 6 -13 -3 -11 0 -20 6 -20 6 0 10
-6 9 -12 -2 -7 3 -12 10 -10 8 1 11 -2 7 -8 -10 -16 6 -34 17 -19 7 10 8 9 4
-6 -3 -12 4 -31 19 -50 14 -16 25 -25 25 -19 0 5 -5 15 -12 22 -8 8 -8 12 -1
12 13 0 25 -28 18 -41 -7 -11 29 -54 124 -146 65 -63 78 -71 105 -68 26 4 27
4 6 -3 l-24 -8 34 -24 c19 -14 41 -23 48 -22 8 2 11 -1 8 -7 -4 -6 5 -13 19
-17 14 -3 25 -10 25 -15 0 -4 9 -13 20 -19 15 -8 20 -8 18 1 -2 6 8 13 21 14
22 2 23 1 6 -11 -22 -16 -25 -14 50 -46 198 -85 416 -116 622 -87 43 6 83 15
89 20 7 5 16 9 20 8 22 -5 85 15 94 30 5 9 10 11 10 4 0 -15 19 -9 122 39 55
25 66 34 57 44 -17 21 -34 17 -18 -3 11 -15 11 -16 0 -6 -7 6 -21 9 -30 6 -9
-3 -6 2 6 11 20 15 25 15 46 2 21 -14 25 -14 48 1 37 26 49 40 41 48 -4 5 -1
5 6 1 8 -5 27 3 47 18 18 14 37 26 42 26 10 0 38 43 32 50 -2 3 -8 4 -12 2 -5
-1 -6 2 -2 8 5 8 11 8 21 -1 11 -9 26 1 73 49 33 34 65 71 72 84 6 13 18 27
25 31 8 4 14 14 14 22 0 8 11 26 25 41 14 15 25 38 25 51 0 17 4 22 13 16 6
-4 3 6 -7 22 -19 30 -19 30 1 12 19 -16 20 -16 30 5 39 82 45 100 34 111 -6 6
-11 18 -11 26 0 12 3 11 13 -3 12 -16 14 -14 25 21 33 105 46 203 46 341 1 85
-3 146 -10 150 -5 4 -10 18 -11 32 -1 14 -4 36 -6 50 -2 14 -5 31 -6 38 0 6
-6 12 -12 12 -7 0 -10 -12 -7 -29 2 -17 1 -28 -4 -25 -11 7 -10 42 3 65 8 16
5 29 -15 65 -14 24 -21 42 -15 39 14 -9 10 7 -12 40 -10 17 -21 37 -25 45 -3
8 -10 24 -15 35 -8 17 -8 16 -4 -5 5 -21 4 -22 -5 -8 -6 10 -10 24 -8 30 2 11
-25 62 -42 78 -3 3 -25 31 -49 63 -39 51 -71 70 -63 38 1 -7 -2 -9 -8 -6 -8 5
-6 13 4 24 15 16 14 19 -8 30 -13 7 -29 23 -35 35 -7 11 -57 54 -112 94 -77
56 -105 72 -122 67 -17 -5 -18 -4 -7 4 11 7 -4 18 -65 47 -44 20 -84 36 -90
36 -5 0 -37 -3 -69 -6 -35 -3 -55 -1 -50 4 5 5 29 10 54 12 44 3 43 3 -42 25
-48 13 -94 20 -102 17 -9 -4 -22 -1 -29 5 -13 10 -222 25 -242 17z m-60 -26
c-3 -5 -16 -10 -28 -9 -21 0 -21 1 -2 9 28 12 37 12 30 0z m-65 -20 c-12 -8
-10 -10 10 -11 14 0 19 -3 12 -6 -18 -7 -44 5 -37 17 3 5 12 10 18 10 7 0 6
-4 -3 -10z m470 0 c13 -9 13 -10 0 -9 -8 1 -26 5 -40 9 l-25 8 25 1 c14 0 32
-4 40 -9z m-145 -20 c3 -5 1 -10 -4 -10 -6 0 -11 5 -11 10 0 6 2 10 4 10 3 0
8 -4 11 -10z m117 -12 c-9 -9 -15 -9 -24 0 -9 9 -7 12 12 12 19 0 21 -3 12
-12z m269 -56 c17 -15 19 -21 9 -27 -9 -5 -11 -4 -6 3 12 19 -37 36 -63 23
-12 -7 -21 -8 -21 -2 0 9 19 17 46 20 7 0 22 -7 35 -17z m-966 -20 c-3 -3 -11
0 -18 7 -9 10 -8 11 6 5 10 -3 15 -9 12 -12z m922 -8 c-3 -3 -12 -4 -19 -1 -8
3 -5 6 6 6 11 1 17 -2 13 -5z m-807 -14 c11 17 13 10 4 -14 -7 -19 -34 -9 -34
13 0 14 2 14 10 1 9 -13 11 -13 20 0z m485 -5 c124 -29 191 -48 201 -56 7 -6
31 -11 54 -12 23 -1 37 -3 31 -5 -6 -2 -9 -8 -5 -13 3 -5 13 -5 24 1 16 9 18
8 13 -6 -4 -12 -3 -15 5 -10 7 4 12 3 12 -3 0 -6 11 -13 25 -17 14 -3 25 -10
25 -14 0 -5 21 -22 48 -38 51 -32 150 -124 200 -187 33 -41 45 -33 16 10 -9
14 -12 25 -8 25 12 0 37 -57 30 -69 -7 -11 59 -123 68 -114 11 11 6 24 -6 17
-10 -6 -10 -4 -2 7 6 8 14 21 17 29 6 16 2 -48 -4 -65 -6 -15 22 -78 43 -96
20 -18 25 -34 6 -23 -8 5 -9 2 -5 -11 32 -82 58 -310 45 -390 -24 -150 -50
-240 -93 -325 -13 -26 -22 -49 -20 -52 2 -2 -11 -23 -30 -47 -33 -42 -38 -62
-21 -89 4 -7 4 -12 -1 -11 -4 1 -12 0 -18 -1 -5 -2 -19 -3 -30 -4 -13 -1 -19
-8 -19 -18 1 -10 -2 -16 -6 -13 -11 7 -62 -44 -55 -55 4 -6 3 -10 -2 -9 -4 1
-14 1 -22 0 -11 -1 -11 -4 0 -18 10 -12 10 -15 1 -9 -7 4 -21 4 -33 1 -16 -5
-18 -9 -8 -21 6 -8 18 -13 25 -12 7 2 12 -1 11 -7 -3 -14 -36 -13 -48 1 -9 11
-15 10 -35 -2 -13 -9 -21 -21 -17 -27 3 -5 1 -7 -4 -4 -6 4 -29 -3 -52 -16
-31 -18 -38 -26 -29 -35 9 -9 6 -10 -13 -7 -23 5 -109 -24 -109 -36 0 -4 13
-12 30 -19 16 -7 27 -17 24 -22 -4 -6 -10 -5 -15 3 -8 12 -11 11 -20 -1 -9
-13 -10 -12 -5 3 4 13 0 17 -22 17 -22 0 -24 2 -12 11 12 9 11 10 -5 4 -124
-41 -290 -58 -432 -43 -123 13 -136 15 -167 27 -23 9 -32 9 -46 -4 -23 -21
-47 -21 -30 0 7 8 16 12 21 9 5 -3 9 0 9 5 0 6 -6 11 -14 11 -7 0 -39 12 -70
26 -51 23 -62 25 -99 15 -42 -10 -65 -2 -53 18 4 6 13 11 19 11 7 0 6 -4 -3
-10 -8 -5 -11 -12 -7 -16 4 -4 12 -3 18 3 6 6 17 9 24 7 7 -3 16 0 21 7 4 8 3
10 -4 5 -7 -4 -12 -3 -12 3 0 6 -11 13 -25 17 -14 3 -25 10 -25 15 0 4 -20 20
-43 34 -41 23 -126 106 -190 184 -27 32 -29 33 -43 15 -13 -18 -13 -17 -3 7 9
22 6 33 -24 82 -18 31 -37 54 -40 50 -10 -9 -9 -25 1 -19 5 3 9 -1 9 -9 0 -10
-4 -12 -12 -5 -7 5 -14 8 -16 6 -2 -2 -5 7 -6 21 0 16 2 21 7 14 6 -10 8 -10
12 1 5 14 -35 122 -43 114 -2 -2 -5 12 -6 31 -1 20 -6 39 -10 42 -5 3 -9 18
-10 34 -1 15 -4 41 -6 57 -2 17 -5 76 -7 133 l-4 102 -6 -85 -6 -85 -2 81 c-1
57 2 86 13 100 8 10 15 33 15 50 0 17 7 54 15 82 9 29 13 58 9 65 -4 6 -3 9 1
4 10 -8 47 82 39 95 -3 4 -1 8 4 8 11 0 38 61 34 75 -2 5 0 7 4 3 12 -12 43
45 32 59 -6 7 -5 14 3 19 8 4 9 3 5 -4 -15 -25 11 -10 32 17 11 16 46 56 77
89 32 35 50 62 43 64 -8 3 -6 7 6 11 10 4 15 3 11 -3 -11 -18 7 -10 39 17 17
14 30 30 28 35 -1 5 2 7 7 4 6 -4 34 9 63 27 29 19 64 38 77 42 15 5 19 10 12
14 -7 4 3 8 21 8 17 0 34 5 36 11 2 6 10 8 19 5 12 -5 14 -3 8 7 -6 10 -4 12
7 8 8 -4 46 3 84 14 95 28 323 41 399 23z m142 8 c-4 -3 -22 -7 -39 -9 -26 -2
-29 -1 -13 6 24 10 61 13 52 3z m323 -13 c0 -5 -2 -10 -4 -10 -3 0 -8 5 -11
10 -3 6 -1 10 4 10 6 0 11 -4 11 -10z m10 -34 c0 -2 -7 -7 -16 -10 -8 -3 -12
-2 -9 4 6 10 25 14 25 6z m-1103 -32 c-3 -3 -12 -4 -19 -1 -8 3 -5 6 6 6 11 1
17 -2 13 -5z m997 -12 c3 -5 -1 -9 -9 -9 -8 0 -12 4 -9 9 3 4 7 8 9 8 2 0 6
-4 9 -8z m186 -7 c7 -9 8 -15 2 -15 -5 0 -12 7 -16 15 -3 8 -4 15 -2 15 2 0 9
-7 16 -15z m60 -45 c0 -6 -9 -2 -20 7 -11 10 -20 19 -20 21 0 1 9 -2 20 -8 11
-6 20 -15 20 -20z m-1460 16 c0 -3 -4 -8 -10 -11 -5 -3 -10 -1 -10 4 0 6 5 11
10 11 6 0 10 -2 10 -4z m1340 -41 c17 11 32 -5 19 -21 -9 -11 -13 -11 -26 2
-9 8 -21 13 -28 11 -6 -3 -12 1 -12 8 0 10 5 11 19 4 10 -5 23 -7 28 -4z
m-1274 -13 c0 -11 -9 -18 -26 -19 l-25 -1 24 19 c28 23 27 23 27 1z m34 4 c0
-3 -4 -8 -10 -11 -5 -3 -10 -1 -10 4 0 6 5 11 10 11 6 0 10 -2 10 -4z m1379
-46 c0 -9 -6 -4 -14 10 -19 33 -19 49 0 24 8 -10 14 -26 14 -34z m-1579 9 c0
-14 -17 -10 -23 5 -4 10 -1 13 9 9 7 -3 14 -9 14 -14z m-48 -11 c-7 -7 -12 -8
-12 -2 0 14 12 26 19 19 2 -3 -1 -11 -7 -17z m1668 7 c-7 -9 -15 -13 -17 -11
-7 7 7 26 19 26 6 0 6 -6 -2 -15z m-1505 -33 c-3 -3 -11 0 -18 7 -9 10 -8 11
6 5 10 -3 15 -9 12 -12z m1422 1 c-15 -16 -15 -18 0 -35 25 -28 10 -21 -17 7
l-23 25 24 9 c34 14 35 13 16 -6z m-1487 -14 c0 -6 -4 -7 -10 -4 -5 3 -10 11
-10 16 0 6 5 7 10 4 6 -3 10 -11 10 -16z m1622 -24 c4 -20 3 -23 -8 -14 -16
13 -19 39 -5 39 5 0 11 -11 13 -25z m38 -6 c0 -5 -4 -9 -10 -9 -5 0 -10 7 -10
16 0 8 5 12 10 9 6 -3 10 -10 10 -16z m-1780 -4 c0 -8 -4 -15 -10 -15 -5 0 -7
7 -4 15 4 8 8 15 10 15 2 0 4 -7 4 -15z m-60 -35 c0 -11 -4 -20 -9 -20 -5 0
-7 9 -4 20 3 11 7 20 9 20 2 0 4 -9 4 -20z m117 14 c-3 -3 -12 -4 -19 -1 -8 3
-5 6 6 6 11 1 17 -2 13 -5z m1741 -25 c-3 -8 -7 -3 -11 10 -4 17 -3 21 5 13 5
-5 8 -16 6 -23z m-1728 -7 c0 -13 -12 -22 -22 -16 -10 6 -1 24 13 24 5 0 9 -4
9 -8z m1761 -7 c5 4 6 -1 2 -10 -5 -13 -7 -14 -14 -3 -5 7 -8 18 -8 23 0 6 3
4 6 -3 2 -6 9 -10 14 -7z m-1901 -15 c0 -4 -7 -7 -15 -6 -23 3 -26 12 -5 13
11 1 20 -2 20 -7z m1830 -46 c0 -8 -5 -12 -10 -9 -6 4 -8 11 -5 16 9 14 15 11
15 -7z m-17 -37 c-6 -10 -33 18 -33 34 0 8 7 5 19 -7 10 -10 16 -22 14 -27z
m124 -39 c-3 -7 -5 -2 -5 12 0 14 2 19 5 13 2 -7 2 -19 0 -25z m-1914 -30 c-7
-17 -9 -14 -9 16 0 27 2 32 9 20 5 -10 5 -24 0 -36z m-107 -1 c-2 -7 -5 -4 -5
6 -1 9 -6 17 -12 17 -5 0 -7 5 -3 11 9 15 28 -16 20 -34z m2055 23 c-7 -3 -9
-15 -5 -26 5 -16 4 -16 -5 -4 -10 13 -12 13 -21 0 -5 -8 -10 -11 -10 -7 0 17
33 56 42 51 7 -4 6 -9 -1 -14z m-123 -55 c-3 -3 -9 2 -12 12 -6 14 -5 15 5 6
7 -7 10 -15 7 -18z m27 -14 c-3 -6 -11 -11 -17 -11 -6 0 -6 6 2 15 14 17 26
13 15 -4z m55 -35 c0 -6 -7 -1 -15 10 -8 10 -14 26 -14 34 0 16 28 -28 29 -44z
m-11 -61 c0 -5 -4 -3 -9 5 -5 8 -9 22 -9 30 0 16 17 -16 18 -35z m-2072 -17
c-3 -8 -6 -5 -6 6 -1 11 2 17 5 13 3 -3 4 -12 1 -19z m122 -38 l-1 -25 -8 25
c-4 14 -8 32 -9 40 -1 13 0 13 9 0 5 -8 9 -26 9 -40z m-142 -27 c-3 -10 -5 -2
-5 17 0 19 2 27 5 18 2 -10 2 -26 0 -35z m2090 -15 c-3 -8 -6 -5 -6 6 -1 11 2
17 5 13 3 -3 4 -12 1 -19z m140 0 c-3 -8 -6 -5 -6 6 -1 11 2 17 5 13 3 -3 4
-12 1 -19z m-2107 -52 c0 -26 -6 -18 -14 19 -5 22 -4 26 4 15 5 -8 10 -24 10
-34z m-143 -48 c-3 -8 -6 -5 -6 6 -1 11 2 17 5 13 3 -3 4 -12 1 -19z m0 -80
c-3 -8 -6 -5 -6 6 -1 11 2 17 5 13 3 -3 4 -12 1 -19z m40 -30 c-3 -8 -6 -5 -6
6 -1 11 2 17 5 13 3 -3 4 -12 1 -19z m-10 -105 c-3 -10 -5 -2 -5 17 0 19 2 27
5 18 2 -10 2 -26 0 -35z m114 -44 c-5 -13 -10 -19 -10 -12 -1 15 10 45 15 40
3 -2 0 -15 -5 -28z m2096 -11 c-3 -8 -6 -5 -6 6 -1 11 2 17 5 13 3 -3 4 -12 1
-19z m-2230 -60 c-3 -8 -6 -5 -6 6 -1 11 2 17 5 13 3 -3 4 -12 1 -19z m152
-58 l-1 -25 -8 25 c-4 14 -8 32 -9 40 -1 13 0 13 9 0 5 -8 9 -26 9 -40z m2084
35 c-3 -9 -8 -14 -10 -11 -3 3 -2 9 2 15 9 16 15 13 8 -4z m-133 -5 c0 -5 -2
-10 -4 -10 -3 0 -8 5 -11 10 -3 6 -1 10 4 10 6 0 11 -4 11 -10z m-22 -54 c-7
-8 -15 -12 -17 -11 -5 6 10 25 20 25 5 0 4 -6 -3 -14z m-28 -66 c0 -5 -5 -10
-11 -10 -5 0 -7 5 -4 10 3 6 8 10 11 10 2 0 4 -4 4 -10z m-1989 -33 c-10 -9
-11 -8 -5 6 3 10 9 15 12 12 3 -3 0 -11 -7 -18z m2117 3 c-7 -10 -14 -18 -15
-16 -6 6 9 36 18 36 5 0 4 -9 -3 -20z m-61 -42 c-3 -7 -5 -2 -5 12 0 14 2 19
5 13 2 -7 2 -19 0 -25z m-103 -8 c-6 -6 -10 -2 -11 12 -2 16 1 18 10 9 7 -7 8
-14 1 -21z m-10 -35 c-4 -8 -8 -15 -10 -15 -2 0 -4 7 -4 15 0 8 4 15 10 15 5
0 7 -7 4 -15z m-4 -45 c12 -8 9 -10 -13 -10 -16 0 -26 4 -22 10 8 12 16 12 35
0z m-1833 -16 c-3 -3 -12 -4 -19 -1 -8 3 -5 6 6 6 11 1 17 -2 13 -5z m1888
-44 c-4 -12 -9 -19 -12 -17 -3 3 -2 15 2 27 4 12 9 19 12 17 3 -3 2 -15 -2
-27z m-1740 -29 c-6 -5 -25 10 -25 20 0 5 6 4 14 -3 8 -7 12 -15 11 -17z
m1755 1 c0 -4 -9 -13 -20 -20 -24 -15 -26 -9 -4 12 17 18 24 20 24 8z m-1803
-22 c4 -11 2 -12 -5 -2 -5 7 -16 10 -24 7 -9 -4 -18 -2 -21 2 -3 5 6 9 20 8
15 0 28 -7 30 -15z m128 -16 c20 -18 23 -22 8 -15 -12 6 -25 16 -28 21 -4 6
-11 8 -16 5 -5 -4 -9 -1 -9 4 0 17 12 13 45 -15z m-130 -14 c3 -6 -1 -7 -9 -4
-10 4 -16 1 -16 -7 0 -7 -3 -10 -6 -6 -7 7 4 27 16 27 5 0 12 -4 15 -10z m139
-29 c-2 -2 -12 3 -22 12 -10 10 -22 14 -27 10 -4 -5 -5 -2 -1 5 6 9 13 8 31
-5 13 -10 21 -20 19 -22z m1461 22 c-2 -10 -4 -19 -4 -21 -1 -2 -6 0 -11 3 -8
5 -7 11 1 21 15 18 18 18 14 -3z m-1518 -55 c-3 -7 -5 -2 -5 12 0 14 2 19 5
13 2 -7 2 -19 0 -25z m1640 17 c0 -8 -3 -13 -5 -10 -3 3 -12 -1 -21 -7 -10 -8
-9 -4 3 10 23 26 23 26 23 7z m-1521 -23 c-4 -3 -14 2 -24 12 -16 18 -16 18 6
6 13 -6 21 -14 18 -18z m-166 8 c0 -5 -4 -10 -10 -10 -5 0 -10 5 -10 10 0 6 5
10 10 10 6 0 10 -4 10 -10z m88 -85 c12 -3 22 -11 22 -16 0 -5 -10 -4 -22 3
-43 24 -67 45 -61 52 4 4 14 -2 23 -12 8 -11 25 -23 38 -27z m1317 5 c-3 -5
-16 -15 -28 -21 -21 -10 -21 -9 2 10 25 23 36 27 26 11z m-46 -3 c-2 -1 -14
-10 -26 -20 -16 -14 -23 -15 -29 -6 -4 7 -3 10 3 6 6 -4 16 0 23 8 7 8 17 15
23 15 6 0 8 -1 6 -3z m-1119 -32 c0 -8 -2 -15 -4 -15 -2 0 -6 7 -10 15 -3 8
-1 15 4 15 6 0 10 -7 10 -15z m1222 -35 c-9 -8 -25 -23 -34 -33 -10 -11 -18
-15 -18 -9 0 6 7 18 17 27 12 13 13 19 4 25 -8 4 0 7 18 6 28 -1 29 -2 13 -16z
m-1282 6 c0 -2 -7 -7 -16 -10 -8 -3 -12 -2 -9 4 6 10 25 14 25 6z m225 -6 c8
-13 -5 -13 -25 0 -13 8 -13 10 2 10 9 0 20 -4 23 -10z m845 -20 c0 -5 -2 -10
-4 -10 -3 0 -8 5 -11 10 -3 6 -1 10 4 10 6 0 11 -4 11 -10z m-807 -17 c-7 -2
-19 -2 -25 0 -7 3 -2 5 12 5 14 0 19 -2 13 -5z m657 -7 c0 -3 -4 -8 -10 -11
-5 -3 -10 -1 -10 4 0 6 5 11 10 11 6 0 10 -2 10 -4z m207 -22 c-3 -3 -12 -4
-19 -1 -8 3 -5 6 6 6 11 1 17 -2 13 -5z m-32 -14 c3 -6 -1 -7 -9 -4 -18 7 -21
14 -7 14 6 0 13 -4 16 -10z m-905 -20 c0 -5 -5 -10 -11 -10 -5 0 -7 5 -4 10 3
6 8 10 11 10 2 0 4 -4 4 -10z m856 -52 c-9 -5 -23 -5 -32 0 -12 6 -7 9 16 9
23 0 28 -3 16 -9z m-751 -16 c-3 -3 -11 0 -18 7 -9 10 -8 11 6 5 10 -3 15 -9
12 -12z m135 8 c0 -5 -4 -10 -10 -10 -5 0 -10 5 -10 10 0 6 5 10 10 10 6 0 10
-4 10 -10z m490 0 c8 -5 11 -10 5 -10 -5 0 -17 5 -25 10 -8 5 -10 10 -5 10 6
0 17 -5 25 -10z m-580 -9 c0 -6 15 -12 33 -14 l32 -4 -31 -1 c-18 -1 -37 5
-44 13 -9 10 -9 15 -1 15 6 0 11 -4 11 -9z m540 -1 c0 -5 -2 -10 -4 -10 -3 0
-8 5 -11 10 -3 6 -1 10 4 10 6 0 11 -4 11 -10z m37 -16 c-3 -3 -12 -4 -19 -1
-8 3 -5 6 6 6 11 1 17 -2 13 -5z"/>
<path d="M6440 12704 c-37 -27 -49 -46 -50 -79 0 -39 24 -73 64 -91 17 -7 24
-13 15 -14 -8 0 -24 7 -35 15 -25 19 -68 19 -130 0 -96 -28 -94 -23 -94 -280
l0 -224 -32 -3 -33 -3 0 -305 0 -305 23 -3 22 -3 0 290 c0 281 1 291 19 291
11 0 23 -4 26 -10 10 -16 44 -11 65 10 19 19 20 33 20 199 0 150 2 180 15 185
13 5 15 -51 15 -464 l0 -469 22 -15 c12 -9 32 -16 43 -16 11 0 31 7 43 16 22
15 22 18 22 275 0 250 1 259 20 259 18 0 19 -10 22 -256 3 -255 3 -256 27
-275 30 -25 66 -24 91 1 19 19 20 33 20 483 0 406 2 464 15 464 13 0 15 -28
15 -187 0 -173 1 -188 20 -205 23 -21 68 -13 76 13 3 9 35 79 72 155 56 116
70 137 89 137 13 0 23 -1 23 -2 0 -2 -35 -130 -78 -285 l-79 -283 74 0 73 0 0
-150 c0 -150 0 -150 24 -161 35 -16 75 -3 86 27 6 14 10 84 10 155 l0 129 30
0 30 0 0 -150 0 -150 25 -12 c37 -17 77 0 87 37 5 17 7 84 6 150 l-3 120 71 5
71 5 -49 175 c-26 96 -61 223 -77 283 l-29 107 23 0 c21 0 28 -14 71 -141 26
-78 54 -147 62 -155 16 -16 58 -19 67 -4 3 6 15 10 26 10 18 0 19 -10 19 -296
l0 -295 23 3 22 3 3 309 c2 333 4 326 -49 326 -29 0 -26 -6 -126 285 -25 71
-32 82 -68 102 -56 31 -109 39 -137 19 -12 -9 -29 -16 -38 -16 -8 0 -1 7 15
15 17 9 36 23 43 32 18 25 15 90 -5 111 -10 10 -23 27 -29 38 -14 24 -54 39
-85 31 -13 -3 -39 -25 -57 -48 -51 -67 -42 -137 21 -164 18 -8 25 -14 17 -15
-9 0 -25 7 -37 15 -18 13 -26 13 -61 1 -68 -24 -92 -46 -128 -118 -19 -37 -37
-68 -40 -68 -4 0 -3 45 0 100 7 97 7 100 -17 124 -29 28 -126 60 -166 54 l-28
-4 19 33 c39 65 -4 133 -89 140 -35 3 -55 0 -73 -13z m125 -174 c-3 -5 -14
-10 -23 -9 -14 0 -13 2 3 9 27 11 27 11 20 0z m548 -97 c-7 -2 -19 -2 -25 0
-7 3 -2 5 12 5 14 0 19 -2 13 -5z"/>
<path d="M7632 11388 c-16 -16 -15 -29 1 -22 8 3 14 11 14 19 0 18 0 18 -15 3z"/>
<path d="M4887 10669 c-37 -21 -49 -77 -58 -249 -7 -159 -21 -231 -50 -267
-22 -25 -36 0 -168 297 -71 160 -84 180 -120 180 -16 0 -39 -9 -52 -19 -41
-33 -32 -87 56 -325 41 -113 68 -230 60 -258 -15 -44 -33 -26 -183 180 -72 98
-130 152 -166 152 -52 0 -77 -54 -57 -125 5 -20 35 -74 65 -119 131 -195 190
-326 148 -326 -5 0 -53 30 -108 66 -128 85 -188 114 -242 114 -35 0 -44 -4
-54 -24 -15 -35 21 -91 127 -196 47 -46 133 -146 191 -222 174 -226 253 -286
421 -315 105 -18 202 -13 240 13 16 10 34 17 41 16 28 -6 141 70 215 145 86
87 167 196 167 225 0 11 4 27 9 37 6 10 19 60 30 112 11 52 25 112 31 134 7
22 15 63 20 90 5 28 23 88 39 135 32 89 38 120 21 120 -5 0 -10 5 -10 10 0 6
9 10 19 10 42 0 51 112 10 125 -25 8 -79 -3 -79 -16 0 -6 -4 -8 -9 -5 -12 8
-100 -90 -130 -144 -21 -37 -21 -40 -4 -40 13 -1 9 -5 -12 -16 -16 -9 -47 -33
-67 -55 -48 -51 -71 -50 -124 6 -57 59 -80 133 -89 290 -8 151 -22 235 -42
258 -18 19 -58 22 -86 6z m554 -642 c-8 -8 -11 -7 -11 4 0 9 3 19 7 23 4 4 9
2 11 -4 3 -7 -1 -17 -7 -23z m-121 -88 c0 -6 -4 -7 -10 -4 -5 3 -10 11 -10 16
0 6 5 7 10 4 6 -3 10 -11 10 -16z m49 -202 l0 -22 -10 24 c-5 13 -19 37 -30
55 l-21 31 31 -33 c17 -18 31 -42 30 -55z m-159 28 c20 -24 6 -28 -15 -5 -10
11 -13 20 -8 20 6 0 16 -7 23 -15z m-65 -55 c10 -11 16 -20 13 -20 -3 0 -13 9
-23 20 -10 11 -16 20 -13 20 3 0 13 -9 23 -20z m-19 -162 l29 -33 -32 29 c-31
28 -38 36 -30 36 2 0 16 -15 33 -32z m-96 -73 c13 -14 21 -25 18 -25 -2 0 -15
11 -28 25 -13 14 -21 25 -18 25 2 0 15 -11 28 -25z"/>
<path d="M2357 10373 c-19 -5 -530 -428 -535 -443 -2 -5 12 -26 31 -46 l35
-38 143 120 c79 66 188 158 242 204 92 78 100 83 120 70 12 -7 114 -90 225
-184 112 -94 215 -180 229 -190 l26 -20 28 32 c16 18 29 39 29 47 0 8 -34 43
-75 77 l-75 63 0 136 c0 76 -3 144 -6 153 -5 13 -23 16 -90 16 l-83 0 -3 -74
-3 -75 -90 75 c-49 40 -93 74 -96 74 -4 0 -13 2 -21 4 -7 2 -21 2 -31 -1z"/>
<path d="M2173 10028 l-193 -161 0 -169 c0 -98 4 -178 10 -189 10 -17 23 -19
155 -19 l145 0 0 130 0 130 90 0 90 0 0 -130 0 -130 138 0 c75 0 144 5 152 10
12 8 15 42 17 187 l2 178 -196 163 c-108 89 -201 162 -207 161 -6 0 -98 -73
-203 -161z"/>
<path d="M11705 10296 c-47 -21 -68 -50 -68 -96 0 -81 85 -130 163 -95 36 16
70 62 70 95 0 30 -34 80 -65 94 -40 19 -60 20 -100 2z"/>
<path d="M11183 10005 c-122 -130 -136 -154 -108 -185 37 -41 63 -28 170 85
100 105 100 105 148 105 50 0 55 -4 35 -24 -7 -8 -96 -102 -197 -210 l-184
-196 -154 0 c-140 0 -155 -2 -173 -20 -11 -11 -20 -31 -20 -45 0 -14 9 -34 20
-45 19 -19 33 -20 232 -20 l212 0 89 90 89 91 65 -58 c36 -32 77 -68 91 -79
l26 -21 -37 -146 c-45 -175 -46 -199 -11 -226 32 -25 61 -26 92 -3 18 14 32
56 72 220 28 112 50 214 50 228 0 19 -22 47 -87 108 l-87 83 84 91 c93 103 79
101 167 20 76 -71 83 -69 228 69 82 79 96 97 93 120 -2 19 -12 32 -30 41 -35
17 -52 8 -143 -75 -38 -34 -72 -63 -75 -63 -3 0 -23 17 -45 38 -22 20 -66 61
-98 90 l-59 52 -173 0 -173 0 -109 -115z"/>
<path d="M8047 9190 c-26 -5 -53 -21 -80 -48 -39 -40 -42 -45 -45 -112 -6 -92
12 -153 57 -200 64 -67 185 -77 269 -23 50 33 62 58 62 132 0 45 -7 72 -34
127 -40 80 -59 100 -113 120 -42 15 -60 15 -116 4z"/>
<path d="M5946 9014 c-9 -8 -16 -25 -16 -36 0 -25 52 -76 106 -103 21 -11 56
-30 76 -42 59 -36 181 -73 241 -73 48 0 55 3 66 26 21 46 0 84 -72 126 -85 51
-138 73 -231 97 -95 25 -149 27 -170 5z m179 -44 c-3 -5 -11 -10 -16 -10 -6 0
-7 5 -4 10 3 6 11 10 16 10 6 0 7 -4 4 -10z m88 -27 c-7 -2 -19 -2 -25 0 -7 3
-2 5 12 5 14 0 19 -2 13 -5z m-134 -20 c-9 -10 -8 -13 2 -13 11 0 11 -2 -1 -9
-19 -13 -34 -3 -21 13 6 7 9 15 6 18 -3 2 2 5 10 5 11 0 12 -4 4 -14z m176 8
c3 -5 2 -12 -3 -15 -5 -3 -9 1 -9 9 0 17 3 19 12 6z m42 -53 c-3 -7 -5 -2 -5
12 0 14 2 19 5 13 2 -7 2 -19 0 -25z m-172 2 c3 -6 -1 -7 -9 -4 -18 7 -21 14
-7 14 6 0 13 -4 16 -10z m45 -30 c0 -5 -7 -7 -15 -4 -8 4 -15 8 -15 10 0 2 7
4 15 4 8 0 15 -4 15 -10z m85 -8 c-3 -3 -11 0 -18 7 -9 10 -8 11 6 5 10 -3 15
-9 12 -12z m-20 -13 c17 -12 21 -18 10 -14 -11 4 -25 8 -32 8 -7 0 -9 5 -6 10
4 6 -1 8 -11 4 -10 -4 -15 -3 -11 3 9 14 16 13 50 -11z m137 -21 c-6 -6 -9 0
-9 18 0 23 1 24 9 10 7 -12 7 -21 0 -28z m-37 1 c4 -6 17 -14 29 -19 16 -7 17
-9 4 -9 -9 -1 -20 4 -23 9 -4 6 -11 7 -17 4 -6 -4 -8 -2 -4 4 3 5 0 13 -6 15
-9 4 -10 6 -1 6 6 1 15 -4 18 -10z"/>
<path d="M6308 8563 c7 -3 16 -2 19 1 4 3 -2 6 -13 5 -11 0 -14 -3 -6 -6z"/>
<path d="M7343 3488 c-19 -24 -33 -82 -48 -194 -8 -62 -24 -137 -35 -166 -24
-64 -79 -128 -110 -128 -28 0 -80 31 -80 48 0 32 -112 176 -149 192 -43 17
-81 -4 -81 -45 0 -17 6 -40 14 -50 7 -10 11 -26 9 -36 -3 -10 0 -33 6 -52 15
-46 40 -187 47 -262 7 -85 31 -171 66 -238 31 -58 125 -158 190 -202 88 -60
248 -75 368 -35 108 35 158 76 300 244 72 86 158 179 192 208 120 104 139 179
43 168 -29 -3 -99 -41 -185 -99 -74 -50 -110 -63 -110 -38 0 16 56 109 148
243 40 59 75 118 79 132 9 39 -12 72 -46 72 -34 0 -85 -45 -171 -150 -92 -114
-121 -142 -136 -136 -10 4 -13 14 -8 33 11 49 51 155 92 248 51 115 63 160 52
191 -18 46 -77 44 -101 -3 -49 -96 -180 -341 -192 -357 -14 -19 -15 -18 -33 9
-17 26 -19 49 -19 200 0 193 -6 215 -61 215 -17 0 -36 -6 -41 -12z m-416 -535
c-3 -10 -5 -2 -5 17 0 19 2 27 5 18 2 -10 2 -26 0 -35z m241 -351 c2 -7 -1
-12 -8 -12 -6 0 -9 4 -6 9 4 5 1 12 -4 14 -6 3 -5 4 2 3 6 -1 14 -8 16 -14z
m102 -2 c-8 -5 -19 -10 -25 -10 -5 0 -3 5 5 10 8 5 20 10 25 10 6 0 3 -5 -5
-10z m-70 -60 c0 -5 -5 -10 -11 -10 -5 0 -7 5 -4 10 3 6 8 10 11 10 2 0 4 -4
4 -10z m242 -112 c-7 -7 -12 -8 -12 -2 0 14 12 26 19 19 2 -3 -1 -11 -7 -17z
m178 -48 c0 -5 -4 -10 -10 -10 -5 0 -10 5 -10 10 0 6 5 10 10 10 6 0 10 -4 10
-10z"/>
<path d="M8095 7828 c-105 -34 -212 -123 -258 -214 -40 -78 -60 -169 -52 -234
15 -120 44 -170 186 -320 118 -125 160 -193 136 -222 -46 -58 -93 -34 -147 77
-54 109 -70 125 -127 125 -39 0 -50 -5 -83 -37 -46 -47 -60 -113 -60 -291 0
-273 76 -386 269 -399 195 -14 346 54 489 221 97 113 133 221 112 338 -23 127
-67 194 -246 380 -116 120 -126 139 -94 173 13 14 29 25 37 25 19 0 84 -62
112 -107 34 -53 107 -113 138 -113 35 0 74 26 102 67 21 33 23 44 19 147 -4
125 -22 177 -83 248 -84 99 -198 149 -339 147 -44 0 -94 -5 -111 -11z"/>
<path d="M7464 7719 c-23 -4 -110 -12 -194 -17 -84 -6 -155 -14 -159 -19 -11
-12 26 -976 49 -1304 5 -70 14 -138 20 -151 11 -23 15 -24 63 -17 29 5 105 15
171 24 65 9 125 19 133 22 17 7 16 56 -13 783 -7 201 -14 436 -14 522 0 86 -3
159 -7 161 -5 2 -26 0 -49 -4z"/>
<path d="M6546 7419 c-6 -277 -29 -607 -46 -694 -20 -94 -75 -163 -96 -118 -4
10 -9 172 -12 360 l-4 343 -39 11 c-54 17 -331 -29 -362 -59 -25 -26 -41 -126
-62 -398 -27 -363 -21 -465 37 -578 33 -65 112 -141 181 -172 61 -28 65 -29
237 -29 l175 0 58 38 c33 21 91 70 130 110 154 157 204 358 226 912 10 243 4
512 -12 522 -6 3 -99 9 -207 12 l-197 6 -7 -266z"/>
<path d="M5528 7603 l-186 -47 -6 -140 c-3 -78 -10 -285 -16 -461 -10 -294
-20 -396 -41 -419 -12 -14 -57 2 -73 27 -24 36 -44 128 -65 305 -12 92 -26
209 -32 261 l-12 94 -111 -7 c-94 -6 -315 -34 -324 -41 -4 -3 25 -284 44 -430
33 -254 137 -452 319 -603 122 -103 272 -117 466 -45 63 23 85 37 144 97 39
39 83 95 99 125 42 78 76 219 82 341 7 120 -29 718 -51 874 -8 55 -15 103 -15
108 0 14 -28 9 -222 -39z"/>
<path d="M11394 5822 c-18 -12 -35 -52 -33 -75 2 -12 -5 -36 -14 -54 -9 -18
-17 -53 -17 -79 0 -40 5 -51 35 -80 19 -18 35 -35 35 -37 0 -3 -15 -14 -32
-24 -48 -29 -147 -122 -163 -154 -40 -76 4 -188 73 -189 27 0 27 -4 11 -248
-13 -190 -13 -192 44 -192 l27 0 0 -89 0 -90 -27 -3 c-37 -4 -43 -35 -9 -44
14 -3 37 -3 51 0 25 6 25 7 25 116 0 103 1 110 20 110 18 0 20 -8 22 -112 l3
-113 35 -3 c19 -1 41 2 49 7 21 14 5 41 -24 41 -25 0 -25 0 -25 90 0 87 1 90
23 90 51 0 56 15 47 135 -5 61 -9 157 -9 215 l-1 105 19 -30 c10 -16 31 -41
46 -55 15 -14 46 -52 68 -85 40 -58 41 -62 38 -131 -1 -48 3 -84 13 -109 11
-25 16 -69 16 -131 l0 -94 -26 0 c-21 0 -25 -4 -22 -22 3 -25 32 -34 74 -24
24 6 24 7 18 106 l-7 100 26 0 26 0 3 -102 3 -103 36 -3 c23 -2 40 2 48 12 17
20 6 36 -25 36 -24 0 -24 1 -24 90 0 65 4 97 15 114 9 13 19 43 23 66 l7 43
32 -52 c18 -28 37 -51 42 -51 6 0 20 19 32 43 29 56 35 34 9 -32 -11 -29 -18
-57 -15 -62 4 -5 19 -9 36 -9 l29 0 0 -74 c0 -74 0 -75 -27 -78 -37 -4 -43
-35 -9 -44 14 -3 37 -3 51 0 24 6 25 8 25 101 0 88 2 95 20 95 18 0 20 -8 22
-97 l3 -98 45 0 c38 0 45 3 45 20 0 14 -8 21 -27 23 -28 3 -28 4 -28 78 l0 74
35 0 c45 0 53 19 26 63 -12 19 -21 50 -21 68 l1 34 20 -27 c11 -14 28 -37 39
-50 l20 -23 18 21 c9 12 23 30 30 40 11 16 12 8 7 -49 -5 -63 -4 -69 15 -74
18 -5 20 -13 20 -79 0 -71 -1 -74 -24 -74 -27 0 -40 -22 -23 -39 6 -6 28 -11
49 -11 l38 0 0 100 c0 99 0 100 24 100 24 0 25 0 23 -97 l-2 -98 45 0 c39 0
45 3 48 23 3 18 -1 22 -22 22 -26 0 -26 1 -26 75 0 67 2 75 19 75 25 0 30 16
19 67 -5 23 -8 55 -6 70 3 28 3 28 37 -20 34 -47 53 -55 59 -25 3 17 -131 203
-153 212 -22 8 -18 24 15 63 17 18 30 40 30 48 0 8 7 15 15 15 9 0 15 9 15 25
0 18 -5 25 -19 25 -11 0 -23 9 -26 21 -10 30 -64 53 -97 40 -29 -11 -47 -40
-84 -136 -19 -52 -21 -65 -10 -74 14 -12 27 -2 39 32 6 16 8 16 27 -3 11 -11
25 -20 30 -20 20 0 9 -27 -15 -38 -14 -7 -42 -43 -67 -86 -24 -42 -46 -76 -49
-76 -3 0 -31 36 -64 80 -32 43 -64 81 -72 84 -17 7 -17 30 0 44 10 9 18 1 35
-33 38 -78 66 -50 31 31 -12 27 -22 71 -23 98 -2 41 -7 53 -34 77 -18 16 -40
29 -50 29 -45 0 -100 -78 -87 -121 4 -12 -3 -44 -15 -75 -33 -81 -10 -121 25
-44 12 27 23 39 33 35 7 -3 16 -5 18 -5 14 0 0 -30 -21 -44 -13 -9 -43 -50
-66 -92 l-42 -76 -59 91 c-32 49 -68 93 -78 96 -25 8 -26 30 -2 47 49 35 57
118 16 167 -32 39 -75 41 -109 7 -14 -14 -37 -26 -52 -28 -35 -4 -40 -41 -7
-46 15 -2 25 -15 33 -43 6 -21 23 -46 36 -55 14 -9 25 -22 25 -29 0 -15 -51
-39 -59 -27 -3 5 -20 31 -38 58 -18 27 -45 59 -61 71 -41 30 -69 97 -88 205
-9 51 -21 102 -26 113 -16 31 -50 65 -65 65 -19 0 -16 27 5 42 53 39 67 108
32 166 -11 18 -20 50 -20 71 0 53 -41 87 -76 63z m36 -62 c0 -11 -4 -20 -9
-20 -14 0 -23 18 -16 30 10 17 25 11 25 -10z m20 -90 c36 -36 16 -110 -31
-110 -45 0 -66 74 -32 112 21 23 38 23 63 -2z m-6 -239 c3 -5 -2 -26 -11 -47
l-16 -39 -14 34 c-8 18 -12 40 -9 47 6 16 42 19 50 5z m-27 -169 c9 2 27 32
41 68 25 62 27 64 33 35 4 -16 7 -81 8 -142 l1 -113 -80 0 -80 0 0 133 c0 74
3 137 7 141 4 4 18 -23 31 -59 17 -45 29 -65 39 -63z m-122 -90 c-3 -3 -18 3
-33 15 -42 31 -42 87 0 138 l33 39 3 -93 c1 -51 0 -96 -3 -99z m1200 -22 c4
-6 -7 -10 -27 -10 -25 0 -29 3 -18 10 19 13 37 13 45 0z m-645 -48 c0 -41 -60
-59 -80 -23 -18 34 -11 41 35 41 37 0 45 -3 45 -18z m340 -7 c0 -16 -34 -55
-48 -55 -15 0 -40 25 -47 48 -6 21 -4 22 44 22 39 0 51 -4 51 -15z m330 -14
c0 -6 -10 -17 -22 -25 -19 -13 -25 -14 -42 -3 -37 25 -31 37 18 37 25 0 46 -4
46 -9z m-1026 -48 c3 -16 8 -80 11 -143 4 -63 9 -123 11 -132 5 -16 -4 -18
-97 -18 l-102 0 7 83 c4 45 9 117 13 160 l6 77 72 0 c72 0 74 -1 79 -27z m355
-119 c13 -17 21 -41 21 -65 l0 -39 -61 0 -62 0 7 47 c11 80 56 107 95 57z
m341 -24 c5 -10 10 -35 10 -54 l0 -36 -55 0 -55 0 0 43 c0 44 13 71 40 79 20
7 47 -8 60 -32z m330 11 c5 -11 10 -36 10 -55 l0 -36 -55 0 -55 0 0 37 c0 20
7 45 17 55 22 24 69 24 83 -1z m-660 -151 c0 -5 -11 -17 -25 -26 -23 -15 -27
-15 -50 0 -38 25 -30 36 25 36 28 0 50 -4 50 -10z m674 -6 c12 -30 6 -34 -54
-34 -57 0 -60 1 -60 25 0 24 3 25 54 25 40 0 55 -4 60 -16z m-324 -14 c10 -19
8 -20 -65 -20 -41 0 -75 2 -75 4 0 28 16 36 71 36 48 0 60 -3 69 -20z"/>
<path d="M1045 5871 c-3 -5 -2 -12 3 -15 5 -3 9 1 9 9 0 17 -3 19 -12 6z"/>
<path d="M1375 5696 c-68 -21 -100 -43 -154 -102 -135 -147 -209 -452 -155
-634 18 -61 73 -124 118 -136 37 -9 83 36 127 125 19 36 38 68 44 70 5 2 26
20 46 40 44 43 59 91 59 187 0 119 51 194 131 194 34 0 57 -35 65 -96 6 -53
12 -64 60 -115 30 -31 54 -61 54 -67 0 -7 -9 -17 -20 -24 -22 -14 -26 -48 -8
-66 8 -8 8 -15 0 -25 -6 -7 -9 -23 -5 -36 4 -17 1 -23 -16 -28 -14 -4 -20 -11
-17 -22 15 -51 16 -68 2 -86 -13 -18 -24 -20 -136 -17 l-122 3 -34 -36 c-57
-60 -58 -103 -3 -133 108 -59 146 -114 157 -229 4 -36 12 -68 18 -70 6 -2 46
24 90 59 225 176 303 320 291 533 -10 168 -61 359 -124 463 -118 195 -312 297
-468 248z"/>
<path d="M2366 4578 c3 -5 10 -6 15 -3 13 9 11 12 -6 12 -8 0 -12 -4 -9 -9z"/>
<path d="M626 4515 c-9 -26 -7 -32 5 -12 6 10 9 21 6 23 -2 3 -7 -2 -11 -11z"/>
<path d="M2425 4450 c-3 -6 1 -7 9 -4 18 7 21 14 7 14 -6 0 -13 -4 -16 -10z"/>
<path d="M9359 2206 c-29 -16 -59 -71 -59 -106 0 -62 61 -120 128 -120 38 0
50 5 83 39 34 34 39 45 39 85 0 36 -6 52 -28 77 -24 27 -37 33 -83 36 -35 2
-63 -2 -80 -11z"/>
<path d="M9150 2059 c-129 -51 -362 -165 -382 -187 -25 -26 -57 -115 -113
-307 -14 -49 -30 -98 -36 -108 -17 -31 -1 -37 96 -37 52 0 96 -3 98 -7 3 -5 8
-99 12 -211 6 -156 11 -207 22 -218 21 -21 67 -17 89 7 17 19 19 41 23 225 l3
204 99 0 c80 0 99 3 99 15 0 8 -22 82 -50 164 -27 82 -50 156 -50 163 0 11
133 78 155 78 3 0 5 -18 5 -39 0 -52 17 -69 134 -136 78 -45 106 -55 135 -53
34 3 36 5 36 38 0 34 -2 36 -100 87 l-100 52 3 93 c3 84 2 96 -20 128 -38 56
-95 74 -158 49z"/>
<path d="M9240 1641 c-15 -30 -2 -50 51 -77 27 -13 49 -27 49 -30 0 -3 -13
-23 -29 -43 -47 -59 -56 -85 -42 -120 19 -45 53 -53 195 -49 157 4 159 5 167
126 7 103 -2 132 -41 132 -29 0 -40 -19 -40 -72 0 -27 -1 -28 -60 -28 -33 0
-60 3 -60 8 1 4 7 18 14 32 21 37 6 55 -84 100 -90 45 -105 48 -120 21z"/>
<path d="M9714 1480 c-58 -23 -70 -95 -25 -141 33 -32 67 -37 110 -14 32 16
41 33 41 76 0 45 -16 67 -58 79 -43 11 -40 11 -68 0z"/>
<path d="M9224 1286 c-3 -8 -4 -23 -2 -33 3 -17 20 -18 223 -21 121 -2 262 0
313 3 l92 7 0 29 0 29 -310 0 c-261 0 -312 -2 -316 -14z"/>
<path d="M4448 2613 c6 -2 18 -2 25 0 6 3 1 5 -13 5 -14 0 -19 -2 -12 -5z"/>
<path d="M4650 2600 c0 -4 9 -10 20 -13 11 -3 20 -2 20 3 0 4 -9 10 -20 13
-11 3 -20 2 -20 -3z"/>
<path d="M4350 2590 c22 -5 23 -7 6 -13 -10 -4 -27 -5 -37 -2 -9 3 -21 0 -25
-6 -5 -9 -2 -10 11 -5 15 5 16 4 6 -8 -12 -15 -34 -12 -58 7 -9 6 -13 6 -13
-2 0 -6 -8 -11 -17 -11 -15 0 -16 2 -3 10 8 5 11 10 5 10 -5 0 -17 -4 -25 -10
-12 -8 -12 -10 2 -15 9 -4 22 -6 29 -4 34 4 53 -1 42 -12 -12 -12 -96 -8 -127
6 -14 6 -17 5 -12 -3 4 -7 1 -12 -8 -12 -9 0 -16 -5 -16 -11 0 -6 -8 -8 -19
-4 -20 6 -73 -13 -66 -24 7 -12 -9 -28 -34 -36 -18 -5 -22 -4 -16 5 5 9 4 11
-3 6 -12 -7 -17 -36 -6 -36 3 0 14 5 25 11 12 6 27 8 36 5 11 -5 8 -12 -15
-31 -17 -14 -36 -25 -43 -24 -8 0 -4 4 9 9 12 5 22 15 22 21 0 8 -4 8 -12 2
-7 -6 -26 -15 -43 -21 -17 -6 -22 -11 -12 -11 20 -1 24 -21 3 -21 -7 0 -19 -7
-26 -15 -16 -19 -39 -19 -59 -1 -14 12 -19 12 -35 1 -18 -13 -14 -41 5 -29 5
3 7 10 4 15 -4 5 -1 9 4 9 6 0 11 -9 11 -19 0 -19 -24 -22 -50 -6 -5 3 -4 -9
2 -27 9 -24 8 -33 0 -36 -20 -6 -13 -42 10 -51 14 -5 18 -10 10 -15 -7 -4 -10
-12 -7 -17 11 -17 -7 -9 -37 16 -16 14 -33 23 -38 20 -17 -11 -18 24 0 40 14
12 20 13 26 4 4 -8 3 -10 -4 -5 -7 4 -12 1 -12 -8 0 -33 28 -15 35 23 2 13 -1
18 -13 16 -9 -2 -18 -4 -19 -5 -2 -2 -6 -3 -10 -4 -20 -4 -31 -18 -28 -36 2
-11 -1 -20 -7 -20 -7 0 -7 -4 0 -13 11 -13 2 -37 -14 -40 -5 -1 -9 -12 -8 -24
0 -12 -4 -19 -9 -16 -4 3 -6 12 -3 20 3 8 1 11 -5 8 -6 -4 -7 -19 -4 -36 9
-40 -10 -37 -23 4 l-10 32 -2 -40 c-1 -22 -1 -48 -1 -58 1 -9 -5 -24 -13 -33
-9 -8 -16 -11 -16 -5 0 6 -4 11 -10 11 -12 0 -14 -26 -2 -33 4 -2 2 -3 -4 -1
-7 1 -10 -12 -8 -34 3 -48 -20 -76 -48 -61 -13 7 -18 7 -14 1 3 -5 0 -22 -8
-36 -7 -14 -12 -46 -11 -71 l2 -44 -20 22 c-16 18 -19 19 -14 4 4 -10 7 -28 7
-39 0 -16 3 -18 14 -9 11 9 12 6 9 -16 -3 -16 -7 -35 -10 -43 -4 -8 -5 -21 -4
-27 1 -7 -7 -23 -19 -35 -11 -12 -21 -29 -21 -37 -1 -9 -3 -32 -4 -51 l-3 -35
13 30 c7 16 10 36 7 44 -3 9 -1 12 6 7 7 -4 12 -1 12 8 0 9 5 16 11 16 7 0 17
7 24 17 9 13 14 13 20 3 5 -9 4 -11 -3 -6 -8 5 -12 -1 -12 -14 0 -12 5 -18 10
-15 6 3 1 -10 -11 -29 -12 -20 -28 -41 -38 -47 -12 -7 -13 -12 -3 -15 13 -6
17 -44 4 -44 -5 0 -9 -6 -9 -14 0 -8 8 -11 19 -8 11 2 19 -1 19 -9 1 -8 3 -24
4 -35 2 -17 -2 -20 -18 -16 -14 3 -18 1 -13 -6 4 -7 2 -12 -3 -12 -6 0 -11 -8
-10 -17 0 -11 3 -13 6 -5 8 19 23 14 23 -8 0 -11 -4 -20 -8 -20 -5 0 -9 -6 -9
-14 0 -7 7 -13 16 -12 9 1 20 -12 26 -32 6 -18 14 -30 16 -27 3 3 11 -6 17
-20 6 -13 8 -27 3 -29 -5 -3 -6 -18 -3 -33 5 -26 4 -27 -13 -13 -18 14 -18 14
0 -15 11 -16 20 -32 22 -34 2 -3 2 6 1 19 -2 12 3 25 10 27 6 3 10 -1 8 -9 -2
-7 -7 -26 -10 -43 l-5 -30 14 30 c8 17 14 47 15 67 0 30 3 36 20 35 22 -1 26
-34 10 -72 l-9 -20 -1 20 c-1 12 -7 4 -17 -22 -13 -39 -13 -45 2 -65 15 -20
17 -21 11 -3 -5 15 0 13 20 -10 16 -17 22 -31 15 -33 -6 -2 -11 -8 -11 -13 0
-6 9 -5 21 1 11 7 23 9 27 6 3 -3 -1 -6 -8 -6 -7 0 -10 -3 -7 -7 4 -3 2 -12
-4 -20 -6 -7 -8 -14 -3 -14 5 -1 16 -2 24 -3 9 0 15 -10 14 -25 -1 -21 1 -22
11 -8 15 21 27 10 15 -13 -7 -14 -5 -20 8 -26 9 -4 21 -6 26 -5 5 1 6 -5 3
-13 -6 -15 15 -40 26 -30 3 3 14 1 25 -5 14 -7 21 -8 24 -1 2 6 11 4 23 -5 19
-16 19 -16 -5 -9 -22 6 -23 5 -12 -9 8 -9 11 -21 8 -26 -11 -18 31 -33 55 -20
29 15 69 19 69 6 0 -6 8 -19 17 -29 11 -12 13 -22 7 -28 -14 -14 -54 17 -54
42 0 19 -2 19 -22 6 -30 -20 -29 -31 1 -33 14 -1 31 -11 38 -22 14 -20 53 -21
53 -2 0 5 4 9 9 9 10 0 9 -19 -2 -37 -4 -6 -3 -14 3 -18 5 -3 10 0 11 7 0 7 4
4 9 -8 11 -27 50 -26 50 1 0 3 -9 1 -20 -5 -18 -10 -20 -8 -19 17 0 25 1 26 9
8 l9 -20 0 20 c1 14 4 16 9 8 4 -7 17 -14 27 -16 11 -2 30 -9 42 -17 l22 -14
-25 -17 -26 -16 33 -12 c18 -6 35 -9 37 -6 3 3 0 5 -6 5 -24 0 -11 15 15 17
16 0 21 -2 13 -7 -9 -6 -9 -9 0 -15 6 -4 17 1 24 10 7 10 19 15 27 12 10 -4 9
-6 -3 -6 -10 -1 -18 -7 -18 -14 0 -24 11 -26 31 -6 10 10 31 19 47 18 l27 -1
-31 -9 c-17 -5 -31 -16 -31 -24 0 -18 17 -21 17 -2 1 7 6 5 14 -5 7 -10 16
-15 19 -11 4 3 2 12 -4 20 -16 18 -1 16 18 -3 11 -10 31 -15 62 -13 38 2 46 0
45 -14 -2 -15 1 -16 13 -5 21 17 161 18 175 1 6 -7 25 -13 42 -13 24 0 27 3
16 10 -12 8 -8 10 15 11 30 1 30 1 5 10 -21 7 -19 8 13 4 20 -2 37 0 37 4 0 4
22 8 50 8 28 0 47 -3 44 -8 -5 -9 55 -3 64 6 2 2 -12 7 -32 10 -21 4 -36 13
-36 21 0 12 3 12 23 0 30 -19 90 -30 81 -14 -5 7 -2 9 7 6 8 -3 23 -1 34 4 18
8 18 8 -2 4 -13 -2 -25 0 -28 4 -3 4 -24 6 -48 4 -36 -3 -33 -2 20 12 34 10
60 20 58 25 -3 4 1 10 7 12 8 3 5 6 -5 6 -10 1 -17 7 -14 14 4 13 48 15 85 3
12 -4 20 -12 17 -17 -3 -5 2 -6 11 -2 13 5 15 3 9 -8 -8 -12 -6 -12 8 0 19 15
23 26 5 15 -7 -4 -8 -3 -4 5 5 8 12 9 20 2 7 -6 17 -6 26 -1 12 8 11 10 -5 10
-14 1 -10 5 15 17 19 9 43 17 53 18 21 2 48 25 30 25 -7 0 -15 -4 -18 -10 -3
-5 -11 -10 -16 -10 -6 0 -7 5 -3 12 4 6 3 8 -4 4 -6 -3 -13 -2 -17 4 -3 5 -15
10 -26 10 -11 0 -17 4 -14 10 3 6 17 10 31 10 14 0 23 -3 21 -7 -3 -5 6 -9 19
-9 14 -1 21 2 18 8 -4 6 1 6 13 0 17 -10 19 -8 15 17 -4 28 28 71 52 71 6 0
-2 -12 -18 -26 -36 -32 -27 -43 13 -15 17 12 31 17 33 10 2 -5 15 2 28 18 19
21 20 23 4 10 -21 -18 -23 -17 -46 5 -25 24 -48 78 -25 60 7 -5 20 -8 30 -7 9
2 17 -3 17 -10 0 -23 20 -28 34 -9 8 10 20 15 29 11 31 -12 58 72 34 103 -7 9
-3 8 10 -3 13 -11 19 -25 16 -35 -4 -9 -2 -13 4 -9 5 3 9 30 8 59 -2 29 0 40
2 23 6 -38 17 -50 31 -33 8 10 8 18 0 28 -8 12 -9 12 -4 -2 3 -10 0 -18 -5
-18 -7 0 -9 9 -5 23 3 12 6 27 6 32 0 6 5 3 10 -5 9 -13 10 -13 10 1 0 8 -6
24 -14 35 -15 19 -15 19 -29 -1 -14 -18 -15 -17 -11 15 4 36 24 67 24 37 0 -9
5 -17 10 -17 6 0 10 -7 10 -16 0 -10 6 -14 15 -10 8 3 15 1 15 -3 0 -5 -5 -11
-11 -13 -7 -2 -5 -9 5 -17 14 -12 16 -12 10 3 -3 9 -2 16 3 16 16 0 42 55 33
70 -4 7 -4 23 3 37 8 18 13 20 24 12 11 -10 12 -8 7 7 -4 10 -12 25 -18 33 -8
11 -8 13 1 8 17 -10 25 25 13 57 -6 18 -6 25 0 21 16 -10 11 41 -5 55 -17 14
-20 50 -4 50 6 0 8 -8 4 -19 -3 -11 1 -24 11 -32 10 -8 18 -14 18 -13 1 0 11
6 23 12 13 7 20 18 17 26 -3 8 -1 17 5 21 6 3 11 12 11 18 0 7 -4 6 -11 -3 -8
-12 -10 -9 -6 12 2 15 0 25 -4 22 -5 -3 -9 -21 -9 -40 0 -19 -4 -34 -10 -34
-11 0 -13 61 -4 109 6 30 8 31 24 16 17 -15 18 -12 22 62 3 44 0 82 -5 88 -6
7 -8 2 -4 -12 3 -13 1 -23 -3 -23 -5 0 -11 -17 -13 -37 -2 -21 -3 -6 -1 34 1
39 5 77 9 83 4 6 1 25 -6 42 -10 25 -10 31 2 39 11 7 9 9 -8 9 -17 0 -23 -6
-23 -21 0 -11 -3 -18 -8 -15 -4 2 -6 22 -4 43 2 21 4 50 4 65 0 15 4 25 9 23
4 -3 3 8 -2 25 -6 16 -13 30 -16 30 -3 0 -2 -7 1 -16 3 -8 0 -21 -7 -28 -11
-11 -13 -7 -12 23 0 20 4 41 8 48 4 6 3 14 -2 18 -5 3 -15 -3 -21 -12 -10 -16
-10 -16 -5 4 3 12 1 24 -5 28 -5 3 -10 12 -10 18 0 7 4 6 10 -3 5 -8 10 -10
10 -5 0 6 -4 16 -9 23 -11 18 -32 -38 -24 -67 3 -10 0 -28 -6 -38 -10 -17 -10
-16 -11 5 0 25 -16 28 -44 7 -12 -9 -15 -18 -10 -27 5 -7 9 -33 10 -57 0 -25
6 -47 12 -49 7 -2 12 -22 12 -45 -1 -32 -3 -38 -10 -26 -13 22 -23 84 -22 133
0 23 -3 34 -8 27 -5 -9 -9 0 -12 22 -2 20 0 33 4 31 4 -3 5 2 2 10 -3 9 -11
13 -17 9 -6 -3 -7 -1 -3 5 4 7 15 12 25 12 22 0 98 69 85 78 -5 4 -16 21 -24
37 -8 17 -21 37 -29 45 -12 12 -13 11 -7 -8 5 -13 3 -22 -3 -22 -6 0 -11 11
-11 24 0 14 -5 28 -10 31 -6 4 -8 11 -5 16 4 5 -1 19 -10 31 -15 21 -16 21
-11 3 6 -22 -2 -39 -22 -43 -9 -1 -10 3 -5 15 10 22 10 54 -1 71 -6 10 -11 10
-22 1 -8 -6 -18 -9 -21 -5 -4 4 -1 11 7 16 13 8 12 12 -4 27 -18 17 -19 17
-12 0 4 -13 2 -17 -6 -14 -7 2 -13 13 -13 24 -1 11 -17 36 -36 56 -27 28 -38
34 -47 25 -9 -9 -15 -9 -24 1 -9 8 -9 11 -1 9 10 -3 13 1 13 18 0 4 -6 1 -14
-5 -10 -8 -21 -9 -42 -1 -15 6 -33 9 -40 6 -7 -3 -23 4 -36 14 -13 11 -18 19
-13 20 6 0 17 -6 24 -12 11 -10 14 -10 18 0 3 6 11 12 19 12 9 0 13 -4 9 -9
-3 -5 -1 -12 4 -15 13 -8 42 4 35 15 -3 5 -10 7 -15 4 -5 -4 -12 1 -15 10 -5
12 -14 14 -35 10 -22 -5 -35 -1 -56 19 -31 29 -20 35 15 10 13 -9 26 -14 28
-11 3 3 -25 20 -61 38 -54 26 -70 30 -85 21 -15 -9 -17 -8 -13 7 6 23 -24 36
-45 19 -12 -10 -14 -10 -8 0 5 8 0 12 -14 12 -12 0 -18 4 -15 10 3 6 -1 7 -9
4 -9 -3 -16 -15 -16 -25 0 -10 -7 -20 -15 -20 -19 -2 -25 -4 -47 -13 -22 -10
-52 0 -43 14 4 6 -7 10 -25 10 -20 0 -29 4 -25 11 4 6 14 8 23 4 28 -10 118
-16 104 -7 -11 7 -10 11 4 16 16 6 16 8 4 16 -8 6 -30 10 -48 10 -18 0 -31 4
-28 8 2 4 -4 8 -14 8 -10 0 -17 -3 -14 -7 2 -4 -4 -9 -13 -12 -10 -2 8 -4 41
-5 63 -1 91 -12 35 -13 -19 0 -53 -1 -75 -2 -40 -2 -47 5 -31 31 6 8 1 12 -14
12 -16 0 -20 -5 -16 -20 4 -15 0 -20 -16 -21 -12 0 -29 -2 -38 -4 -11 -2 -16
4 -15 19 1 20 -4 21 -74 22 l-75 1 70 -7 70 -7 -90 1 c-49 1 -82 0 -72 -2 14
-3 26 -22 12 -22 -13 0 -54 24 -50 30 2 3 -20 6 -48 7 -34 0 -43 -2 -27 -7z
m75 -21 c11 -16 -2 -23 -43 -22 -20 1 -40 -3 -43 -9 -4 -7 -9 -6 -13 1 -5 7 4
14 23 17 17 4 31 10 31 15 0 13 38 11 45 -2z m565 -39 c0 -5 -2 -10 -4 -10 -3
0 -8 5 -11 10 -3 6 -1 10 4 10 6 0 11 -4 11 -10z m-827 -16 c3 -4 -10 -15 -30
-25 -26 -13 -39 -15 -44 -8 -5 8 -8 8 -13 0 -4 -6 3 -13 17 -16 13 -4 23 -14
24 -26 1 -16 -4 -18 -32 -16 -32 2 -41 14 -20 30 6 4 5 10 -3 16 -11 6 -10 10
5 16 10 5 25 7 34 6 9 -1 22 5 29 14 13 16 23 19 33 9z m277 -5 c0 -3 -35 -7
-77 -7 -54 -1 -72 2 -58 8 22 10 135 9 135 -1z m220 1 c0 -5 -5 -10 -11 -10
-5 0 -7 5 -4 10 3 6 8 10 11 10 2 0 4 -4 4 -10z m105 0 c4 -6 -13 -10 -45 -10
-32 0 -49 4 -45 10 3 6 24 10 45 10 21 0 42 -4 45 -10z m223 -17 c16 -18 27
-23 30 -15 2 6 10 12 18 12 9 0 13 4 10 9 -4 5 3 7 14 4 11 -3 23 -10 27 -16
3 -6 1 -7 -5 -3 -7 4 -17 4 -24 0 -8 -5 -6 -10 8 -14 11 -5 1 -7 -26 -6 -50 1
-65 8 -80 37 -15 27 -2 24 28 -8z m-833 -13 c-3 -5 -12 -10 -18 -10 -7 0 -6 4
3 10 19 12 23 12 15 0z m120 -10 c-3 -5 -13 -10 -21 -10 -8 0 -14 -9 -14 -20
0 -11 -2 -20 -6 -20 -13 0 -73 47 -67 53 11 11 115 8 108 -3z m152 4 c-3 -3
-12 -4 -19 -1 -8 3 -5 6 6 6 11 1 17 -2 13 -5z m62 -7 c13 -16 182 -11 193 6
4 7 12 5 22 -6 14 -14 13 -16 -12 -21 -15 -3 -57 -4 -94 -2 -38 2 -68 -1 -68
-5 0 -8 80 -13 142 -9 15 1 37 -4 50 -11 27 -14 91 -21 83 -9 -3 5 10 6 29 3
35 -5 59 13 36 27 -8 5 -3 8 14 7 23 -2 26 -6 21 -24 -6 -24 8 -29 59 -24 11
1 31 -4 47 -11 26 -12 27 -12 6 -23 -11 -5 -22 -16 -23 -23 -1 -7 0 -8 3 -2 2
5 9 10 14 10 6 0 8 -4 5 -9 -7 -11 14 -20 31 -13 7 2 10 9 7 14 -4 6 -10 5
-15 -3 -7 -11 -9 -10 -9 4 0 22 12 22 62 -3 23 -11 50 -20 60 -20 11 0 15 -5
12 -14 -3 -9 3 -17 15 -21 12 -3 21 -11 21 -17 0 -6 -6 -6 -15 2 -12 10 -18
10 -29 1 -11 -10 -17 -8 -25 6 -6 10 -11 14 -11 8 0 -5 -5 -3 -10 5 -8 13 -10
12 -10 -2 0 -10 4 -18 9 -18 4 0 27 -15 50 -33 23 -19 52 -33 64 -32 32 3 59
-23 47 -45 -8 -14 -4 -22 15 -34 21 -14 25 -14 25 -2 0 8 9 13 24 12 14 0 22
-6 19 -13 -6 -14 -19 -17 -26 -5 -2 4 -2 1 -1 -5 2 -7 -2 -13 -8 -13 -12 0 -2
-15 10 -15 4 0 13 -4 19 -8 9 -5 11 -3 7 6 -3 8 2 21 10 30 16 15 12 47 -5 47
-4 0 -6 7 -3 15 4 8 13 15 20 15 17 0 35 -41 24 -55 -4 -5 -10 -19 -12 -30 -3
-11 -9 -29 -14 -39 -5 -14 -4 -17 4 -12 9 5 9 0 1 -20 -10 -28 -10 -28 10 -9
12 10 21 13 21 7 0 -6 -4 -14 -10 -17 -15 -9 -12 -42 5 -49 8 -3 12 -12 9 -20
-6 -17 12 -31 21 -16 4 6 1 18 -6 26 -6 8 -10 17 -7 20 11 11 41 -52 41 -87 0
-21 3 -36 7 -34 9 6 23 -25 15 -33 -3 -3 -5 1 -5 8 0 7 -2 11 -5 8 -4 -3 4
-23 15 -43 15 -27 18 -40 10 -45 -8 -5 -4 -19 14 -48 28 -45 36 -113 23 -197
-5 -33 -5 -45 2 -36 7 11 11 6 15 -20 8 -47 4 -79 -11 -79 -6 0 -17 -8 -23
-17 -8 -14 -10 -8 -5 27 3 32 2 39 -4 25 -13 -28 -13 -63 0 -71 6 -3 15 -1 19
5 11 18 34 -15 25 -36 -6 -17 -7 -17 -19 -1 -11 15 -39 11 -37 -6 2 -19 -13
-66 -21 -66 -5 0 -6 5 -2 12 4 7 3 8 -5 4 -6 -4 -9 -12 -6 -17 7 -10 41 -7 52
6 5 4 2 5 -4 1 -15 -8 -18 10 -3 19 6 3 13 -1 17 -10 6 -17 -14 -38 -29 -29
-4 3 -8 0 -8 -7 0 -7 -17 3 -37 23 -46 43 -64 53 -148 79 -65 20 -65 20 -127
0 -71 -22 -70 -23 65 -21 92 1 97 0 97 -19 0 -21 -4 -21 -330 -21 l-330 0 0
22 c0 21 2 21 120 15 77 -5 120 -3 120 3 0 6 -10 10 -23 10 -13 0 -44 7 -69
15 -43 15 -48 15 -125 -10 -44 -14 -92 -35 -107 -46 l-27 -21 -27 25 c-38 34
-64 47 -159 73 -123 34 -137 42 -141 87 -2 20 -7 37 -12 37 -15 0 -22 -44 -11
-71 10 -28 32 -38 185 -84 118 -35 136 -53 137 -142 2 -72 -1 -136 -6 -141 -9
-10 -68 -3 -76 9 -5 8 -9 39 -9 70 0 54 -1 57 -27 62 -16 3 -46 12 -68 20 -51
19 -109 9 -180 -32 l-49 -28 -49 31 c-37 23 -64 31 -111 34 -55 4 -65 1 -93
-22 -17 -14 -38 -26 -46 -26 -15 0 -27 -40 -27 -89 0 -22 -5 -27 -25 -27 -15
0 -25 6 -25 14 0 12 3 12 17 1 14 -12 14 -9 -3 19 l-19 34 -6 -39 -6 -38 -2
45 c-1 29 -4 40 -10 32 -7 -11 -9 -10 -14 3 -4 9 -3 13 2 10 5 -3 12 -1 16 5
3 5 -2 10 -12 11 -10 0 -13 3 -8 5 6 2 9 22 7 44 -7 74 31 106 175 146 45 12
94 28 110 36 36 17 56 58 44 89 -10 25 -14 20 -25 -32 -6 -30 -46 -50 -146
-74 -92 -23 -146 -51 -170 -89 -17 -28 -20 -50 -20 -145 l0 -111 43 -2 c38 -1
39 -2 8 -5 -39 -5 -94 14 -84 30 11 17 12 197 2 197 -6 0 -7 5 -4 10 3 6 2 10
-3 10 -5 0 -12 9 -15 19 -3 14 -11 18 -26 14 -18 -5 -21 -1 -21 31 0 39 19 51
21 14 1 -22 1 -22 9 2 7 24 7 23 15 -12 4 -21 11 -38 15 -38 15 0 20 33 8 47
-7 8 -12 37 -13 64 0 45 -15 68 -23 37 -2 -9 0 -8 7 2 9 13 11 12 11 -5 0 -11
-5 -27 -10 -35 -8 -12 -10 -10 -11 10 -1 14 -2 33 -1 43 1 9 -3 17 -8 17 -6 0
-10 12 -10 28 0 21 2 24 11 12 7 -11 9 15 7 87 -2 64 1 104 7 107 6 2 6 11 -2
25 -18 29 -16 40 3 16 13 -18 14 -15 11 34 -3 32 -1 48 4 40 5 -8 9 -11 9 -7
0 3 3 14 7 24 4 12 3 15 -6 10 -16 -10 -12 71 5 85 21 17 46 -1 40 -30 l-6
-26 14 26 c8 14 13 38 12 53 -2 17 5 37 19 54 27 33 28 40 4 70 -18 23 -16 52
3 52 5 0 6 4 3 10 -3 5 0 7 8 4 8 -3 20 2 27 11 7 8 17 15 23 15 5 0 3 -8 -6
-18 -21 -23 -22 -58 -3 -65 12 -5 46 30 46 48 0 16 -18 1 -27 -22 l-11 -28 -1
27 c-1 29 29 54 54 44 17 -6 29 11 30 39 0 15 7 20 28 21 15 1 36 9 47 19 20
18 20 19 -16 31 -39 13 -54 29 -53 54 0 10 2 11 6 3 2 -7 9 -13 15 -13 5 0 21
-9 35 -20 14 -11 35 -20 47 -20 17 1 16 3 -9 14 -21 9 -26 14 -16 20 7 5 18 3
24 -3 7 -7 14 -6 23 6 10 15 14 16 30 3 18 -14 18 -14 5 3 -8 10 -20 16 -28
13 -24 -10 -13 24 12 36 19 9 22 14 14 25 -9 10 -4 13 26 13 32 0 36 -2 25
-15 -7 -9 -10 -18 -7 -22 4 -3 2 -14 -4 -24 -7 -15 -6 -17 6 -13 8 3 12 11 8
17 -4 6 0 8 10 4 10 -3 17 -2 17 2 0 5 -7 12 -16 15 -9 4 -14 9 -10 13 9 10
66 11 60 1 -3 -4 2 -8 11 -8 21 0 10 18 -19 31 -16 7 -12 8 17 4 26 -4 37 -3
32 4 -3 6 -2 11 4 11 5 0 16 3 25 6 10 4 16 1 16 -8 0 -8 7 -15 15 -15 8 0 13
3 11 6 -2 3 0 15 3 25 8 20 51 33 51 16 0 -6 21 -9 48 -9 l47 1 -39 8 c-42 8
-67 33 -39 39 10 2 19 -2 21 -8 5 -15 29 -14 35 2 4 7 6 6 6 -4 1 -9 11 -19
24 -23 33 -9 44 -7 27 5 -11 8 -5 9 25 6 22 -2 32 -2 22 0 -9 3 -15 8 -13 12
6 9 -40 8 -50 -1 -4 -4 -11 -5 -17 -1 -5 3 3 12 19 19 38 16 40 16 53 1z m358
-13 c-3 -3 -12 -4 -19 -1 -8 3 -5 6 6 6 11 1 17 -2 13 -5z m2 -20 c2 -2 -5 -4
-17 -4 -11 0 -28 -3 -38 -7 -12 -4 -15 -3 -10 5 5 8 0 12 -14 12 -14 0 -19 -4
-14 -12 5 -8 2 -9 -10 -5 -10 4 -23 7 -29 8 -7 1 -1 5 13 9 23 7 109 3 119 -6z
m191 9 c0 -5 19 -17 41 -28 40 -19 58 -39 45 -52 -3 -4 -16 3 -29 15 -13 12
-32 22 -42 22 -19 0 -55 27 -55 42 0 4 9 8 20 8 11 0 20 -3 20 -7z m-1055 -93
c-20 -22 -35 -26 -35 -10 0 6 7 10 15 10 8 0 15 5 15 10 0 6 5 10 12 10 6 0 3
-9 -7 -20z m1254 -13 c8 -11 4 -14 -25 -14 -33 0 -35 2 -18 14 10 7 21 13 25
13 3 0 12 -6 18 -13z m94 -12 c26 -23 29 -45 6 -45 -6 0 -7 5 -4 10 3 6 1 10
-5 10 -6 0 -8 5 -4 12 5 7 2 9 -8 6 -19 -8 -43 7 -34 21 10 16 17 14 49 -14z
m-1378 -25 l20 -9 -20 0 c-11 0 -29 4 -40 9 l-20 9 20 0 c11 0 29 -4 40 -9z
m1246 -73 c12 -22 12 -22 -10 -3 -11 11 -21 23 -21 28 0 14 19 -1 31 -25z
m-1335 0 c1 -9 -4 -21 -11 -27 -10 -8 -12 -4 -11 20 1 31 17 37 22 7z m1431
-14 c-3 -10 -5 -4 -5 12 0 17 2 24 5 18 2 -7 2 -21 0 -30z m24 10 c-8 -15 -10
-15 -11 -2 0 17 10 32 18 25 2 -3 -1 -13 -7 -23z m-1392 -19 c-9 -11 -15 -12
-26 -3 -17 14 1 31 24 22 10 -4 11 -9 2 -19z m-63 -61 c-7 -7 -26 7 -26 19 0
6 6 6 15 -2 9 -7 13 -15 11 -17z m1612 -60 c-2 -10 -11 -17 -21 -17 -13 1 -17
-6 -17 -30 0 -18 6 -38 13 -46 10 -12 9 -12 -5 -1 -10 7 -18 21 -18 30 0 9 -4
21 -10 27 -14 14 16 54 41 54 14 0 19 -5 17 -17z m79 -52 c2 -21 -1 -30 -8
-25 -6 3 -9 17 -6 31 3 18 1 23 -10 19 -8 -3 -11 -1 -8 5 12 19 30 3 32 -30z
m-1877 -2 c0 -11 -4 -17 -10 -14 -5 3 -10 13 -10 21 0 8 5 14 10 14 6 0 10 -9
10 -21z m1820 11 c0 -5 -4 -10 -10 -10 -5 0 -10 5 -10 10 0 6 5 10 10 10 6 0
10 -4 10 -10z m-1770 -20 c0 -5 -2 -10 -4 -10 -3 0 -8 5 -11 10 -3 6 -1 10 4
10 6 0 11 -4 11 -10z m-70 -20 c0 -11 -4 -20 -10 -20 -5 0 -10 9 -10 20 0 11
5 20 10 20 6 0 10 -9 10 -20z m1752 -12 c-7 -7 -12 -8 -12 -2 0 14 12 26 19
19 2 -3 -1 -11 -7 -17z m109 -15 c-12 -20 -14 -14 -5 12 4 9 9 14 11 11 3 -2
0 -13 -6 -23z m-1827 -37 c1 -23 -3 -32 -11 -29 -7 3 -13 9 -13 15 0 5 -10 7
-22 4 -20 -5 -20 -5 2 6 30 15 41 29 33 43 -4 5 -3 7 2 3 4 -4 8 -23 9 -42z
m1919 -45 c2 -10 1 -25 -4 -32 -6 -10 -9 -4 -9 19 0 36 5 42 13 13z m-2058
-21 c-3 -5 -12 -10 -20 -10 -22 0 -28 -31 -6 -37 30 -8 21 -45 -11 -49 -16 -1
-28 2 -28 7 0 5 6 8 13 7 6 -2 11 2 10 7 -9 57 -6 73 15 78 29 8 33 7 27 -3z
m2021 -32 c-1 -17 -7 -33 -13 -35 -16 -6 -16 7 -3 41 13 34 17 33 16 -6z
m-1974 -43 c-5 -28 -17 -26 -25 5 -4 14 0 20 13 20 13 0 16 -6 12 -25z m2005
-57 c-3 -7 -5 -2 -5 12 0 14 2 19 5 13 2 -7 2 -19 0 -25z m-2027 -54 c0 -13
-4 -24 -10 -24 -5 0 -10 14 -10 31 0 17 4 28 10 24 6 -3 10 -17 10 -31z m2022
1 c-5 -28 -27 -34 -36 -10 -3 9 0 15 9 15 8 0 14 3 14 8 -3 15 1 23 10 18 4
-3 6 -17 3 -31z m79 -28 c-8 -8 -11 -7 -11 4 0 20 13 34 18 19 3 -7 -1 -17 -7
-23z m-2112 -67 c4 0 12 5 19 12 9 9 12 4 12 -23 0 -28 -4 -35 -20 -35 -11 0
-20 4 -20 9 0 4 -4 6 -8 3 -10 -6 -14 74 -4 88 4 6 8 -4 10 -21 2 -18 7 -33
11 -33z m2087 -95 c2 -58 1 -59 -9 -22 -6 20 -16 37 -24 37 -7 0 -13 5 -13 10
0 6 4 10 8 10 5 0 6 14 4 31 -5 31 -4 31 14 13 14 -14 19 -35 20 -79z m-39
-28 c1 -23 -3 -34 -13 -34 -16 0 -29 39 -20 62 9 25 31 6 33 -28z m-2057 -98
c0 -36 -12 -51 -24 -31 -8 14 6 82 15 76 5 -3 9 -23 9 -45z m2074 36 c-4 -8
-8 -15 -10 -15 -2 0 -4 7 -4 15 0 8 4 15 10 15 5 0 7 -7 4 -15z m-2093 -117
c4 -27 2 -35 -8 -31 -7 3 -10 10 -6 17 4 7 1 7 -9 -1 -8 -7 -18 -10 -21 -6
-12 12 -7 23 11 23 16 1 16 1 0 14 -24 18 -22 28 4 24 17 -2 24 -12 29 -40z
m2059 6 c0 -8 -4 -12 -10 -9 -5 3 -10 10 -10 16 0 5 5 9 10 9 6 0 10 -7 10
-16z m-2044 -80 c-4 -9 -9 -15 -11 -12 -3 3 -3 13 1 22 4 9 9 15 11 12 3 -3 3
-13 -1 -22z m2034 1 c0 -8 -9 -10 -25 -7 -20 3 -23 7 -14 18 12 15 39 8 39
-11z m-260 -15 c0 -20 -7 -20 -315 -20 -308 0 -315 0 -315 20 0 20 7 20 315
20 308 0 315 0 315 -20z m208 -59 c-17 -28 -42 -37 -36 -13 3 10 -1 23 -9 30
-15 15 -17 32 -3 32 6 0 10 -7 10 -15 0 -8 4 -15 9 -15 5 0 7 10 3 22 l-5 22
22 -21 c20 -18 21 -24 9 -42z m-218 -11 c0 -20 -7 -20 -310 -20 -252 0 -310 3
-310 13 0 8 3 17 7 20 3 4 143 7 310 7 296 0 303 0 303 -20z m-623 -40 c5 -19
14 -20 312 -20 295 0 307 1 319 20 9 15 23 20 55 20 23 0 37 -4 31 -8 -13 -9
-44 -54 -44 -64 0 -5 5 -8 10 -8 6 0 10 7 10 15 0 8 5 15 10 15 14 0 12 -16
-4 -29 -7 -6 -22 -8 -31 -4 -12 4 -16 3 -12 -4 4 -6 0 -14 -8 -17 -11 -4 -14
-15 -12 -33 2 -16 -2 -32 -10 -38 -11 -8 -9 -11 11 -13 14 -1 26 3 26 8 0 6
19 10 43 9 35 0 38 -2 20 -9 -13 -5 -23 -12 -23 -14 0 -3 7 -3 15 0 9 4 15 0
15 -7 0 -12 2 -12 9 -1 7 11 9 11 14 -2 4 -9 1 -16 -6 -17 -7 0 -20 -2 -30 -4
-9 -2 -15 0 -13 3 2 4 -6 16 -17 27 -11 11 -17 15 -14 9 4 -7 -4 -19 -17 -27
-22 -15 -25 -14 -44 3 -13 13 -23 16 -27 9 -5 -6 -11 -7 -19 0 -8 7 -29 -7
-69 -46 -32 -31 -55 -58 -52 -61 3 -4 10 -1 14 7 7 10 9 10 14 -2 5 -12 -1
-14 -28 -11 -25 3 -41 -2 -63 -21 -17 -14 -35 -25 -41 -25 -18 0 -125 -54
-138 -70 -8 -10 -27 -14 -62 -13 -63 3 -67 -12 -6 -21 25 -4 45 -13 45 -19 0
-7 5 -4 11 6 12 21 29 22 29 2 0 -19 7 -19 26 -1 19 20 18 26 -6 26 -13 0 -18
5 -14 15 4 8 12 15 20 15 8 0 14 4 14 8 0 10 45 32 78 38 21 4 22 4 5 -16 -10
-11 -19 -16 -21 -11 -5 14 -52 -9 -52 -26 0 -7 7 -13 17 -13 13 0 12 -4 -7
-20 -12 -11 -20 -26 -17 -34 6 -15 -15 -40 -25 -31 -3 3 -33 7 -66 9 -37 3
-68 10 -77 19 -13 13 -10 15 28 11 33 -3 29 -1 -16 9 -33 6 -56 15 -53 18 4 4
-6 4 -21 1 -27 -5 -27 -5 -4 -14 20 -7 21 -10 7 -23 -8 -8 -31 -15 -50 -15
-20 0 -36 -4 -36 -10 0 -6 28 -10 63 -10 65 0 99 -12 82 -28 -16 -15 -55 -24
-55 -13 0 5 12 12 28 14 15 2 -9 5 -52 6 -44 0 -76 4 -73 8 4 3 0 17 -8 30
-15 22 -14 23 7 24 13 0 17 3 10 6 -7 3 -20 2 -30 -3 -25 -10 -62 -12 -62 -2
0 4 -9 8 -21 8 -11 0 -18 -4 -14 -9 3 -6 -6 -8 -20 -5 -16 3 -23 0 -21 -8 1
-7 1 -10 -1 -6 -2 3 -26 4 -52 1 -30 -3 -51 -1 -55 6 -4 6 -25 11 -46 11 -48
0 -72 9 -63 23 4 6 0 8 -10 4 -10 -3 -17 -2 -17 2 0 13 25 20 52 15 23 -5 23
-5 -2 10 -18 10 -27 11 -32 3 -5 -9 -15 -9 -37 -1 -17 7 -33 8 -38 3 -5 -5 -9
0 -10 12 -2 16 2 19 15 14 13 -5 14 -3 5 6 -6 6 -23 12 -37 12 -14 0 -23 3
-21 8 4 6 -34 25 -42 20 -9 -4 0 -16 11 -13 7 1 13 -4 13 -13 0 -8 -5 -11 -11
-8 -6 4 -22 6 -36 5 -25 -2 -70 29 -70 48 0 5 -15 14 -32 19 -18 5 -26 10 -17
10 28 2 34 41 7 41 -5 0 -6 -4 -3 -10 13 -21 -13 -8 -40 20 -20 21 -32 27 -40
20 -18 -15 -33 8 -37 55 -2 22 -6 42 -10 45 -4 3 -4 28 1 55 l7 50 13 -38 13
-37 266 2 267 3 12 35 12 35 0 -37 1 -38 60 0 60 0 0 -30 0 -30 64 0 c63 0 92
12 60 24 -9 3 -36 6 -60 6 -32 0 -44 4 -44 15 0 8 5 15 10 15 6 0 10 25 10 55
l0 55 56 0 c47 0 57 -3 61 -20z m777 2 c-19 -3 -22 -9 -19 -40 1 -20 0 -28 -2
-17 -9 38 -26 43 -18 5 12 -62 12 -65 -19 -68 -15 -2 -40 -1 -54 3 -21 5 -23
8 -11 16 19 12 42 11 34 -1 -4 -6 7 -10 27 -9 20 0 27 3 18 7 -11 5 -16 22
-16 54 0 26 3 45 7 43 4 -3 9 1 12 9 4 9 15 12 34 8 24 -6 25 -7 7 -10z m82
-3 c4 -8 9 -7 15 2 8 12 11 11 19 -1 5 -8 5 -19 1 -23 -14 -14 -56 -3 -59 16
-4 19 13 23 24 6z m-1838 -50 c-3 -8 -7 -3 -11 10 -4 17 -3 21 5 13 5 -5 8
-16 6 -23z m-64 -74 c3 -8 1 -15 -4 -15 -6 0 -10 7 -10 15 0 8 2 15 4 15 2 0
6 -7 10 -15z m150 -1 c9 -3 16 -14 16 -23 0 -12 -2 -13 -9 -3 -4 7 -12 12 -17
11 -5 -1 -13 0 -19 1 -5 1 -30 1 -54 0 -29 -1 -41 2 -37 9 8 12 94 15 120 5z
m-64 -38 c0 -2 -11 -6 -25 -8 -14 -3 -25 -1 -25 3 0 5 11 9 25 9 14 0 25 -2
25 -4z m1530 -42 c0 -8 5 -14 12 -14 6 0 9 -3 5 -6 -3 -3 -12 -2 -19 2 -21 14
-32 12 -52 -7 -19 -19 -19 -19 2 -19 26 0 29 -25 5 -39 -13 -7 -23 -5 -36 7
-17 15 -15 18 24 58 41 42 59 48 59 18z m-1553 10 c-3 -3 -12 -4 -19 -1 -8 3
-5 6 6 6 11 1 17 -2 13 -5z m90 -38 c-7 -15 -17 -21 -30 -18 -10 3 -23 -3 -31
-13 -10 -14 -15 -15 -21 -6 -4 8 1 21 15 35 13 12 20 14 16 6 -4 -8 -1 -7 6 3
7 9 23 17 35 17 19 0 20 -3 10 -24z m1583 -6 c0 -5 -2 -10 -4 -10 -3 0 -8 5
-11 10 -3 6 -1 10 4 10 6 0 11 -4 11 -10z m53 -8 c-3 -7 -9 -10 -12 -5 -3 4
-10 11 -15 15 -4 4 1 6 12 5 12 -1 18 -6 15 -15z m-1598 -32 c4 -6 11 -8 16
-5 5 4 9 2 9 -4 0 -6 7 -8 15 -5 8 4 12 11 8 18 -4 6 0 6 9 -2 13 -10 17 -10
21 0 2 7 4 1 3 -15 -1 -16 -6 -25 -13 -23 -6 3 -13 1 -15 -4 -2 -4 -15 -6 -30
-3 -17 3 -25 10 -21 19 3 9 -2 14 -16 14 -12 0 -21 5 -21 10 0 13 27 13 35 0z
m1435 -13 c0 -10 -39 -47 -49 -47 -19 0 -12 15 17 32 29 19 32 20 32 15z
m-1500 -11 c0 -11 -19 -15 -25 -6 -3 5 1 10 9 10 9 0 16 -2 16 -4z m1344 -4
c-6 -4 -14 -17 -18 -29 -4 -13 -14 -23 -22 -23 -11 0 -9 7 8 30 12 17 27 30
32 30 7 0 7 -3 0 -8z m83 -45 c2 -23 -1 -25 -22 -17 -12 5 -25 7 -28 4 -2 -2
-10 3 -18 13 -12 14 -12 16 0 8 11 -6 13 -4 8 7 -3 9 0 21 6 27 16 16 51 -11
54 -42z m-1047 -27 c0 -5 -8 -10 -17 -10 -15 0 -16 2 -3 10 19 12 20 12 20 0z
m-290 -10 c0 -5 -7 -7 -15 -4 -8 4 -15 8 -15 10 0 2 7 4 15 4 8 0 15 -4 15
-10z m1212 -15 c5 -24 3 -25 -32 -23 -20 2 -37 8 -37 15 0 7 4 10 8 8 4 -3 9
2 13 10 9 25 43 18 48 -10z m-970 -9 c10 -7 15 -15 13 -18 -3 -3 2 -11 11 -18
12 -11 17 -11 23 -1 13 21 20 18 42 -18 22 -37 21 -40 -9 -46 -14 -2 -23 2
-27 13 -3 10 -17 25 -32 34 -27 16 -34 18 -52 18 -5 0 -11 9 -14 20 -3 11 -1
18 4 14 5 -3 9 0 9 5 0 14 11 13 32 -3z m1025 -8 c-3 -8 -6 -5 -6 6 -1 11 2
17 5 13 3 -3 4 -12 1 -19z m-30 -54 c-3 -3 -12 -4 -19 -1 -8 3 -5 6 6 6 11 1
17 -2 13 -5z m-797 -19 c7 -8 19 -15 26 -15 8 0 14 -4 14 -10 0 -11 -77 -7
-88 5 -4 5 -2 6 3 3 6 -3 19 -2 30 3 17 6 17 8 3 8 -10 1 -18 6 -18 11 0 15
16 12 30 -5z m150 -55 c11 -7 3 -10 -28 -10 -26 0 -41 4 -37 10 8 13 45 13 65
0z m255 -10 c-3 -5 -22 -10 -41 -10 -19 0 -34 5 -34 10 0 6 18 10 41 10 24 0
38 -4 34 -10z m115 -5 c0 -8 -7 -15 -15 -15 -9 0 -12 6 -9 15 4 8 10 15 15 15
5 0 9 -7 9 -15z"/>
<path d="M4848 2383 c7 -3 16 -2 19 1 4 3 -2 6 -13 5 -11 0 -14 -3 -6 -6z"/>
<path d="M4984 2376 c-3 -9 -10 -16 -16 -16 -5 0 -6 5 -3 10 3 6 1 10 -4 10
-15 0 -14 -27 2 -32 15 -6 50 29 37 37 -6 4 -13 -1 -16 -9z"/>
<path d="M4920 2370 c0 -5 5 -10 10 -10 6 0 10 5 10 10 0 6 -4 10 -10 10 -5 0
-10 -4 -10 -10z"/>
<path d="M5075 2290 c3 -5 8 -10 11 -10 2 0 4 5 4 10 0 6 -5 10 -11 10 -5 0
-7 -4 -4 -10z"/>
<path d="M4013 2265 c0 -8 4 -12 9 -9 5 3 6 10 3 15 -9 13 -12 11 -12 -6z"/>
<path d="M5220 2189 c0 -13 38 -30 45 -20 6 10 -11 24 -32 27 -7 1 -13 -2 -13
-7z"/>
<path d="M4073 2091 c-56 -14 -98 -45 -101 -74 l-3 -26 45 15 c49 17 222 16
260 -1 35 -16 13 28 -31 58 -45 32 -111 43 -170 28z"/>
<path d="M5342 2050 c7 -11 16 -20 20 -20 15 0 8 15 -12 28 -19 12 -20 11 -8
-8z"/>
<path d="M4935 2047 c-16 -8 -39 -24 -49 -36 -11 -11 -29 -21 -41 -21 -32 0
-72 -35 -85 -76 -12 -36 -7 -104 11 -151 l9 -24 31 23 c39 29 69 78 69 113 l0
28 23 -20 c42 -38 69 -46 170 -47 l99 -1 38 -43 c21 -23 40 -39 43 -35 14 25
16 103 3 145 -31 105 -93 149 -216 155 -50 2 -85 -1 -105 -10z"/>
<path d="M3766 2028 c3 -5 10 -6 15 -3 13 9 11 12 -6 12 -8 0 -12 -4 -9 -9z"/>
<path d="M4037 1989 c-91 -21 -167 -85 -186 -156 -12 -44 -13 -109 -2 -138 7
-17 11 -13 35 28 27 45 27 49 15 97 -21 82 14 121 111 125 37 2 71 11 104 29
l49 26 -44 -1 c-24 -1 -61 -5 -82 -10z"/>
<path d="M4097 1950 c-40 -25 -50 -28 -76 -19 -62 22 -133 -38 -112 -95 17
-43 13 -85 -10 -117 -12 -17 -23 -47 -26 -68 -5 -33 0 -43 36 -85 23 -26 41
-50 41 -54 -1 -4 -4 -25 -9 -48 -4 -22 -4 -49 0 -60 7 -17 8 -16 9 6 0 14 9
36 20 50 27 35 24 68 -10 119 -35 51 -38 91 -11 135 11 17 25 54 31 81 15 68
33 92 77 104 87 25 133 2 152 -75 17 -67 37 -102 92 -161 60 -64 65 -101 19
-141 -16 -15 -30 -34 -30 -43 0 -9 14 -31 30 -49 23 -25 30 -28 30 -14 0 9 -7
25 -15 34 -14 15 -12 23 16 76 24 46 29 67 24 94 -3 19 -12 87 -20 150 -15
123 -26 148 -85 188 -49 33 -113 30 -173 -8z"/>
<path d="M4312 1944 c38 -41 48 -74 58 -187 9 -109 24 -143 36 -82 20 108 -30
251 -101 287 -15 8 -14 4 7 -18z"/>
<path d="M5437 1895 c3 -8 9 -12 14 -9 12 7 11 11 -5 17 -10 4 -13 1 -9 -8z"/>
<path d="M3640 1770 c0 -5 5 -10 10 -10 6 0 10 5 10 10 0 6 -4 10 -10 10 -5 0
-10 -4 -10 -10z"/>
<path d="M3636 1727 c3 -10 9 -15 12 -12 3 3 0 11 -7 18 -10 9 -11 8 -5 -6z"/>
<path d="M4740 1712 c0 -22 8 -41 25 -58 14 -14 34 -43 45 -64 33 -64 84 -108
147 -126 52 -15 61 -15 107 -1 57 18 117 71 147 128 10 21 30 49 44 63 16 16
25 36 25 56 0 40 -8 38 -26 -5 -8 -20 -21 -38 -29 -42 -8 -3 -24 -26 -35 -51
-26 -57 -53 -88 -102 -113 -97 -50 -220 7 -259 119 -6 17 -21 38 -35 47 -13 8
-24 21 -24 28 0 7 -7 22 -15 33 -14 18 -14 17 -15 -14z"/>
<path d="M3632 1670 c0 -14 2 -19 5 -12 2 6 2 18 0 25 -3 6 -5 1 -5 -13z"/>
<path d="M4281 1569 c-33 -45 -108 -89 -150 -89 -20 0 -51 9 -70 21 -36 21
-52 19 -32 -5 16 -19 76 -39 113 -38 59 2 178 89 178 130 0 21 -16 13 -39 -19z"/>
<path d="M4900 1415 c0 -19 4 -35 10 -35 12 0 24 45 15 59 -13 22 -25 10 -25
-24z"/>
<path d="M5107 1443 c-4 -3 -7 -19 -7 -35 0 -40 24 -31 28 10 3 30 -6 41 -21
25z"/>
<path d="M4851 1352 c-38 -26 129 -49 240 -34 45 7 85 14 88 18 15 15 -29 24
-84 17 -75 -10 -127 -9 -185 0 -25 4 -51 3 -59 -1z"/>
<path d="M4700 1020 c0 -20 7 -20 310 -20 303 0 310 0 310 20 0 20 -7 20 -310
20 -303 0 -310 0 -310 -20z"/>
<path d="M4730 961 c-76 -14 7 -20 273 -21 149 0 282 0 293 0 12 0 24 6 27 14
5 11 -41 14 -276 14 -155 0 -298 -3 -317 -7z"/>
<path d="M3840 943 c0 -7 4 -14 9 -18 6 -3 8 -14 6 -25 -4 -22 10 -36 20 -20
4 6 18 2 36 -11 17 -12 33 -19 35 -16 3 3 -5 11 -18 18 -12 7 -38 28 -55 48
-18 19 -33 30 -33 24z m35 -42 c3 -5 2 -12 -3 -15 -5 -3 -9 1 -9 9 0 17 3 19
12 6z"/>
<path d="M3985 809 c-9 -14 -3 -19 29 -25 32 -6 33 -1 2 20 -17 10 -27 12 -31
5z"/>
<path d="M4040 761 c0 -5 7 -11 14 -14 10 -4 13 -1 9 9 -6 15 -23 19 -23 5z"/>
<path d="M4290 638 c0 -5 10 -8 23 -7 12 1 38 1 57 0 28 -1 32 -4 20 -12 -12
-9 -11 -9 5 -3 11 4 39 8 63 9 48 3 71 15 26 14 -16 0 -66 1 -111 3 -46 2 -83
0 -83 -4z"/>
<path d="M5185 831 c-3 -5 -1 -12 5 -16 5 -3 10 1 10 9 0 18 -6 21 -15 7z"/>
<path d="M3735 839 c-4 -6 -5 -12 -2 -15 2 -3 7 2 10 11 7 17 1 20 -8 4z"/>
<path d="M3914 2415 c-4 -8 -10 -13 -14 -10 -4 3 -13 -2 -20 -10 -9 -11 -8
-14 9 -12 12 1 21 4 21 8 0 4 9 11 20 14 11 4 18 11 15 16 -9 14 -25 11 -31
-6z"/>
<path d="M3649 2170 c-13 -10 -19 -19 -13 -20 6 0 19 9 29 20 23 26 14 26 -16
0z"/>
<path d="M3579 2069 c-15 -31 -17 -40 -6 -31 13 11 16 11 20 0 2 -7 2 -2 0 10
-2 13 1 30 8 38 7 8 9 17 6 20 -3 3 -16 -14 -28 -37z"/>
<path d="M3540 2001 c-6 -12 -7 -21 -1 -21 10 0 24 30 17 37 -2 3 -9 -5 -16
-16z"/>
<path d="M3506 1935 c-9 -26 -7 -32 5 -12 6 10 9 21 6 23 -2 3 -7 -2 -11 -11z"/>
<path d="M3460 1810 c0 -5 5 -10 10 -10 6 0 10 5 10 10 0 6 -4 10 -10 10 -5 0
-10 -4 -10 -10z"/>
<path d="M5653 1249 c-6 -6 -9 -18 -6 -25 8 -22 18 -16 18 11 0 14 0 25 0 25
-1 0 -6 -5 -12 -11z"/>
<path d="M3477 1243 c-4 -3 -7 -13 -7 -22 1 -13 3 -13 11 2 11 19 8 33 -4 20z"/>
<path d="M3486 1205 c-9 -26 -7 -32 5 -12 6 10 9 21 6 23 -2 3 -7 -2 -11 -11z"/>
<path d="M5637 1187 c-3 -8 -1 -20 5 -28 8 -11 9 -11 5 3 -3 9 -1 18 6 21 8 2
8 5 0 10 -6 4 -13 1 -16 -6z"/>
<path d="M3506 1165 c4 -8 8 -15 10 -15 2 0 4 7 4 15 0 8 -4 15 -10 15 -5 0
-7 -7 -4 -15z"/>
<path d="M5610 1109 c0 -11 4 -18 10 -14 5 3 7 12 3 20 -7 21 -13 19 -13 -6z"/>
<path d="M5405 810 c-3 -5 -1 -10 4 -10 6 0 11 5 11 10 0 6 -2 10 -4 10 -3 0
-8 -4 -11 -10z"/>
<path d="M3780 750 c0 -5 10 -15 23 -21 22 -12 22 -12 3 10 -21 23 -26 26 -26
11z"/>
<path d="M5300 715 c-17 -10 -20 -14 -9 -15 9 0 22 7 29 15 15 18 12 18 -20 0z"/>
<path d="M5049 598 c-1 -2 -3 -13 -4 -25 -1 -14 2 -20 11 -16 8 3 14 9 14 15
0 5 -4 6 -10 3 -5 -3 -10 -2 -10 4 0 5 6 12 13 14 10 4 10 6 0 6 -7 1 -14 0
-14 -1z"/>
<path d="M4811 476 c-10 -12 -8 -13 8 -9 12 3 18 9 15 14 -7 12 -10 11 -23 -5z"/>
<path d="M4477 453 c-3 -5 16 -7 41 -5 80 5 90 9 25 11 -34 0 -64 -2 -66 -6z"/>
</g>
</svg>
